<svg viewBox="0 0 1245.666748046875 400" xmlns="http://www.w3.org/2000/svg"><g><g><g><g><g><line x1="19.25" y1="48.59453674760466" x2="14.25" y2="48.59453674760466" style="visibility: inherit;" fill="rgb(0, 0, 0)" stroke="rgb(204, 204, 204)" stroke-width="1px"></line></g><g transform="translate(9.25, 0)"><text x="0" y="48.59453674760466" dx="0em" dy="0.3em" style="text-anchor: end; visibility: inherit; font-family: Roboto, sans-serif; font-size: 12px; font-weight: 200;" fill="rgb(255, 255, 255)" stroke="none" stroke-width="1px">1</text></g><line x1="19.25" y1="0" x2="19.25" y2="374" fill="rgb(0, 0, 0)" stroke="rgb(204, 204, 204)" stroke-width="1px"></line></g></g><g transform="translate(19, 0)" clip-path="url(#clip_0)"><clipPath id="clip_0"><rect width="1226" height="374"></rect></clipPath><g><g><g><line x1="0" y1="0" x2="0" y2="374" fill="rgb(0, 0, 0)" stroke="rgb(189, 189, 189)" stroke-width="1px" opacity="0.25"></line><line x1="102.20166666666667" y1="0" x2="102.20166666666667" y2="374" fill="rgb(0, 0, 0)" stroke="rgb(189, 189, 189)" stroke-width="1px" opacity="0.25"></line><line x1="204.40333333333334" y1="0" x2="204.40333333333334" y2="374" fill="rgb(0, 0, 0)" stroke="rgb(189, 189, 189)" stroke-width="1px" opacity="0.25"></line><line x1="306.605" y1="0" x2="306.605" y2="374" fill="rgb(0, 0, 0)" stroke="rgb(189, 189, 189)" stroke-width="1px" opacity="0.25"></line><line x1="408.8066666666667" y1="0" x2="408.8066666666667" y2="374" fill="rgb(0, 0, 0)" stroke="rgb(189, 189, 189)" stroke-width="1px" opacity="0.25"></line><line x1="511.0083333333334" y1="0" x2="511.0083333333334" y2="374" fill="rgb(0, 0, 0)" stroke="rgb(189, 189, 189)" stroke-width="1px" opacity="0.25"></line><line x1="613.21" y1="0" x2="613.21" y2="374" fill="rgb(0, 0, 0)" stroke="rgb(189, 189, 189)" stroke-width="1px" opacity="0.25"></line><line x1="715.4116666666667" y1="0" x2="715.4116666666667" y2="374" fill="rgb(0, 0, 0)" stroke="rgb(189, 189, 189)" stroke-width="1px" opacity="0.25"></line><line x1="817.6133333333333" y1="0" x2="817.6133333333333" y2="374" fill="rgb(0, 0, 0)" stroke="rgb(189, 189, 189)" stroke-width="1px" opacity="0.25"></line><line x1="919.815" y1="0" x2="919.815" y2="374" fill="rgb(0, 0, 0)" stroke="rgb(189, 189, 189)" stroke-width="1px" opacity="0.25"></line><line x1="1022.0166666666668" y1="0" x2="1022.0166666666668" y2="374" fill="rgb(0, 0, 0)" stroke="rgb(189, 189, 189)" stroke-width="1px" opacity="0.25"></line><line x1="1124.2183333333332" y1="0" x2="1124.2183333333332" y2="374" fill="rgb(0, 0, 0)" stroke="rgb(189, 189, 189)" stroke-width="1px" opacity="0.25"></line><line x1="1226.42" y1="0" x2="1226.42" y2="374" fill="rgb(0, 0, 0)" stroke="rgb(189, 189, 189)" stroke-width="1px" opacity="0.25"></line></g><g><line x1="0" y1="48.59453674760466" x2="1226.42" y2="48.59453674760466" fill="rgb(0, 0, 0)" stroke="rgb(189, 189, 189)" stroke-width="1px" opacity="0.25"></line></g></g></g><g><g><line x1="102.20166666666667" y1="0" x2="102.20166666666667" y2="374" fill="rgb(0, 0, 0)" stroke="rgb(153, 153, 153)" stroke-width="1.5px"></line></g></g><g><g><g><g><g><path stroke="rgb(204, 51, 17)" stroke-width="2px" d="M153.3025,382.19690112932864L163.52266666666668,320.5714285714276L173.74283333333335,278.4390015451173L183.963,243.51117256164832L194.18316666666666,213.12747939161844L204.40333333333334,189.59890197040204L214.6235,170.9751482245636L224.84366666666668,154.8984292510253L235.06383333333335,142.10041285942606L245.28400000000002,128.96548322789528L255.5041666666667,120.03615686002267L265.72433333333333,114.68269913035441L275.9445,107.06701566075886L286.1646666666667,102.6758602373968L296.38483333333335,98.45659167018201L306.605,93.9892403263934L316.8251666666667,89.54839899416912L327.04533333333336,86.88431554898987L337.26550000000003,83.52617513788414L347.4856666666667,79.92813354884066L357.7058333333334,78.29687410396897L367.926,76.61468772382908L378.1461666666667,75.07753593723407L388.36633333333333,72.74788458960894L398.58650000000006,71.17467580267414L408.8066666666667,68.99910372411665L419.02683333333334,68.39771899795493L429.247,66.45370262212404L439.4671666666667,65.11125546461916L449.68733333333336,65.36118486709955L459.9075,64.80797768405664L470.1276666666667,64.47605895226505L480.34783333333337,62.342395683884526L490.56800000000004,60.886202607543346L500.7881666666667,60.36467088979902L511.0083333333334,59.524175383829146L521.2285,59.01989094267675L531.4486666666667,58.54126256319334L541.6688333333334,57.902601156086156L551.889,56.991880984506096L562.1091666666666,56.26941680872712L572.3293333333334,56.36345543017811L582.5495,56.244460498486305L592.7696666666667,55.64555998295701L602.9898333333333,55.46163809378817L613.21,55.52732661888456L623.4301666666667,55.21528708889109L633.6503333333334,55.02806514366953L643.8705000000001,54.91573261472577L654.0906666666667,54.496261484870416L664.3108333333333,54.42061566342651L674.5310000000001,54.37522827474683L684.7511666666667,54.17196271105908L694.9713333333334,54.05000412509844L705.1915,53.80142723359987L715.4116666666667,53.65228222371389L725.6318333333334,53.73819604584543L735.852,53.614343707490725L746.0721666666667,53.5400325837602L756.2923333333334,53.49544601006381L766.5125,53.64409389903271L776.7326666666667,53.73328303471979L786.9528333333334,53.78679666096769L797.1730000000001,53.81890488885482L807.3931666666667,53.66276875615245L817.6133333333333,53.569087520385764L827.8335000000001,53.51287893871418L838.0536666666667,53.47915384723328L848.2738333333334,53.45891881305123L858.494,53.44677780000169L868.7141666666668,53.4394931948522L878.9343333333334,53.435122432731L889.1545,53.43249997580379L899.3746666666667,53.43092650177266L909.5948333333334,53.42998241740081L919.815,53.42941596679336L930.0351666666667,53.4290760964359L940.2553333333334,53.42887217422238L950.4755000000001,53.42874982089615L960.6956666666667,53.428676408898944L970.9158333333334,53.428632361702476L981.1360000000001,53.42860593338288L991.3561666666667,53.42859007639112L1001.5763333333334,53.42858056219727L1011.7965,53.42857485368035L1022.0166666666668,53.428571428569036L1032.2368333333334,53.428569373503436L1042.457,53.42856814046347L1052.6771666666666,53.42856740064127L1062.8973333333333,53.42856695674556L1073.1175,53.42856669040989L1083.3376666666668,53.42856653060797L1093.5578333333335,53.428566434727315L1103.778,53.4285663771996L1113.9981666666667,53.428566342681705L1124.2183333333332,53.42856632196987" style="fill: none;" fill="none"></path></g><g><path stroke="rgb(0, 119, 187)" stroke-width="2px" d="M132.86216666666667,421.9287116828786L143.08233333333334,365.9384692715836L153.3025,325.86715866862943L163.52266666666668,313.9964472678182L173.74283333333335,298.4775276751216L183.963,280.79524916105925L194.18316666666666,259.6430173384604L204.40333333333334,258.8583284721806L214.6235,250.92381387802513L224.84366666666668,254.7025570475807L235.06383333333335,253.7721952560451L245.28400000000002,248.96068307362017L255.5041666666667,246.07661098293778L265.72433333333333,247.53537256946564L275.9445,253.72426942179874L286.1646666666667,240.4349069234384L296.38483333333335,237.77607614254367L306.605,228.74669465742448L316.8251666666667,227.5774785501279L327.04533333333336,216.2611705255209L337.26550000000003,223.27085443424212L347.4856666666667,218.98495124972945L357.7058333333334,219.5976762102746L367.926,224.21140640774183L378.1461666666667,221.6718101674078L388.36633333333333,220.148171505146L398.58650000000006,219.23403117185416L408.8066666666667,226.11613787674335L419.02683333333334,218.56866674650217L429.247,220.40948707922882L439.4671666666667,210.90088617964187L449.68733333333336,211.56350058156818L459.9075,210.89982756037278L470.1276666666667,215.80759449763713L480.34783333333337,234.67750520725974L490.56800000000004,227.95036849923457L500.7881666666667,232.40903143412888L511.0083333333334,226.58960808816494L521.2285,220.9758499169513L531.4486666666667,214.42449853367856L541.6688333333334,212.61634587131695L551.889,214.71483461027347L562.1091666666666,219.15786534467438L572.3293333333334,215.4560691952651L582.5495,219.60267855301984L592.7696666666667,227.39925316516906L602.9898333333333,228.892886945089L613.21,222.3574988450747L623.4301666666667,223.7439709076938L633.6503333333334,230.94669960789088L643.8705000000001,228.897426598402L654.0906666666667,227.66793924898215L664.3108333333333,219.49947109203535L674.5310000000001,211.41629786343853L684.7511666666667,209.75030471300602L694.9713333333334,207.69027130717066L705.1915,207.51476685588622L715.4116666666667,209.53172571575948L725.6318333333334,213.92520057738983L735.852,218.68400223384754L746.0721666666667,218.3555506487922L756.2923333333334,211.7913928426095L766.5125,209.97534683846052L776.7326666666667,209.9469478329947L786.9528333333334,209.92990844440152L797.1730000000001,207.7980249790061L807.3931666666667,204.3969591769966L817.6133333333333,202.3565302806623L827.8335000000001,207.49686348759656L838.0536666666667,212.70406091217384L848.2738333333334,212.64541779518837L858.494,204.12248645779326L868.7141666666668,197.94932147692916L878.9343333333334,203.79160293607816L889.1545,208.35806560964198L899.3746666666667,205.79394018608733L909.5948333333334,206.37695938926L919.815,201.4232737627293L930.0351666666667,205.8763813392693L940.2553333333334,208.54860697760512L950.4755000000001,211.21265946400445L960.6956666666667,212.81122018363607L970.9158333333334,212.70971316277934L981.1360000000001,210.5262972381614L991.3561666666667,207.09473123949093L1001.5763333333334,206.09701962118928L1011.7965,206.55881065375723L1022.0166666666668,210.01864300061683L1032.2368333333334,208.91175589517593L1042.457,208.24764593841226L1052.6771666666666,212.09331912915988L1062.8973333333333,212.27897184267755L1073.1175,213.45104123047358L1083.3376666666668,214.15430787576128L1093.5578333333335,212.45424226309555L1103.778,210.37302709554905L1113.9981666666667,209.1243768532481L1124.2183333333332,210.49755381116924" style="fill: none;" fill="none"></path></g></g></g></g><g opacity="0.2"><g><g><g><path stroke="rgb(204, 51, 17)" stroke-width="2px" d="M122.64200000000001,514.0399559148867L132.86216666666667,365.5362957755753L143.08233333333334,307.7872444311004L153.3025,262.1221558832564L163.52266666666668,235.5579920890282L173.74283333333335,218.305707078873L183.963,192.66883847779835L194.18316666666666,168.38124030385566L204.40333333333334,154.7004006623845L214.6235,143.23284061582362L224.84366666666668,130.88910023456873L235.06383333333335,122.95677684515125L245.28400000000002,109.30105798502126L255.5041666666667,106.65832441950431L265.72433333333333,106.65832441950431L275.9445,95.6508346340337L286.1646666666667,96.09161271427438L296.38483333333335,92.1295972199645L306.605,87.29004056459806L316.8251666666667,82.88878272869714L327.04533333333336,82.88878272869714L337.26550000000003,78.48983270857947L347.4856666666667,74.53203433472468L357.7058333333334,75.8501857675835L367.926,74.09161656422941L378.1461666666667,72.77198022434479L388.36633333333333,69.25379709221008L398.58650000000006,68.81504008085513L408.8066666666667,65.73608339552564L419.02683333333334,67.49566782924977L429.247,63.537947199370535L439.4671666666667,63.09771305174981L449.68733333333336,65.73608339552564L459.9075,63.978188698418364L470.1276666666667,63.978188698418364L480.34783333333337,59.14222455936019L490.56800000000004,58.70206380752576L500.7881666666667,59.58239266017061L511.0083333333334,58.26348236778605L521.2285,58.26348236778605L531.4486666666667,57.82333628692336L541.6688333333334,56.94463805440298L551.889,55.62585971342056L562.1091666666666,55.185757665844726L572.3293333333334,56.5045139912851L582.5495,56.065969108012325L592.7696666666667,54.74723471875596L602.9898333333333,55.185757665844726L613.21,55.62585971342056L623.4301666666667,54.74723471875596L633.6503333333334,54.74723471875596L643.8705000000001,54.74723471875596L654.0906666666667,53.86706730400268L664.3108333333333,54.30714733823885L674.5310000000001,54.30714733823885L684.7511666666667,53.86706730400268L694.9713333333334,53.86706730400268L705.1915,53.42856629090352L715.4116666666667,53.42856629090352L725.6318333333334,53.86706730400268L735.852,53.42856629090352L746.0721666666667,53.42856629090352L756.2923333333334,53.42856629090352L766.5125,53.86706730400268L776.7326666666667,53.86706730400268L786.9528333333334,53.86706730400268L797.1730000000001,53.86706730400268L807.3931666666667,53.42856629090352L817.6133333333333,53.42856629090352L827.8335000000001,53.42856629090352L838.0536666666667,53.42856629090352L848.2738333333334,53.42856629090352L858.494,53.42856629090352L868.7141666666668,53.42856629090352L878.9343333333334,53.42856629090352L889.1545,53.42856629090352L899.3746666666667,53.42856629090352L909.5948333333334,53.42856629090352L919.815,53.42856629090352L930.0351666666667,53.42856629090352L940.2553333333334,53.42856629090352L950.4755000000001,53.42856629090352L960.6956666666667,53.42856629090352L970.9158333333334,53.42856629090352L981.1360000000001,53.42856629090352L991.3561666666667,53.42856629090352L1001.5763333333334,53.42856629090352L1011.7965,53.42856629090352L1022.0166666666668,53.42856629090352L1032.2368333333334,53.42856629090352L1042.457,53.42856629090352L1052.6771666666666,53.42856629090352L1062.8973333333333,53.42856629090352L1073.1175,53.42856629090352L1083.3376666666668,53.42856629090352L1093.5578333333335,53.42856629090352L1103.778,53.42856629090352L1113.9981666666667,53.42856629090352L1124.2183333333332,53.42856629090352" style="fill: none;" fill="none"></path></g><g><path stroke="rgb(0, 119, 187)" stroke-width="2px" d="M122.64200000000001,422.96583904529695L132.86216666666667,364.20199048323946L143.08233333333334,300.2457291556457L153.3025,273.64155835424174L163.52266666666668,297.5837863739212L173.74283333333335,276.30108464627955L183.963,255.03555014113036L194.18316666666666,228.47852233768185L204.40333333333334,257.6932000432321L214.6235,239.0984399940975L224.84366666666668,260.3511178845442L235.06383333333335,252.3797517047792L245.28400000000002,241.7544837136253L255.5041666666667,241.7544837136253L265.72433333333333,249.7226373594712L275.9445,263.0077194999271L286.1646666666667,220.5167859978459L296.38483333333335,233.78873764991005L306.605,215.2092430202778L316.8251666666667,225.82381572754636L327.04533333333336,199.29618300748623L337.26550000000003,233.78873764991005L347.4856666666667,212.55745336430175L357.7058333333334,220.5167859978459L367.926,231.1334962938523L378.1461666666667,217.86288094365173L388.36633333333333,217.86288094365173L398.58650000000006,217.86288094365173L408.8066666666667,236.44266383607953L419.02683333333334,207.25151236959624L429.247,223.1709582366475L439.4671666666667,196.64441317725965L449.68733333333336,212.55745336430175L459.9075,209.9043493821552L470.1276666666667,223.1709582366475L480.34783333333337,263.0077194999271L490.56800000000004,217.86288094365173L500.7881666666667,239.0984399940975L511.0083333333334,217.86288094365173L521.2285,212.55745336430175L531.4486666666667,204.60052298609455L541.6688333333334,209.9043493821552L551.889,217.86288094365173L562.1091666666666,225.82381572754636L572.3293333333334,209.9043493821552L582.5495,225.82381572754636L592.7696666666667,239.0984399940975L602.9898333333333,231.1334962938523L613.21,212.55745336430175L623.4301666666667,225.82381572754636L633.6503333333334,241.7544837136253L643.8705000000001,225.82381572754636L654.0906666666667,225.82381572754636L664.3108333333333,207.25151236959624L674.5310000000001,199.29618300748623L684.7511666666667,207.25151236959624L694.9713333333334,204.60052298609455L705.1915,207.25151236959624L715.4116666666667,212.55745336430175L725.6318333333334,220.5167859978459L735.852,225.82381572754636L746.0721666666667,217.86288094365173L756.2923333333334,201.9482195925399L766.5125,207.25151236959624L776.7326666666667,209.9043493821552L786.9528333333334,209.9043493821552L797.1730000000001,204.60052298609455L807.3931666666667,199.29618300748623L817.6133333333333,199.29618300748623L827.8335000000001,215.2092430202778L838.0536666666667,220.5167859978459L848.2738333333334,212.55745336430175L858.494,191.34325348518095L868.7141666666668,188.69228343869483L878.9343333333334,212.55745336430175L889.1545,215.2092430202778L899.3746666666667,201.9482195925399L909.5948333333334,207.25151236959624L919.815,193.99449012560186L930.0351666666667,212.55745336430175L940.2553333333334,212.55745336430175L950.4755000000001,215.2092430202778L960.6956666666667,215.2092430202778L970.9158333333334,212.55745336430175L981.1360000000001,207.25151236959624L991.3561666666667,201.9482195925399L1001.5763333333334,204.60052298609455L1011.7965,207.25151236959624L1022.0166666666668,215.2092430202778L1032.2368333333334,207.25151236959624L1042.457,207.25151236959624L1052.6771666666666,217.86288094365173L1062.8973333333333,212.55745336430175L1073.1175,215.2092430202778L1083.3376666666668,215.2092430202778L1093.5578333333335,209.9043493821552L1103.778,207.25151236959624L1113.9981666666667,207.25151236959624L1124.2183333333332,212.55745336430175" style="fill: none;" fill="none"></path></g></g></g></g></g></g><g transform="translate(19, 374)" clip-path="url(#clip_1)"><clipPath id="clip_1"><rect width="1226" height="26"></rect></clipPath><g><g><line x1="0" y1="0" x2="0" y2="5" style="visibility: inherit;" fill="rgb(0, 0, 0)" stroke="rgb(204, 204, 204)" stroke-width="1px"></line><line x1="102.20166666666667" y1="0" x2="102.20166666666667" y2="5" style="visibility: inherit;" fill="rgb(0, 0, 0)" stroke="rgb(204, 204, 204)" stroke-width="1px"></line><line x1="204.40333333333334" y1="0" x2="204.40333333333334" y2="5" style="visibility: inherit;" fill="rgb(0, 0, 0)" stroke="rgb(204, 204, 204)" stroke-width="1px"></line><line x1="306.605" y1="0" x2="306.605" y2="5" style="visibility: inherit;" fill="rgb(0, 0, 0)" stroke="rgb(204, 204, 204)" stroke-width="1px"></line><line x1="408.8066666666667" y1="0" x2="408.8066666666667" y2="5" style="visibility: inherit;" fill="rgb(0, 0, 0)" stroke="rgb(204, 204, 204)" stroke-width="1px"></line><line x1="511.0083333333334" y1="0" x2="511.0083333333334" y2="5" style="visibility: inherit;" fill="rgb(0, 0, 0)" stroke="rgb(204, 204, 204)" stroke-width="1px"></line><line x1="613.21" y1="0" x2="613.21" y2="5" style="visibility: inherit;" fill="rgb(0, 0, 0)" stroke="rgb(204, 204, 204)" stroke-width="1px"></line><line x1="715.4116666666667" y1="0" x2="715.4116666666667" y2="5" style="visibility: inherit;" fill="rgb(0, 0, 0)" stroke="rgb(204, 204, 204)" stroke-width="1px"></line><line x1="817.6133333333333" y1="0" x2="817.6133333333333" y2="5" style="visibility: inherit;" fill="rgb(0, 0, 0)" stroke="rgb(204, 204, 204)" stroke-width="1px"></line><line x1="919.815" y1="0" x2="919.815" y2="5" style="visibility: inherit;" fill="rgb(0, 0, 0)" stroke="rgb(204, 204, 204)" stroke-width="1px"></line><line x1="1022.0166666666668" y1="0" x2="1022.0166666666668" y2="5" style="visibility: inherit;" fill="rgb(0, 0, 0)" stroke="rgb(204, 204, 204)" stroke-width="1px"></line><line x1="1124.2183333333332" y1="0" x2="1124.2183333333332" y2="5" style="visibility: inherit;" fill="rgb(0, 0, 0)" stroke="rgb(204, 204, 204)" stroke-width="1px"></line><line x1="1226.42" y1="0" x2="1226.42" y2="5" style="visibility: inherit;" fill="rgb(0, 0, 0)" stroke="rgb(204, 204, 204)" stroke-width="1px"></line></g><g transform="translate(0, 8)"><text x="0" y="0" dx="0em" dy="0.95em" style="text-anchor: middle; visibility: hidden; font-family: Roboto, sans-serif; font-size: 12px; font-weight: 200;" fill="rgb(255, 255, 255)" stroke="none" stroke-width="1px">-10</text><text x="102.20166666666667" y="0" dx="0em" dy="0.95em" style="text-anchor: middle; visibility: inherit; font-family: Roboto, sans-serif; font-size: 12px; font-weight: 200;" fill="rgb(255, 255, 255)" stroke="none" stroke-width="1px">0</text><text x="204.40333333333334" y="0" dx="0em" dy="0.95em" style="text-anchor: middle; visibility: inherit; font-family: Roboto, sans-serif; font-size: 12px; font-weight: 200;" fill="rgb(255, 255, 255)" stroke="none" stroke-width="1px">10</text><text x="306.605" y="0" dx="0em" dy="0.95em" style="text-anchor: middle; visibility: inherit; font-family: Roboto, sans-serif; font-size: 12px; font-weight: 200;" fill="rgb(255, 255, 255)" stroke="none" stroke-width="1px">20</text><text x="408.8066666666667" y="0" dx="0em" dy="0.95em" style="text-anchor: middle; visibility: inherit; font-family: Roboto, sans-serif; font-size: 12px; font-weight: 200;" fill="rgb(255, 255, 255)" stroke="none" stroke-width="1px">30</text><text x="511.0083333333334" y="0" dx="0em" dy="0.95em" style="text-anchor: middle; visibility: inherit; font-family: Roboto, sans-serif; font-size: 12px; font-weight: 200;" fill="rgb(255, 255, 255)" stroke="none" stroke-width="1px">40</text><text x="613.21" y="0" dx="0em" dy="0.95em" style="text-anchor: middle; visibility: inherit; font-family: Roboto, sans-serif; font-size: 12px; font-weight: 200;" fill="rgb(255, 255, 255)" stroke="none" stroke-width="1px">50</text><text x="715.4116666666667" y="0" dx="0em" dy="0.95em" style="text-anchor: middle; visibility: inherit; font-family: Roboto, sans-serif; font-size: 12px; font-weight: 200;" fill="rgb(255, 255, 255)" stroke="none" stroke-width="1px">60</text><text x="817.6133333333333" y="0" dx="0em" dy="0.95em" style="text-anchor: middle; visibility: inherit; font-family: Roboto, sans-serif; font-size: 12px; font-weight: 200;" fill="rgb(255, 255, 255)" stroke="none" stroke-width="1px">70</text><text x="919.815" y="0" dx="0em" dy="0.95em" style="text-anchor: middle; visibility: inherit; font-family: Roboto, sans-serif; font-size: 12px; font-weight: 200;" fill="rgb(255, 255, 255)" stroke="none" stroke-width="1px">80</text><text x="1022.0166666666668" y="0" dx="0em" dy="0.95em" style="text-anchor: middle; visibility: inherit; font-family: Roboto, sans-serif; font-size: 12px; font-weight: 200;" fill="rgb(255, 255, 255)" stroke="none" stroke-width="1px">90</text><text x="1124.2183333333332" y="0" dx="0em" dy="0.95em" style="text-anchor: middle; visibility: inherit; font-family: Roboto, sans-serif; font-size: 12px; font-weight: 200;" fill="rgb(255, 255, 255)" stroke="none" stroke-width="1px">100</text><text x="1226.42" y="0" dx="0em" dy="0.95em" style="text-anchor: middle; visibility: hidden; font-family: Roboto, sans-serif; font-size: 12px; font-weight: 200;" fill="rgb(255, 255, 255)" stroke="none" stroke-width="1px">110</text></g><line x1="0" y1="0" x2="1226.42" y2="0" fill="rgb(0, 0, 0)" stroke="rgb(204, 204, 204)" stroke-width="1px"></line></g></g></g></g></svg>