<svg viewBox="0 0 1245.666748046875 400" xmlns="http://www.w3.org/2000/svg"><g><g><g><g><g><line x1="56.25" y1="374" x2="51.25" y2="374" style="visibility: inherit;" fill="rgb(0, 0, 0)" stroke="rgb(204, 204, 204)" stroke-width="1px"></line><line x1="56.25" y1="342.83333333333303" x2="51.25" y2="342.83333333333303" style="visibility: inherit;" fill="rgb(0, 0, 0)" stroke="rgb(204, 204, 204)" stroke-width="1px"></line><line x1="56.25" y1="311.6666666666661" x2="51.25" y2="311.6666666666661" style="visibility: inherit;" fill="rgb(0, 0, 0)" stroke="rgb(204, 204, 204)" stroke-width="1px"></line><line x1="56.25" y1="280.49999999999915" x2="51.25" y2="280.49999999999915" style="visibility: inherit;" fill="rgb(0, 0, 0)" stroke="rgb(204, 204, 204)" stroke-width="1px"></line><line x1="56.25" y1="249.3333333333322" x2="51.25" y2="249.3333333333322" style="visibility: inherit;" fill="rgb(0, 0, 0)" stroke="rgb(204, 204, 204)" stroke-width="1px"></line><line x1="56.25" y1="218.16666666666524" x2="51.25" y2="218.16666666666524" style="visibility: inherit;" fill="rgb(0, 0, 0)" stroke="rgb(204, 204, 204)" stroke-width="1px"></line><line x1="56.25" y1="186.99999999999827" x2="51.25" y2="186.99999999999827" style="visibility: inherit;" fill="rgb(0, 0, 0)" stroke="rgb(204, 204, 204)" stroke-width="1px"></line><line x1="56.25" y1="155.83333333333132" x2="51.25" y2="155.83333333333132" style="visibility: inherit;" fill="rgb(0, 0, 0)" stroke="rgb(204, 204, 204)" stroke-width="1px"></line><line x1="56.25" y1="124.66666666666436" x2="51.25" y2="124.66666666666436" style="visibility: inherit;" fill="rgb(0, 0, 0)" stroke="rgb(204, 204, 204)" stroke-width="1px"></line><line x1="56.25" y1="93.49999999999739" x2="51.25" y2="93.49999999999739" style="visibility: inherit;" fill="rgb(0, 0, 0)" stroke="rgb(204, 204, 204)" stroke-width="1px"></line><line x1="56.25" y1="62.33333333333046" x2="51.25" y2="62.33333333333046" style="visibility: inherit;" fill="rgb(0, 0, 0)" stroke="rgb(204, 204, 204)" stroke-width="1px"></line><line x1="56.25" y1="31.166666666663485" x2="51.25" y2="31.166666666663485" style="visibility: inherit;" fill="rgb(0, 0, 0)" stroke="rgb(204, 204, 204)" stroke-width="1px"></line></g><g transform="translate(46.25, 0)"><text x="0" y="374" dx="0em" dy="0.3em" style="text-anchor: end; visibility: hidden; font-family: Roboto, sans-serif; font-size: 12px; font-weight: 200;" fill="rgb(255, 255, 255)" stroke="none" stroke-width="1px">0.989</text><text x="0" y="342.83333333333303" dx="0em" dy="0.3em" style="text-anchor: end; visibility: inherit; font-family: Roboto, sans-serif; font-size: 12px; font-weight: 200;" fill="rgb(255, 255, 255)" stroke="none" stroke-width="1px">0.99</text><text x="0" y="311.6666666666661" dx="0em" dy="0.3em" style="text-anchor: end; visibility: inherit; font-family: Roboto, sans-serif; font-size: 12px; font-weight: 200;" fill="rgb(255, 255, 255)" stroke="none" stroke-width="1px">0.991</text><text x="0" y="280.49999999999915" dx="0em" dy="0.3em" style="text-anchor: end; visibility: inherit; font-family: Roboto, sans-serif; font-size: 12px; font-weight: 200;" fill="rgb(255, 255, 255)" stroke="none" stroke-width="1px">0.992</text><text x="0" y="249.3333333333322" dx="0em" dy="0.3em" style="text-anchor: end; visibility: inherit; font-family: Roboto, sans-serif; font-size: 12px; font-weight: 200;" fill="rgb(255, 255, 255)" stroke="none" stroke-width="1px">0.993</text><text x="0" y="218.16666666666524" dx="0em" dy="0.3em" style="text-anchor: end; visibility: inherit; font-family: Roboto, sans-serif; font-size: 12px; font-weight: 200;" fill="rgb(255, 255, 255)" stroke="none" stroke-width="1px">0.994</text><text x="0" y="186.99999999999827" dx="0em" dy="0.3em" style="text-anchor: end; visibility: inherit; font-family: Roboto, sans-serif; font-size: 12px; font-weight: 200;" fill="rgb(255, 255, 255)" stroke="none" stroke-width="1px">0.995</text><text x="0" y="155.83333333333132" dx="0em" dy="0.3em" style="text-anchor: end; visibility: inherit; font-family: Roboto, sans-serif; font-size: 12px; font-weight: 200;" fill="rgb(255, 255, 255)" stroke="none" stroke-width="1px">0.996</text><text x="0" y="124.66666666666436" dx="0em" dy="0.3em" style="text-anchor: end; visibility: inherit; font-family: Roboto, sans-serif; font-size: 12px; font-weight: 200;" fill="rgb(255, 255, 255)" stroke="none" stroke-width="1px">0.997</text><text x="0" y="93.49999999999739" dx="0em" dy="0.3em" style="text-anchor: end; visibility: inherit; font-family: Roboto, sans-serif; font-size: 12px; font-weight: 200;" fill="rgb(255, 255, 255)" stroke="none" stroke-width="1px">0.998</text><text x="0" y="62.33333333333046" dx="0em" dy="0.3em" style="text-anchor: end; visibility: inherit; font-family: Roboto, sans-serif; font-size: 12px; font-weight: 200;" fill="rgb(255, 255, 255)" stroke="none" stroke-width="1px">0.999</text><text x="0" y="31.166666666663485" dx="0em" dy="0.3em" style="text-anchor: end; visibility: inherit; font-family: Roboto, sans-serif; font-size: 12px; font-weight: 200;" fill="rgb(255, 255, 255)" stroke="none" stroke-width="1px">1</text></g><line x1="56.25" y1="0" x2="56.25" y2="374" fill="rgb(0, 0, 0)" stroke="rgb(204, 204, 204)" stroke-width="1px"></line></g></g><g transform="translate(56, 0)" clip-path="url(#clip_0)"><clipPath id="clip_0"><rect width="1189" height="374"></rect></clipPath><g><g><g><line x1="0" y1="0" x2="0" y2="374" fill="rgb(0, 0, 0)" stroke="rgb(189, 189, 189)" stroke-width="1px" opacity="0.25"></line><line x1="99.11833333333334" y1="0" x2="99.11833333333334" y2="374" fill="rgb(0, 0, 0)" stroke="rgb(189, 189, 189)" stroke-width="1px" opacity="0.25"></line><line x1="198.23666666666668" y1="0" x2="198.23666666666668" y2="374" fill="rgb(0, 0, 0)" stroke="rgb(189, 189, 189)" stroke-width="1px" opacity="0.25"></line><line x1="297.355" y1="0" x2="297.355" y2="374" fill="rgb(0, 0, 0)" stroke="rgb(189, 189, 189)" stroke-width="1px" opacity="0.25"></line><line x1="396.47333333333336" y1="0" x2="396.47333333333336" y2="374" fill="rgb(0, 0, 0)" stroke="rgb(189, 189, 189)" stroke-width="1px" opacity="0.25"></line><line x1="495.5916666666667" y1="0" x2="495.5916666666667" y2="374" fill="rgb(0, 0, 0)" stroke="rgb(189, 189, 189)" stroke-width="1px" opacity="0.25"></line><line x1="594.71" y1="0" x2="594.71" y2="374" fill="rgb(0, 0, 0)" stroke="rgb(189, 189, 189)" stroke-width="1px" opacity="0.25"></line><line x1="693.8283333333334" y1="0" x2="693.8283333333334" y2="374" fill="rgb(0, 0, 0)" stroke="rgb(189, 189, 189)" stroke-width="1px" opacity="0.25"></line><line x1="792.9466666666667" y1="0" x2="792.9466666666667" y2="374" fill="rgb(0, 0, 0)" stroke="rgb(189, 189, 189)" stroke-width="1px" opacity="0.25"></line><line x1="892.065" y1="0" x2="892.065" y2="374" fill="rgb(0, 0, 0)" stroke="rgb(189, 189, 189)" stroke-width="1px" opacity="0.25"></line><line x1="991.1833333333334" y1="0" x2="991.1833333333334" y2="374" fill="rgb(0, 0, 0)" stroke="rgb(189, 189, 189)" stroke-width="1px" opacity="0.25"></line><line x1="1090.3016666666667" y1="0" x2="1090.3016666666667" y2="374" fill="rgb(0, 0, 0)" stroke="rgb(189, 189, 189)" stroke-width="1px" opacity="0.25"></line><line x1="1189.42" y1="0" x2="1189.42" y2="374" fill="rgb(0, 0, 0)" stroke="rgb(189, 189, 189)" stroke-width="1px" opacity="0.25"></line></g><g><line x1="0" y1="374" x2="1189.42" y2="374" fill="rgb(0, 0, 0)" stroke="rgb(189, 189, 189)" stroke-width="1px" opacity="0.25"></line><line x1="0" y1="342.83333333333303" x2="1189.42" y2="342.83333333333303" fill="rgb(0, 0, 0)" stroke="rgb(189, 189, 189)" stroke-width="1px" opacity="0.25"></line><line x1="0" y1="311.6666666666661" x2="1189.42" y2="311.6666666666661" fill="rgb(0, 0, 0)" stroke="rgb(189, 189, 189)" stroke-width="1px" opacity="0.25"></line><line x1="0" y1="280.49999999999915" x2="1189.42" y2="280.49999999999915" fill="rgb(0, 0, 0)" stroke="rgb(189, 189, 189)" stroke-width="1px" opacity="0.25"></line><line x1="0" y1="249.3333333333322" x2="1189.42" y2="249.3333333333322" fill="rgb(0, 0, 0)" stroke="rgb(189, 189, 189)" stroke-width="1px" opacity="0.25"></line><line x1="0" y1="218.16666666666524" x2="1189.42" y2="218.16666666666524" fill="rgb(0, 0, 0)" stroke="rgb(189, 189, 189)" stroke-width="1px" opacity="0.25"></line><line x1="0" y1="186.99999999999827" x2="1189.42" y2="186.99999999999827" fill="rgb(0, 0, 0)" stroke="rgb(189, 189, 189)" stroke-width="1px" opacity="0.25"></line><line x1="0" y1="155.83333333333132" x2="1189.42" y2="155.83333333333132" fill="rgb(0, 0, 0)" stroke="rgb(189, 189, 189)" stroke-width="1px" opacity="0.25"></line><line x1="0" y1="124.66666666666436" x2="1189.42" y2="124.66666666666436" fill="rgb(0, 0, 0)" stroke="rgb(189, 189, 189)" stroke-width="1px" opacity="0.25"></line><line x1="0" y1="93.49999999999739" x2="1189.42" y2="93.49999999999739" fill="rgb(0, 0, 0)" stroke="rgb(189, 189, 189)" stroke-width="1px" opacity="0.25"></line><line x1="0" y1="62.33333333333046" x2="1189.42" y2="62.33333333333046" fill="rgb(0, 0, 0)" stroke="rgb(189, 189, 189)" stroke-width="1px" opacity="0.25"></line><line x1="0" y1="31.166666666663485" x2="1189.42" y2="31.166666666663485" fill="rgb(0, 0, 0)" stroke="rgb(189, 189, 189)" stroke-width="1px" opacity="0.25"></line></g></g></g><g><g><line x1="0" y1="31197.83333333359" x2="1189.42" y2="31197.83333333359" fill="rgb(0, 0, 0)" stroke="rgb(153, 153, 153)" stroke-width="1.5px"></line></g></g><g><g><line x1="99.11833333333334" y1="0" x2="99.11833333333334" y2="374" fill="rgb(0, 0, 0)" stroke="rgb(153, 153, 153)" stroke-width="1.5px"></line></g></g><g><g><g><g><g><path stroke="rgb(204, 51, 17)" stroke-width="2px" d="M148.6775,423.0633194780221L158.58933333333334,351.042225104105L168.50116666666668,301.7054796898718L178.413,260.7454449190177L188.32483333333334,225.0701782900364L198.23666666666668,197.41564183364025L208.1485,175.50853010855695L218.06033333333332,156.585044396594L227.9721666666667,141.5125820551269L237.88400000000001,126.0357205262324L247.79583333333335,115.50990930597744L257.7076666666667,109.19759087780164L267.6195,100.21564922637265L277.53133333333335,95.03553843305896L287.4431666666667,90.05738439368186L297.355,84.78565851860463L307.2668333333334,79.54433050421532L317.1786666666667,76.39960728295077L327.0905,72.43515625110093L337.00233333333335,68.18692957543351L346.9141666666667,66.26070192103371L356.826,64.27421377182695L366.73783333333336,62.458885644066314L376.6496666666667,59.707438575880786L386.5615,57.849254464502515L396.47333333333336,55.279410629813356L406.3851666666667,54.569001518434476L416.297,52.27244565652135L426.20883333333336,50.686452299712386L436.12066666666664,50.98172990752472L446.0325,50.328142808206486L455.9443333333334,49.935990555805134L465.8561666666667,47.41501206410584L475.76800000000003,45.6943650316041L485.67983333333336,45.07809671051154L495.5916666666667,44.084898949052025L505.50350000000003,43.488980293022664L515.4153333333334,42.9233691529181L525.3271666666667,42.16862564675488L535.239,41.09234277423773L545.1508333333334,40.238513104130405L555.0626666666667,40.349652071010546L564.9745,40.209018575669106L574.8863333333334,39.501201709603464L584.7981666666667,39.28382846543705L594.71,39.36146446563182L604.6218333333334,38.992669243596296L614.5336666666668,38.771392110374286L624.4455,38.63862583044109L634.3573333333334,38.14284616908997L644.2691666666667,38.053438318973846L654.181,37.99979360890555L664.0928333333334,37.75954683616723L674.0046666666667,37.615398772524244L683.9165,37.32159305888139L693.8283333333334,37.145309630698414L703.7401666666667,37.24685644924503L713.652,37.10046766491661L723.5638333333333,37.012634394318184L733.4756666666667,36.95993443195983L743.3875,37.13563133000187L753.2993333333334,37.24104946882573L763.2111666666668,37.3043003521249L773.123,37.342250882102974L783.0348333333334,37.15770432463278L792.9466666666667,37.046976390147876L802.8585,36.98053962945831L812.7703333333334,36.94067757304321L822.6821666666667,36.91676033919207L832.594,36.9024099988869L842.5058333333334,36.89379979469966L852.4176666666667,36.888633672190096L862.3295,36.88553399868157L872.2413333333333,36.88367419457646L882.1531666666667,36.88255831211547L892.065,36.88188878263821L901.9768333333334,36.881487064953205L911.8886666666668,36.88124603434085L921.8005,36.88110141597479L931.7123333333334,36.88101464495309L941.6241666666667,36.88096258234214L951.5360000000001,36.8809313447735L961.4478333333334,36.880912602232314L971.3596666666667,36.880901356708975L981.2715000000001,36.88089460939431L991.1833333333334,36.88089056100409L1001.0951666666667,36.88088813197138L1011.0070000000001,36.880886674551036L1020.9188333333333,36.88088580010091L1030.8306666666667,36.88088527542806L1040.7425,36.880884960626425L1050.6543333333334,36.88088477174479L1060.5661666666667,36.88088465841645L1070.478,36.880884590420166L1080.3898333333334,36.88088454962102L1090.3016666666667,36.88088452514011" style="fill: none;" fill="none"></path></g><g><path stroke="rgb(0, 119, 187)" stroke-width="2px" d="M138.76566666666668,404.07859302560485L148.6775,357.237907793077L158.58933333333334,343.34816415487444L168.50116666666668,325.1802709569995L178.413,304.4667093187331L188.32483333333334,279.6700815918822L198.23666666666668,278.74981302066755L208.1485,269.4428222802506L218.06033333333332,273.8755445550743L227.9721666666667,272.7842259687456L237.88400000000001,267.1396857784681L247.79583333333335,263.75579390588985L257.7076666666667,265.4674102451271L267.6195,272.7280077055179L277.53133333333335,257.1352923626529L287.4431666666667,254.01468121220927L297.355,243.41474543631463L307.2668333333334,242.04189248457828L317.1786666666667,228.75152973644612L327.0905,236.98467881363464L337.00233333333335,231.95097722956163L346.9141666666667,232.6706597186523L356.826,238.08922748867462L366.73783333333336,235.10673123778514L376.6496666666667,233.31723544089147L386.5615,232.2435386660662L396.47333333333336,240.32595140500533L406.3851666666667,231.46201638483058L416.297,233.62415487551775L426.20883333333336,222.45418802993896L436.12066666666664,223.2327066332461L446.0325,222.45294422182664L455.9443333333334,228.21871146510128L465.8561666666667,250.37755959803135L475.76800000000003,242.47973352663186L485.67983333333336,247.7145400839031L495.5916666666667,240.88192183834656L505.50350000000003,234.28934689069698L515.4153333333334,226.59392438183204L525.3271666666667,224.46967488376427L535.239,226.93500272782583L545.1508333333334,232.15407697623488L555.0626666666667,227.80576644074853L564.9745,232.67653520362998L574.8863333333334,241.8326210786425L584.7981666666667,243.58639506160875L594.71,235.91203082987644L604.6218333333334,237.54029383693302L614.5336666666668,245.99774979614313L624.4455,243.59172521667364L634.3573333333334,242.14811046900306L644.2691666666667,232.55531299897515L654.181,223.05975697509837L664.0928333333334,221.10230090263508L674.0046666666667,218.6816967927001L683.9165,218.47546479320027L693.8283333333334,220.84547266890257L703.7401666666667,226.0073549361812L713.652,231.5974883007083L723.5638333333333,231.21169077756454L733.4756666666667,223.5004571799528L743.3875,221.36672102555048L753.2993333333334,221.33335287060922L763.2111666666668,221.31333197764718L773.123,218.80831543770944L783.0348333333334,214.81155843834517L792.9466666666667,212.4135042387239L802.8585,218.4544268026724L812.7703333333334,224.57272741644104L822.6821666666667,224.50383024284014L832.594,214.48898977956296L842.5058333333334,207.23321196389725L852.4176666666667,214.10012097131664L862.3295,219.4663968422309L872.2413333333333,216.45328081876093L882.1531666666667,217.1384152088333L892.065,211.3166142968603L901.9768333333334,216.5501623710931L911.8886666666668,219.69029121563415L921.8005,222.8204989888207L931.7123333333334,224.69862365273192L941.6241666666667,224.57936798461606L951.5360000000001,222.0140675083471L961.4478333333334,217.98188321842576L971.3596666666667,216.80944618217313L981.2715000000001,217.35211442688407L991.1833333333334,221.41759291557133L1001.0951666666667,220.11700246692095L1011.0070000000001,219.3366481977293L1020.9188333333333,223.8551867157744L1030.8306666666667,224.07330582244293L1040.7425,225.45030775290527L1050.6543333333334,226.27650891118404L1060.5661666666667,224.2792256019893L1070.478,221.83398207877107L1080.3898333333334,220.36683596483937L1090.3016666666667,221.98029537188123" style="fill: none;" fill="none"></path></g></g></g></g><g opacity="0.2"><g><g><g><path stroke="rgb(204, 51, 17)" stroke-width="2px" d="M128.85383333333334,403.6088326772053L138.76566666666668,336.0803762276961L148.6775,282.57738939920955L158.58933333333334,251.41112399101124L168.50116666666668,231.15314435958712L178.413,201.02532100677317L188.32483333333334,172.4560895760834L198.23666666666668,156.3518781661966L208.1485,142.84655841191383L218.06033333333332,128.3027966022468L227.9721666666667,118.95310274759684L237.88400000000001,102.85074901580553L247.79583333333335,99.73356517155706L257.7076666666667,99.73356517155706L267.6195,86.7465376059187L277.53133333333335,87.26668747265862L287.4431666666667,82.59091170628591L297.355,76.87855156262437L307.2668333333334,71.68262592951172L317.1786666666667,71.68262592951172L327.0905,66.48855797449458L337.00233333333335,61.81463988621738L346.9141666666667,63.37137413024612L356.826,61.29449001947745L366.73783333333336,59.73589809735324L376.6496666666667,55.58027219772044L386.5615,55.06198000907599L396.47333333333336,51.4246462980876L406.3851666666667,53.50338808695178L416.297,48.82761232057906L426.20883333333336,48.30746245383913L436.12066666666664,51.4246462980876L446.0325,49.34776218731898L455.9443333333334,49.34776218731898L465.8561666666667,43.633544365561924L475.76800000000003,43.113394498822004L485.67983333333336,44.153694232301845L495.5916666666667,42.595102310177595L505.50350000000003,42.595102310177595L515.4153333333334,42.07495244343767L525.3271666666667,41.03651038805334L535.239,39.47791846592912L545.1508333333334,38.9577685991892L555.0626666666667,40.516360521313416L564.9745,39.99806833266901L574.8863333333334,38.43947641054479L584.7981666666667,38.9577685991892L594.71,39.47791846592912L604.6218333333334,38.43947641054479L614.5336666666668,38.43947641054479L624.4455,38.43947641054479L634.3573333333334,37.39917667706494L644.2691666666667,37.91932654380487L654.181,37.91932654380487L664.0928333333334,37.39917667706494L674.0046666666667,37.39917667706494L683.9165,36.880884488420534L693.8283333333334,36.880884488420534L703.7401666666667,37.39917667706494L713.652,36.880884488420534L723.5638333333333,36.880884488420534L733.4756666666667,36.880884488420534L743.3875,37.39917667706494L753.2993333333334,37.39917667706494L763.2111666666668,37.39917667706494L773.123,37.39917667706494L783.0348333333334,36.880884488420534L792.9466666666667,36.880884488420534L802.8585,36.880884488420534L812.7703333333334,36.880884488420534L822.6821666666667,36.880884488420534L832.594,36.880884488420534L842.5058333333334,36.880884488420534L852.4176666666667,36.880884488420534L862.3295,36.880884488420534L872.2413333333333,36.880884488420534L882.1531666666667,36.880884488420534L892.065,36.880884488420534L901.9768333333334,36.880884488420534L911.8886666666668,36.880884488420534L921.8005,36.880884488420534L931.7123333333334,36.880884488420534L941.6241666666667,36.880884488420534L951.5360000000001,36.880884488420534L961.4478333333334,36.880884488420534L971.3596666666667,36.880884488420534L981.2715000000001,36.880884488420534L991.1833333333334,36.880884488420534L1001.0951666666667,36.880884488420534L1011.0070000000001,36.880884488420534L1020.9188333333333,36.880884488420534L1030.8306666666667,36.880884488420534L1040.7425,36.880884488420534L1050.6543333333334,36.880884488420534L1060.5661666666667,36.880884488420534L1070.478,36.880884488420534L1080.3898333333334,36.880884488420534L1090.3016666666667,36.880884488420534" style="fill: none;" fill="none"></path></g><g><path stroke="rgb(0, 119, 187)" stroke-width="2px" d="M128.85383333333334,402.0502407550811L138.76566666666668,327.25083223978606L148.6775,296.08270915349226L158.58933333333334,324.1336483955376L168.50116666666668,299.1998929977408L178.413,274.26613759994393L188.32483333333334,243.09987219174565L198.23666666666668,277.3833214441924L208.1485,255.56674989064405L218.06033333333332,280.5005052884409L227.9721666666667,271.150811433791L237.88400000000001,258.68393373489255L247.79583333333335,258.68393373489255L257.7076666666667,268.03362758954245L267.6195,283.6158314545939L277.53133333333335,233.75017833709566L287.4431666666667,249.3342398802426L297.355,227.51581064859874L307.2668333333334,239.98268834749715L317.1786666666667,208.8164229392989L327.0905,249.3342398802426L337.00233333333335,224.40048448244573L346.9141666666667,233.75017833709566L356.826,246.21705603599412L366.73783333333336,230.63299449284722L376.6496666666667,230.63299449284722L386.5615,230.63299449284722L396.47333333333336,252.44956604639557L406.3851666666667,218.16611679394876L416.297,236.8673621813442L426.20883333333336,205.69923909505036L436.12066666666664,224.40048448244573L446.0325,221.28330063819726L455.9443333333334,236.8673621813442L465.8561666666667,283.6158314545939L475.76800000000003,230.63299449284722L485.67983333333336,255.56674989064405L495.5916666666667,230.63299449284722L505.50350000000003,224.40048448244573L515.4153333333334,215.0507906277958L525.3271666666667,221.28330063819726L535.239,230.63299449284722L545.1508333333334,239.98268834749715L555.0626666666667,221.28330063819726L564.9745,239.98268834749715L574.8863333333334,255.56674989064405L584.7981666666667,246.21705603599412L594.71,224.40048448244573L604.6218333333334,239.98268834749715L614.5336666666668,258.68393373489255L624.4455,239.98268834749715L634.3573333333334,239.98268834749715L644.2691666666667,218.16611679394876L654.181,208.8164229392989L664.0928333333334,218.16611679394876L674.0046666666667,215.0507906277958L683.9165,218.16611679394876L693.8283333333334,224.40048448244573L703.7401666666667,233.75017833709566L713.652,239.98268834749715L723.5638333333333,230.63299449284722L733.4756666666667,211.9336067835473L743.3875,218.16611679394876L753.2993333333334,221.28330063819726L763.2111666666668,221.28330063819726L773.123,215.0507906277958L783.0348333333334,208.8164229392989L792.9466666666667,208.8164229392989L802.8585,227.51581064859874L812.7703333333334,233.75017833709566L822.6821666666667,224.40048448244573L832.594,199.4667290846489L842.5058333333334,196.34954524040043L852.4176666666667,224.40048448244573L862.3295,227.51581064859874L872.2413333333333,211.9336067835473L882.1531666666667,218.16611679394876L892.065,202.5839129288974L901.9768333333334,224.40048448244573L911.8886666666668,224.40048448244573L921.8005,227.51581064859874L931.7123333333334,227.51581064859874L941.6241666666667,224.40048448244573L951.5360000000001,218.16611679394876L961.4478333333334,211.9336067835473L971.3596666666667,215.0507906277958L981.2715000000001,218.16611679394876L991.1833333333334,227.51581064859874L1001.0951666666667,218.16611679394876L1011.0070000000001,218.16611679394876L1020.9188333333333,230.63299449284722L1030.8306666666667,224.40048448244573L1040.7425,227.51581064859874L1050.6543333333334,227.51581064859874L1060.5661666666667,221.28330063819726L1070.478,218.16611679394876L1080.3898333333334,218.16611679394876L1090.3016666666667,224.40048448244573" style="fill: none;" fill="none"></path></g></g></g></g></g></g><g transform="translate(56, 374)" clip-path="url(#clip_1)"><clipPath id="clip_1"><rect width="1189" height="26"></rect></clipPath><g><g><line x1="0" y1="0" x2="0" y2="5" style="visibility: inherit;" fill="rgb(0, 0, 0)" stroke="rgb(204, 204, 204)" stroke-width="1px"></line><line x1="99.11833333333334" y1="0" x2="99.11833333333334" y2="5" style="visibility: inherit;" fill="rgb(0, 0, 0)" stroke="rgb(204, 204, 204)" stroke-width="1px"></line><line x1="198.23666666666668" y1="0" x2="198.23666666666668" y2="5" style="visibility: inherit;" fill="rgb(0, 0, 0)" stroke="rgb(204, 204, 204)" stroke-width="1px"></line><line x1="297.355" y1="0" x2="297.355" y2="5" style="visibility: inherit;" fill="rgb(0, 0, 0)" stroke="rgb(204, 204, 204)" stroke-width="1px"></line><line x1="396.47333333333336" y1="0" x2="396.47333333333336" y2="5" style="visibility: inherit;" fill="rgb(0, 0, 0)" stroke="rgb(204, 204, 204)" stroke-width="1px"></line><line x1="495.5916666666667" y1="0" x2="495.5916666666667" y2="5" style="visibility: inherit;" fill="rgb(0, 0, 0)" stroke="rgb(204, 204, 204)" stroke-width="1px"></line><line x1="594.71" y1="0" x2="594.71" y2="5" style="visibility: inherit;" fill="rgb(0, 0, 0)" stroke="rgb(204, 204, 204)" stroke-width="1px"></line><line x1="693.8283333333334" y1="0" x2="693.8283333333334" y2="5" style="visibility: inherit;" fill="rgb(0, 0, 0)" stroke="rgb(204, 204, 204)" stroke-width="1px"></line><line x1="792.9466666666667" y1="0" x2="792.9466666666667" y2="5" style="visibility: inherit;" fill="rgb(0, 0, 0)" stroke="rgb(204, 204, 204)" stroke-width="1px"></line><line x1="892.065" y1="0" x2="892.065" y2="5" style="visibility: inherit;" fill="rgb(0, 0, 0)" stroke="rgb(204, 204, 204)" stroke-width="1px"></line><line x1="991.1833333333334" y1="0" x2="991.1833333333334" y2="5" style="visibility: inherit;" fill="rgb(0, 0, 0)" stroke="rgb(204, 204, 204)" stroke-width="1px"></line><line x1="1090.3016666666667" y1="0" x2="1090.3016666666667" y2="5" style="visibility: inherit;" fill="rgb(0, 0, 0)" stroke="rgb(204, 204, 204)" stroke-width="1px"></line><line x1="1189.42" y1="0" x2="1189.42" y2="5" style="visibility: inherit;" fill="rgb(0, 0, 0)" stroke="rgb(204, 204, 204)" stroke-width="1px"></line></g><g transform="translate(0, 8)"><text x="0" y="0" dx="0em" dy="0.95em" style="text-anchor: middle; visibility: hidden; font-family: Roboto, sans-serif; font-size: 12px; font-weight: 200;" fill="rgb(255, 255, 255)" stroke="none" stroke-width="1px">-10</text><text x="99.11833333333334" y="0" dx="0em" dy="0.95em" style="text-anchor: middle; visibility: inherit; font-family: Roboto, sans-serif; font-size: 12px; font-weight: 200;" fill="rgb(255, 255, 255)" stroke="none" stroke-width="1px">0</text><text x="198.23666666666668" y="0" dx="0em" dy="0.95em" style="text-anchor: middle; visibility: inherit; font-family: Roboto, sans-serif; font-size: 12px; font-weight: 200;" fill="rgb(255, 255, 255)" stroke="none" stroke-width="1px">10</text><text x="297.355" y="0" dx="0em" dy="0.95em" style="text-anchor: middle; visibility: inherit; font-family: Roboto, sans-serif; font-size: 12px; font-weight: 200;" fill="rgb(255, 255, 255)" stroke="none" stroke-width="1px">20</text><text x="396.47333333333336" y="0" dx="0em" dy="0.95em" style="text-anchor: middle; visibility: inherit; font-family: Roboto, sans-serif; font-size: 12px; font-weight: 200;" fill="rgb(255, 255, 255)" stroke="none" stroke-width="1px">30</text><text x="495.5916666666667" y="0" dx="0em" dy="0.95em" style="text-anchor: middle; visibility: inherit; font-family: Roboto, sans-serif; font-size: 12px; font-weight: 200;" fill="rgb(255, 255, 255)" stroke="none" stroke-width="1px">40</text><text x="594.71" y="0" dx="0em" dy="0.95em" style="text-anchor: middle; visibility: inherit; font-family: Roboto, sans-serif; font-size: 12px; font-weight: 200;" fill="rgb(255, 255, 255)" stroke="none" stroke-width="1px">50</text><text x="693.8283333333334" y="0" dx="0em" dy="0.95em" style="text-anchor: middle; visibility: inherit; font-family: Roboto, sans-serif; font-size: 12px; font-weight: 200;" fill="rgb(255, 255, 255)" stroke="none" stroke-width="1px">60</text><text x="792.9466666666667" y="0" dx="0em" dy="0.95em" style="text-anchor: middle; visibility: inherit; font-family: Roboto, sans-serif; font-size: 12px; font-weight: 200;" fill="rgb(255, 255, 255)" stroke="none" stroke-width="1px">70</text><text x="892.065" y="0" dx="0em" dy="0.95em" style="text-anchor: middle; visibility: inherit; font-family: Roboto, sans-serif; font-size: 12px; font-weight: 200;" fill="rgb(255, 255, 255)" stroke="none" stroke-width="1px">80</text><text x="991.1833333333334" y="0" dx="0em" dy="0.95em" style="text-anchor: middle; visibility: inherit; font-family: Roboto, sans-serif; font-size: 12px; font-weight: 200;" fill="rgb(255, 255, 255)" stroke="none" stroke-width="1px">90</text><text x="1090.3016666666667" y="0" dx="0em" dy="0.95em" style="text-anchor: middle; visibility: inherit; font-family: Roboto, sans-serif; font-size: 12px; font-weight: 200;" fill="rgb(255, 255, 255)" stroke="none" stroke-width="1px">100</text><text x="1189.42" y="0" dx="0em" dy="0.95em" style="text-anchor: middle; visibility: hidden; font-family: Roboto, sans-serif; font-size: 12px; font-weight: 200;" fill="rgb(255, 255, 255)" stroke="none" stroke-width="1px">110</text></g><line x1="0" y1="0" x2="1189.42" y2="0" fill="rgb(0, 0, 0)" stroke="rgb(204, 204, 204)" stroke-width="1px"></line></g></g></g></g></svg>