<svg viewBox="0 0 330 200" xmlns="http://www.w3.org/2000/svg"><g><g><g><g><g><line x1="56.25" y1="174" x2="51.25" y2="174" style="visibility: inherit;" fill="rgb(0, 0, 0)" stroke="rgb(204, 204, 204)" stroke-width="1px"></line><line x1="56.25" y1="159.49999999999986" x2="51.25" y2="159.49999999999986" style="visibility: inherit;" fill="rgb(0, 0, 0)" stroke="rgb(204, 204, 204)" stroke-width="1px"></line><line x1="56.25" y1="144.99999999999974" x2="51.25" y2="144.99999999999974" style="visibility: inherit;" fill="rgb(0, 0, 0)" stroke="rgb(204, 204, 204)" stroke-width="1px"></line><line x1="56.25" y1="130.4999999999996" x2="51.25" y2="130.4999999999996" style="visibility: inherit;" fill="rgb(0, 0, 0)" stroke="rgb(204, 204, 204)" stroke-width="1px"></line><line x1="56.25" y1="115.99999999999947" x2="51.25" y2="115.99999999999947" style="visibility: inherit;" fill="rgb(0, 0, 0)" stroke="rgb(204, 204, 204)" stroke-width="1px"></line><line x1="56.25" y1="101.49999999999933" x2="51.25" y2="101.49999999999933" style="visibility: inherit;" fill="rgb(0, 0, 0)" stroke="rgb(204, 204, 204)" stroke-width="1px"></line><line x1="56.25" y1="86.99999999999919" x2="51.25" y2="86.99999999999919" style="visibility: inherit;" fill="rgb(0, 0, 0)" stroke="rgb(204, 204, 204)" stroke-width="1px"></line><line x1="56.25" y1="72.49999999999906" x2="51.25" y2="72.49999999999906" style="visibility: inherit;" fill="rgb(0, 0, 0)" stroke="rgb(204, 204, 204)" stroke-width="1px"></line><line x1="56.25" y1="57.99999999999893" x2="51.25" y2="57.99999999999893" style="visibility: inherit;" fill="rgb(0, 0, 0)" stroke="rgb(204, 204, 204)" stroke-width="1px"></line><line x1="56.25" y1="43.499999999998785" x2="51.25" y2="43.499999999998785" style="visibility: inherit;" fill="rgb(0, 0, 0)" stroke="rgb(204, 204, 204)" stroke-width="1px"></line><line x1="56.25" y1="28.99999999999866" x2="51.25" y2="28.99999999999866" style="visibility: inherit;" fill="rgb(0, 0, 0)" stroke="rgb(204, 204, 204)" stroke-width="1px"></line><line x1="56.25" y1="14.499999999998519" x2="51.25" y2="14.499999999998519" style="visibility: inherit;" fill="rgb(0, 0, 0)" stroke="rgb(204, 204, 204)" stroke-width="1px"></line></g><g transform="translate(46.25, 0)"><text x="0" y="174" dx="0em" dy="0.3em" style="text-anchor: end; visibility: hidden; font-family: Roboto, sans-serif; font-size: 12px; font-weight: 200;" fill="rgb(255, 255, 255)" stroke="none" stroke-width="1px">0.989</text><text x="0" y="159.49999999999986" dx="0em" dy="0.3em" style="text-anchor: end; visibility: inherit; font-family: Roboto, sans-serif; font-size: 12px; font-weight: 200;" fill="rgb(255, 255, 255)" stroke="none" stroke-width="1px">0.99</text><text x="0" y="144.99999999999974" dx="0em" dy="0.3em" style="text-anchor: end; visibility: hidden; font-family: Roboto, sans-serif; font-size: 12px; font-weight: 200;" fill="rgb(255, 255, 255)" stroke="none" stroke-width="1px">0.991</text><text x="0" y="130.4999999999996" dx="0em" dy="0.3em" style="text-anchor: end; visibility: inherit; font-family: Roboto, sans-serif; font-size: 12px; font-weight: 200;" fill="rgb(255, 255, 255)" stroke="none" stroke-width="1px">0.992</text><text x="0" y="115.99999999999947" dx="0em" dy="0.3em" style="text-anchor: end; visibility: hidden; font-family: Roboto, sans-serif; font-size: 12px; font-weight: 200;" fill="rgb(255, 255, 255)" stroke="none" stroke-width="1px">0.993</text><text x="0" y="101.49999999999933" dx="0em" dy="0.3em" style="text-anchor: end; visibility: inherit; font-family: Roboto, sans-serif; font-size: 12px; font-weight: 200;" fill="rgb(255, 255, 255)" stroke="none" stroke-width="1px">0.994</text><text x="0" y="86.99999999999919" dx="0em" dy="0.3em" style="text-anchor: end; visibility: hidden; font-family: Roboto, sans-serif; font-size: 12px; font-weight: 200;" fill="rgb(255, 255, 255)" stroke="none" stroke-width="1px">0.995</text><text x="0" y="72.49999999999906" dx="0em" dy="0.3em" style="text-anchor: end; visibility: inherit; font-family: Roboto, sans-serif; font-size: 12px; font-weight: 200;" fill="rgb(255, 255, 255)" stroke="none" stroke-width="1px">0.996</text><text x="0" y="57.99999999999893" dx="0em" dy="0.3em" style="text-anchor: end; visibility: hidden; font-family: Roboto, sans-serif; font-size: 12px; font-weight: 200;" fill="rgb(255, 255, 255)" stroke="none" stroke-width="1px">0.997</text><text x="0" y="43.499999999998785" dx="0em" dy="0.3em" style="text-anchor: end; visibility: inherit; font-family: Roboto, sans-serif; font-size: 12px; font-weight: 200;" fill="rgb(255, 255, 255)" stroke="none" stroke-width="1px">0.998</text><text x="0" y="28.99999999999866" dx="0em" dy="0.3em" style="text-anchor: end; visibility: hidden; font-family: Roboto, sans-serif; font-size: 12px; font-weight: 200;" fill="rgb(255, 255, 255)" stroke="none" stroke-width="1px">0.999</text><text x="0" y="14.499999999998519" dx="0em" dy="0.3em" style="text-anchor: end; visibility: inherit; font-family: Roboto, sans-serif; font-size: 12px; font-weight: 200;" fill="rgb(255, 255, 255)" stroke="none" stroke-width="1px">1</text></g><line x1="56.25" y1="0" x2="56.25" y2="174" fill="rgb(0, 0, 0)" stroke="rgb(204, 204, 204)" stroke-width="1px"></line></g></g><g transform="translate(56, 0)" clip-path="url(#clip_0)"><clipPath id="clip_0"><rect width="273" height="174"></rect></clipPath><g><g><g><line x1="0" y1="0" x2="0" y2="174" fill="rgb(0, 0, 0)" stroke="rgb(189, 189, 189)" stroke-width="1px" opacity="0.25"></line><line x1="22.8125" y1="0" x2="22.8125" y2="174" fill="rgb(0, 0, 0)" stroke="rgb(189, 189, 189)" stroke-width="1px" opacity="0.25"></line><line x1="45.625" y1="0" x2="45.625" y2="174" fill="rgb(0, 0, 0)" stroke="rgb(189, 189, 189)" stroke-width="1px" opacity="0.25"></line><line x1="68.4375" y1="0" x2="68.4375" y2="174" fill="rgb(0, 0, 0)" stroke="rgb(189, 189, 189)" stroke-width="1px" opacity="0.25"></line><line x1="91.25" y1="0" x2="91.25" y2="174" fill="rgb(0, 0, 0)" stroke="rgb(189, 189, 189)" stroke-width="1px" opacity="0.25"></line><line x1="114.0625" y1="0" x2="114.0625" y2="174" fill="rgb(0, 0, 0)" stroke="rgb(189, 189, 189)" stroke-width="1px" opacity="0.25"></line><line x1="136.875" y1="0" x2="136.875" y2="174" fill="rgb(0, 0, 0)" stroke="rgb(189, 189, 189)" stroke-width="1px" opacity="0.25"></line><line x1="159.6875" y1="0" x2="159.6875" y2="174" fill="rgb(0, 0, 0)" stroke="rgb(189, 189, 189)" stroke-width="1px" opacity="0.25"></line><line x1="182.5" y1="0" x2="182.5" y2="174" fill="rgb(0, 0, 0)" stroke="rgb(189, 189, 189)" stroke-width="1px" opacity="0.25"></line><line x1="205.3125" y1="0" x2="205.3125" y2="174" fill="rgb(0, 0, 0)" stroke="rgb(189, 189, 189)" stroke-width="1px" opacity="0.25"></line><line x1="228.125" y1="0" x2="228.125" y2="174" fill="rgb(0, 0, 0)" stroke="rgb(189, 189, 189)" stroke-width="1px" opacity="0.25"></line><line x1="250.9375" y1="0" x2="250.9375" y2="174" fill="rgb(0, 0, 0)" stroke="rgb(189, 189, 189)" stroke-width="1px" opacity="0.25"></line><line x1="273.75" y1="0" x2="273.75" y2="174" fill="rgb(0, 0, 0)" stroke="rgb(189, 189, 189)" stroke-width="1px" opacity="0.25"></line></g><g><line x1="0" y1="174" x2="273.75" y2="174" fill="rgb(0, 0, 0)" stroke="rgb(189, 189, 189)" stroke-width="1px" opacity="0.25"></line><line x1="0" y1="159.49999999999986" x2="273.75" y2="159.49999999999986" fill="rgb(0, 0, 0)" stroke="rgb(189, 189, 189)" stroke-width="1px" opacity="0.25"></line><line x1="0" y1="144.99999999999974" x2="273.75" y2="144.99999999999974" fill="rgb(0, 0, 0)" stroke="rgb(189, 189, 189)" stroke-width="1px" opacity="0.25"></line><line x1="0" y1="130.4999999999996" x2="273.75" y2="130.4999999999996" fill="rgb(0, 0, 0)" stroke="rgb(189, 189, 189)" stroke-width="1px" opacity="0.25"></line><line x1="0" y1="115.99999999999947" x2="273.75" y2="115.99999999999947" fill="rgb(0, 0, 0)" stroke="rgb(189, 189, 189)" stroke-width="1px" opacity="0.25"></line><line x1="0" y1="101.49999999999933" x2="273.75" y2="101.49999999999933" fill="rgb(0, 0, 0)" stroke="rgb(189, 189, 189)" stroke-width="1px" opacity="0.25"></line><line x1="0" y1="86.99999999999919" x2="273.75" y2="86.99999999999919" fill="rgb(0, 0, 0)" stroke="rgb(189, 189, 189)" stroke-width="1px" opacity="0.25"></line><line x1="0" y1="72.49999999999906" x2="273.75" y2="72.49999999999906" fill="rgb(0, 0, 0)" stroke="rgb(189, 189, 189)" stroke-width="1px" opacity="0.25"></line><line x1="0" y1="57.99999999999893" x2="273.75" y2="57.99999999999893" fill="rgb(0, 0, 0)" stroke="rgb(189, 189, 189)" stroke-width="1px" opacity="0.25"></line><line x1="0" y1="43.499999999998785" x2="273.75" y2="43.499999999998785" fill="rgb(0, 0, 0)" stroke="rgb(189, 189, 189)" stroke-width="1px" opacity="0.25"></line><line x1="0" y1="28.99999999999866" x2="273.75" y2="28.99999999999866" fill="rgb(0, 0, 0)" stroke="rgb(189, 189, 189)" stroke-width="1px" opacity="0.25"></line><line x1="0" y1="14.499999999998519" x2="273.75" y2="14.499999999998519" fill="rgb(0, 0, 0)" stroke="rgb(189, 189, 189)" stroke-width="1px" opacity="0.25"></line></g></g></g><g><g><line x1="0" y1="14514.50000000012" x2="273.75" y2="14514.50000000012" fill="rgb(0, 0, 0)" stroke="rgb(153, 153, 153)" stroke-width="1.5px"></line></g></g><g><g><line x1="22.8125" y1="0" x2="22.8125" y2="174" fill="rgb(0, 0, 0)" stroke="rgb(153, 153, 153)" stroke-width="1.5px"></line></g></g><g><g><g><g><g><path stroke="rgb(204, 51, 17)" stroke-width="2px" d="M34.21875,196.8262502384381L36.5,163.31911007517184L38.78125,140.36565097871042L41.0625,121.30937811740395L43.34375,104.71179417771748L45.625,91.84577989051712L47.90625,81.65370117349975L50.1875,72.84972653745281L52.46875,65.83740448554032L54.75,58.636939496161595L57.03125,53.739904329518914L59.3125,50.80315725330879L61.59375,46.62439295558514L63.875,44.21439488596861L66.15625,41.89835530615145L68.4375,39.44573417710483L70.71875,37.0072553682713L73,35.54420231880597L75.28125,33.69977857671541L77.5625,31.72333087199313L79.84375,30.82717148197825L82.125,29.90297646068954L84.40625,29.05841203761374L86.6875,27.778327037976624L88.96875,26.913824269581383L91.25,25.71822847483295L93.53125,25.387717283977537L95.8125,24.31926616105539L98.09375,23.581397593983837L100.375,23.718772737725406L102.65625,23.41469745622441L104.9375,23.232252290668697L107.21875,22.05939063945031L109.5,21.258875709890678L111.78125,20.972162640719272L114.0625,20.51008667683169L116.34375,20.232841098892898L118.625,19.969695809111627L120.90625,19.61855845597687L123.1875,19.117827921704183L125.46875,18.720591658071367L127.75,18.772298022341804L130.03125,18.70686960472306L132.3125,18.37756443174065L134.59375,18.276433564133814L136.875,18.31255298668432L139.15625,18.14097446092448L141.4375,18.03802734546825L143.71875,17.97625907619452L146,17.74560222840015L148.28125,17.7040060628381L150.5625,17.67904836350151L152.84375,17.567275800783687L155.125,17.50021226315299L157.40625,17.363521904399363L159.6875,17.28150768914846L161.96875,17.328751396172823L164.25,17.260645384212538L166.53125,17.219781777035735L168.8125,17.195263612729974L171.09375,17.277004950321725L173.375,17.32604975287614L175.65625,17.355476634411048L177.9375,17.37313276333133L180.21875,17.2872742045083L182.5,17.235759069213184L184.78125,17.204849988036756L187.0625,17.186304539330262L189.34375,17.1751772701054L191.625,17.16850090857305L193.90625,17.164495091651712L196.1875,17.162091601500205L198.46875,17.160649507408L200.75,17.159784250952683L203.03125,17.159265097080457L205.3125,17.158953604756814L207.59375,17.158766709363256L209.875,17.15865457212649L212.15625,17.158587289785064L214.4375,17.158546920379244L216.71875,17.158522698736718L219,17.158508165750238L221.28125,17.15849944595835L223.5625,17.158494214083856L225.84375,17.158491074958853L228.125,17.158489191483184L230.40625,17.15848806139845L232.6875,17.158487383347275L234.96875,17.158486976517537L237.25,17.1584867324184L239.53125,17.15848658595989L241.8125,17.15848649808447L244.09375,17.158486445359525L246.375,17.15848641372489L248.65625,17.15848639474347L250.9375,17.158486383353956" style="fill: none;" fill="none"></path></g><g><path stroke="rgb(0, 119, 187)" stroke-width="2px" d="M31.9375,187.99378392100334L34.21875,166.20159346522834L36.5,159.7395202217865L38.78125,151.28707793186607L41.0625,141.6502872231539L43.34375,130.11388822723933L45.625,129.68574188662072L47.90625,125.35575154214867L50.1875,127.41803409781534L52.46875,126.91030833840036L54.75,124.28423883811084L57.03125,122.70991481183111L59.3125,123.50622829586126L61.59375,126.8841533175404L63.875,119.62978842540534L66.15625,118.17795329124175L68.4375,113.24643236876669L70.71875,112.60772538052572L73,106.42450848700969L75.28125,110.2549040469851L77.5625,107.91302149182813L79.84375,108.24784703488102L82.125,110.76878498136199L84.40625,109.38120651169683L86.6875,108.54866033881046L88.96875,108.04913296228747L91.25,111.80939985152655L93.53125,107.68553703465379L95.8125,108.69145173352965L98.09375,103.49472919039941L100.375,103.85692768498616L102.65625,103.49415052031506L104.9375,106.17661977253374L107.21875,116.48581649747982L109.5,112.81142682789825L111.78125,115.24687158983728L114.0625,112.06805989270669L116.34375,109.00092609353281L118.625,105.42070278726945L120.90625,104.43241558763364L123.1875,105.5793862958334L125.46875,108.00751174830178L127.75,105.98450096441242L130.03125,108.25058054928239L132.3125,112.51036381733635L134.59375,113.32629075058803L136.875,109.75586461069118L139.15625,110.51339873696884L141.4375,114.44815097467621L143.71875,113.32877055535084L146,112.65714230376078L148.28125,108.19418305299914L150.5625,103.77646447504577L152.84375,102.8657763557714L155.125,101.73961294633641L157.40625,101.64366543854773L159.6875,102.74628942350013L161.96875,105.14780684196666L164.25,107.7485640757306L166.53125,107.56907538849259L168.8125,103.9814961211545L171.09375,102.98879534343793L173.375,102.97327112162033L175.65625,102.96395658853105L177.9375,101.79852108599316L180.21875,99.93906729484507L182.5,98.82339502015498L184.78125,101.63387771033422L187.0625,104.48035981406616L189.34375,104.44830604880798L191.625,99.78899524503731L193.90625,96.4133125179629L196.1875,99.60807767114731L198.46875,102.10468730093095L200.75,100.70286326862139L203.03125,101.0216156319171L205.3125,98.31307723971575L207.59375,100.74793650419839L209.875,102.20885206288861L212.15625,103.6651519359754L214.4375,104.53893185982716L216.71875,104.48344927626523L219,103.28996723650373L221.28125,101.41403122996279L223.5625,100.8685658708506L225.84375,101.12103719325623L228.125,103.01246301419629L230.40625,102.40737547926268L232.6875,102.04432295830186L234.96875,104.14653071803409L237.25,104.24800859119003L239.53125,104.88864585295593L241.8125,105.2730282100161L244.09375,104.34381084156722L246.375,103.20618417568494L248.65625,102.52360817615521L250.9375,103.2742550660624" style="fill: none;" fill="none"></path></g></g></g></g><g opacity="0.2"><g><g><g><path stroke="rgb(204, 51, 17)" stroke-width="2px" d="M29.65625,187.77523231506345L31.9375,156.35824990272494L34.21875,131.46648597717237L36.5,116.96667265891966L38.78125,107.54183721542289L41.0625,93.52514934539714L43.34375,80.23358178138639L45.625,72.74124813079736L47.90625,66.45802450179949L50.1875,59.691675424574704L52.46875,55.341817855833824L54.75,47.850348472594014L57.03125,46.400107860563985L59.3125,46.400107860563985L61.59375,40.358014822004954L63.875,40.60000967979305L66.15625,38.42464876174799L68.4375,35.76702666282524L70.71875,33.34967088699208L73,33.34967088699208L75.28125,30.933179378508175L77.5625,28.758682727812364L79.84375,29.48293876647814L82.125,28.51668787002427L84.40625,27.791567564009263L86.6875,25.85820150375229L88.96875,25.617070913313427L91.25,23.9248354434953L93.53125,24.89195060729842L95.8125,22.716589689253357L98.09375,22.474594831465264L100.375,23.9248354434953L102.65625,22.95858454704145L104.9375,22.95858454704145L107.21875,20.30009818076945L109.5,20.05810332298136L111.78125,20.542093038557542L114.0625,19.816972732542517L116.34375,19.816972732542517L118.625,19.574977874754424L120.90625,19.09185242652749L123.1875,18.36673212051248L125.46875,18.124737262724388L127.75,18.849857568739395L130.03125,18.608726978300552L132.3125,17.883606672285545L134.59375,18.124737262724388L136.875,18.36673212051248L139.15625,17.883606672285545L141.4375,17.883606672285545L143.71875,17.883606672285545L146,17.39961695670936L148.28125,17.641611814497452L150.5625,17.641611814497452L152.84375,17.39961695670936L155.125,17.39961695670936L157.40625,17.158486366270516L159.6875,17.158486366270516L161.96875,17.39961695670936L164.25,17.158486366270516L166.53125,17.158486366270516L168.8125,17.158486366270516L171.09375,17.39961695670936L173.375,17.39961695670936L175.65625,17.39961695670936L177.9375,17.39961695670936L180.21875,17.158486366270516L182.5,17.158486366270516L184.78125,17.158486366270516L187.0625,17.158486366270516L189.34375,17.158486366270516L191.625,17.158486366270516L193.90625,17.158486366270516L196.1875,17.158486366270516L198.46875,17.158486366270516L200.75,17.158486366270516L203.03125,17.158486366270516L205.3125,17.158486366270516L207.59375,17.158486366270516L209.875,17.158486366270516L212.15625,17.158486366270516L214.4375,17.158486366270516L216.71875,17.158486366270516L219,17.158486366270516L221.28125,17.158486366270516L223.5625,17.158486366270516L225.84375,17.158486366270516L228.125,17.158486366270516L230.40625,17.158486366270516L232.6875,17.158486366270516L234.96875,17.158486366270516L237.25,17.158486366270516L239.53125,17.158486366270516L241.8125,17.158486366270516L244.09375,17.158486366270516L246.375,17.158486366270516L248.65625,17.158486366270516L250.9375,17.158486366270516" style="fill: none;" fill="none"></path></g><g><path stroke="rgb(0, 119, 187)" stroke-width="2px" d="M29.65625,187.05011200904843L31.9375,152.25038719177215L34.21875,137.7497096061702L36.5,150.8001465797421L38.78125,139.19995021820026L41.0625,127.5997538566584L43.34375,113.09994053840573L45.625,129.04999446868845L47.90625,118.90003871917664L50.1875,130.50023508071848L52.46875,126.15037751197761L54.75,120.35027933120669L57.03125,120.35027933120669L59.3125,124.70013689994755L61.59375,131.9496114253993L63.875,108.75008296966483L66.15625,116.0004217624658L68.4375,105.84960174560476L70.71875,111.64969992637567L73,97.14988660812301L75.28125,116.0004217624658L77.5625,104.40022540092396L79.84375,108.75008296966483L82.125,114.55018115043576L84.40625,107.2998423576348L86.6875,107.2998423576348L88.96875,107.2998423576348L91.25,117.4497981071466L93.53125,101.49974417686387L95.8125,110.20032358169489L98.09375,95.69964599609295L100.375,104.40022540092396L102.65625,102.94998478889391L104.9375,110.20032358169489L107.21875,131.9496114253993L109.5,107.2998423576348L111.78125,118.90003871917664L114.0625,107.2998423576348L116.34375,104.40022540092396L118.625,100.05036783218308L120.90625,102.94998478889391L123.1875,107.2998423576348L125.46875,111.64969992637567L127.75,102.94998478889391L130.03125,111.64969992637567L132.3125,118.90003871917664L134.59375,114.55018115043576L136.875,104.40022540092396L139.15625,111.64969992637567L141.4375,120.35027933120669L143.71875,111.64969992637567L146,111.64969992637567L148.28125,101.49974417686387L150.5625,97.14988660812301L152.84375,101.49974417686387L155.125,100.05036783218308L157.40625,101.49974417686387L159.6875,104.40022540092396L161.96875,108.75008296966483L164.25,111.64969992637567L166.53125,107.2998423576348L168.8125,98.60012722015303L171.09375,101.49974417686387L173.375,102.94998478889391L175.65625,102.94998478889391L177.9375,100.05036783218308L180.21875,97.14988660812301L182.5,97.14988660812301L184.78125,105.84960174560476L187.0625,108.75008296966483L189.34375,104.40022540092396L191.625,92.80002903938211L193.90625,91.34978842735208L196.1875,104.40022540092396L198.46875,105.84960174560476L200.75,98.60012722015303L203.03125,101.49974417686387L205.3125,94.25026965141217L207.59375,104.40022540092396L209.875,104.40022540092396L212.15625,105.84960174560476L214.4375,105.84960174560476L216.71875,104.40022540092396L219,101.49974417686387L221.28125,98.60012722015303L223.5625,100.05036783218308L225.84375,101.49974417686387L228.125,105.84960174560476L230.40625,101.49974417686387L232.6875,101.49974417686387L234.96875,107.2998423576348L237.25,104.40022540092396L239.53125,105.84960174560476L241.8125,105.84960174560476L244.09375,102.94998478889391L246.375,101.49974417686387L248.65625,101.49974417686387L250.9375,104.40022540092396" style="fill: none;" fill="none"></path></g></g></g></g></g></g><g transform="translate(56, 174)" clip-path="url(#clip_1)"><clipPath id="clip_1"><rect width="273" height="26"></rect></clipPath><g><g><line x1="0" y1="0" x2="0" y2="5" style="visibility: inherit;" fill="rgb(0, 0, 0)" stroke="rgb(204, 204, 204)" stroke-width="1px"></line><line x1="22.8125" y1="0" x2="22.8125" y2="5" style="visibility: inherit;" fill="rgb(0, 0, 0)" stroke="rgb(204, 204, 204)" stroke-width="1px"></line><line x1="45.625" y1="0" x2="45.625" y2="5" style="visibility: inherit;" fill="rgb(0, 0, 0)" stroke="rgb(204, 204, 204)" stroke-width="1px"></line><line x1="68.4375" y1="0" x2="68.4375" y2="5" style="visibility: inherit;" fill="rgb(0, 0, 0)" stroke="rgb(204, 204, 204)" stroke-width="1px"></line><line x1="91.25" y1="0" x2="91.25" y2="5" style="visibility: inherit;" fill="rgb(0, 0, 0)" stroke="rgb(204, 204, 204)" stroke-width="1px"></line><line x1="114.0625" y1="0" x2="114.0625" y2="5" style="visibility: inherit;" fill="rgb(0, 0, 0)" stroke="rgb(204, 204, 204)" stroke-width="1px"></line><line x1="136.875" y1="0" x2="136.875" y2="5" style="visibility: inherit;" fill="rgb(0, 0, 0)" stroke="rgb(204, 204, 204)" stroke-width="1px"></line><line x1="159.6875" y1="0" x2="159.6875" y2="5" style="visibility: inherit;" fill="rgb(0, 0, 0)" stroke="rgb(204, 204, 204)" stroke-width="1px"></line><line x1="182.5" y1="0" x2="182.5" y2="5" style="visibility: inherit;" fill="rgb(0, 0, 0)" stroke="rgb(204, 204, 204)" stroke-width="1px"></line><line x1="205.3125" y1="0" x2="205.3125" y2="5" style="visibility: inherit;" fill="rgb(0, 0, 0)" stroke="rgb(204, 204, 204)" stroke-width="1px"></line><line x1="228.125" y1="0" x2="228.125" y2="5" style="visibility: inherit;" fill="rgb(0, 0, 0)" stroke="rgb(204, 204, 204)" stroke-width="1px"></line><line x1="250.9375" y1="0" x2="250.9375" y2="5" style="visibility: inherit;" fill="rgb(0, 0, 0)" stroke="rgb(204, 204, 204)" stroke-width="1px"></line><line x1="273.75" y1="0" x2="273.75" y2="5" style="visibility: inherit;" fill="rgb(0, 0, 0)" stroke="rgb(204, 204, 204)" stroke-width="1px"></line></g><g transform="translate(0, 8)"><text x="0" y="0" dx="0em" dy="0.95em" style="text-anchor: middle; visibility: hidden; font-family: Roboto, sans-serif; font-size: 12px; font-weight: 200;" fill="rgb(255, 255, 255)" stroke="none" stroke-width="1px">-10</text><text x="22.8125" y="0" dx="0em" dy="0.95em" style="text-anchor: middle; visibility: inherit; font-family: Roboto, sans-serif; font-size: 12px; font-weight: 200;" fill="rgb(255, 255, 255)" stroke="none" stroke-width="1px">0</text><text x="45.625" y="0" dx="0em" dy="0.95em" style="text-anchor: middle; visibility: inherit; font-family: Roboto, sans-serif; font-size: 12px; font-weight: 200;" fill="rgb(255, 255, 255)" stroke="none" stroke-width="1px">10</text><text x="68.4375" y="0" dx="0em" dy="0.95em" style="text-anchor: middle; visibility: inherit; font-family: Roboto, sans-serif; font-size: 12px; font-weight: 200;" fill="rgb(255, 255, 255)" stroke="none" stroke-width="1px">20</text><text x="91.25" y="0" dx="0em" dy="0.95em" style="text-anchor: middle; visibility: inherit; font-family: Roboto, sans-serif; font-size: 12px; font-weight: 200;" fill="rgb(255, 255, 255)" stroke="none" stroke-width="1px">30</text><text x="114.0625" y="0" dx="0em" dy="0.95em" style="text-anchor: middle; visibility: inherit; font-family: Roboto, sans-serif; font-size: 12px; font-weight: 200;" fill="rgb(255, 255, 255)" stroke="none" stroke-width="1px">40</text><text x="136.875" y="0" dx="0em" dy="0.95em" style="text-anchor: middle; visibility: inherit; font-family: Roboto, sans-serif; font-size: 12px; font-weight: 200;" fill="rgb(255, 255, 255)" stroke="none" stroke-width="1px">50</text><text x="159.6875" y="0" dx="0em" dy="0.95em" style="text-anchor: middle; visibility: inherit; font-family: Roboto, sans-serif; font-size: 12px; font-weight: 200;" fill="rgb(255, 255, 255)" stroke="none" stroke-width="1px">60</text><text x="182.5" y="0" dx="0em" dy="0.95em" style="text-anchor: middle; visibility: inherit; font-family: Roboto, sans-serif; font-size: 12px; font-weight: 200;" fill="rgb(255, 255, 255)" stroke="none" stroke-width="1px">70</text><text x="205.3125" y="0" dx="0em" dy="0.95em" style="text-anchor: middle; visibility: inherit; font-family: Roboto, sans-serif; font-size: 12px; font-weight: 200;" fill="rgb(255, 255, 255)" stroke="none" stroke-width="1px">80</text><text x="228.125" y="0" dx="0em" dy="0.95em" style="text-anchor: middle; visibility: inherit; font-family: Roboto, sans-serif; font-size: 12px; font-weight: 200;" fill="rgb(255, 255, 255)" stroke="none" stroke-width="1px">90</text><text x="250.9375" y="0" dx="0em" dy="0.95em" style="text-anchor: middle; visibility: inherit; font-family: Roboto, sans-serif; font-size: 12px; font-weight: 200;" fill="rgb(255, 255, 255)" stroke="none" stroke-width="1px">100</text><text x="273.75" y="0" dx="0em" dy="0.95em" style="text-anchor: middle; visibility: hidden; font-family: Roboto, sans-serif; font-size: 12px; font-weight: 200;" fill="rgb(255, 255, 255)" stroke="none" stroke-width="1px">110</text></g><line x1="0" y1="0" x2="273.75" y2="0" fill="rgb(0, 0, 0)" stroke="rgb(204, 204, 204)" stroke-width="1px"></line></g></g></g></g></svg>