<svg viewBox="0 0 330 200" xmlns="http://www.w3.org/2000/svg"><g><g><g><g><g><line x1="56.25" y1="174" x2="51.25" y2="174" style="visibility: inherit;" fill="rgb(0, 0, 0)" stroke="rgb(204, 204, 204)" stroke-width="1px"></line><line x1="56.25" y1="159.49999999999986" x2="51.25" y2="159.49999999999986" style="visibility: inherit;" fill="rgb(0, 0, 0)" stroke="rgb(204, 204, 204)" stroke-width="1px"></line><line x1="56.25" y1="144.99999999999974" x2="51.25" y2="144.99999999999974" style="visibility: inherit;" fill="rgb(0, 0, 0)" stroke="rgb(204, 204, 204)" stroke-width="1px"></line><line x1="56.25" y1="130.4999999999996" x2="51.25" y2="130.4999999999996" style="visibility: inherit;" fill="rgb(0, 0, 0)" stroke="rgb(204, 204, 204)" stroke-width="1px"></line><line x1="56.25" y1="115.99999999999947" x2="51.25" y2="115.99999999999947" style="visibility: inherit;" fill="rgb(0, 0, 0)" stroke="rgb(204, 204, 204)" stroke-width="1px"></line><line x1="56.25" y1="101.49999999999933" x2="51.25" y2="101.49999999999933" style="visibility: inherit;" fill="rgb(0, 0, 0)" stroke="rgb(204, 204, 204)" stroke-width="1px"></line><line x1="56.25" y1="86.99999999999919" x2="51.25" y2="86.99999999999919" style="visibility: inherit;" fill="rgb(0, 0, 0)" stroke="rgb(204, 204, 204)" stroke-width="1px"></line><line x1="56.25" y1="72.49999999999906" x2="51.25" y2="72.49999999999906" style="visibility: inherit;" fill="rgb(0, 0, 0)" stroke="rgb(204, 204, 204)" stroke-width="1px"></line><line x1="56.25" y1="57.99999999999893" x2="51.25" y2="57.99999999999893" style="visibility: inherit;" fill="rgb(0, 0, 0)" stroke="rgb(204, 204, 204)" stroke-width="1px"></line><line x1="56.25" y1="43.499999999998785" x2="51.25" y2="43.499999999998785" style="visibility: inherit;" fill="rgb(0, 0, 0)" stroke="rgb(204, 204, 204)" stroke-width="1px"></line><line x1="56.25" y1="28.99999999999866" x2="51.25" y2="28.99999999999866" style="visibility: inherit;" fill="rgb(0, 0, 0)" stroke="rgb(204, 204, 204)" stroke-width="1px"></line><line x1="56.25" y1="14.499999999998519" x2="51.25" y2="14.499999999998519" style="visibility: inherit;" fill="rgb(0, 0, 0)" stroke="rgb(204, 204, 204)" stroke-width="1px"></line></g><g transform="translate(46.25, 0)"><text x="0" y="174" dx="0em" dy="0.3em" style="text-anchor: end; visibility: hidden; font-family: Roboto, sans-serif; font-size: 12px; font-weight: 200;" fill="rgb(255, 255, 255)" stroke="none" stroke-width="1px">0.989</text><text x="0" y="159.49999999999986" dx="0em" dy="0.3em" style="text-anchor: end; visibility: inherit; font-family: Roboto, sans-serif; font-size: 12px; font-weight: 200;" fill="rgb(255, 255, 255)" stroke="none" stroke-width="1px">0.99</text><text x="0" y="144.99999999999974" dx="0em" dy="0.3em" style="text-anchor: end; visibility: hidden; font-family: Roboto, sans-serif; font-size: 12px; font-weight: 200;" fill="rgb(255, 255, 255)" stroke="none" stroke-width="1px">0.991</text><text x="0" y="130.4999999999996" dx="0em" dy="0.3em" style="text-anchor: end; visibility: inherit; font-family: Roboto, sans-serif; font-size: 12px; font-weight: 200;" fill="rgb(255, 255, 255)" stroke="none" stroke-width="1px">0.992</text><text x="0" y="115.99999999999947" dx="0em" dy="0.3em" style="text-anchor: end; visibility: hidden; font-family: Roboto, sans-serif; font-size: 12px; font-weight: 200;" fill="rgb(255, 255, 255)" stroke="none" stroke-width="1px">0.993</text><text x="0" y="101.49999999999933" dx="0em" dy="0.3em" style="text-anchor: end; visibility: inherit; font-family: Roboto, sans-serif; font-size: 12px; font-weight: 200;" fill="rgb(255, 255, 255)" stroke="none" stroke-width="1px">0.994</text><text x="0" y="86.99999999999919" dx="0em" dy="0.3em" style="text-anchor: end; visibility: hidden; font-family: Roboto, sans-serif; font-size: 12px; font-weight: 200;" fill="rgb(255, 255, 255)" stroke="none" stroke-width="1px">0.995</text><text x="0" y="72.49999999999906" dx="0em" dy="0.3em" style="text-anchor: end; visibility: inherit; font-family: Roboto, sans-serif; font-size: 12px; font-weight: 200;" fill="rgb(255, 255, 255)" stroke="none" stroke-width="1px">0.996</text><text x="0" y="57.99999999999893" dx="0em" dy="0.3em" style="text-anchor: end; visibility: hidden; font-family: Roboto, sans-serif; font-size: 12px; font-weight: 200;" fill="rgb(255, 255, 255)" stroke="none" stroke-width="1px">0.997</text><text x="0" y="43.499999999998785" dx="0em" dy="0.3em" style="text-anchor: end; visibility: inherit; font-family: Roboto, sans-serif; font-size: 12px; font-weight: 200;" fill="rgb(255, 255, 255)" stroke="none" stroke-width="1px">0.998</text><text x="0" y="28.99999999999866" dx="0em" dy="0.3em" style="text-anchor: end; visibility: hidden; font-family: Roboto, sans-serif; font-size: 12px; font-weight: 200;" fill="rgb(255, 255, 255)" stroke="none" stroke-width="1px">0.999</text><text x="0" y="14.499999999998519" dx="0em" dy="0.3em" style="text-anchor: end; visibility: inherit; font-family: Roboto, sans-serif; font-size: 12px; font-weight: 200;" fill="rgb(255, 255, 255)" stroke="none" stroke-width="1px">1</text></g><line x1="56.25" y1="0" x2="56.25" y2="174" fill="rgb(0, 0, 0)" stroke="rgb(204, 204, 204)" stroke-width="1px"></line></g></g><g transform="translate(56, 0)" clip-path="url(#clip_0)"><clipPath id="clip_0"><rect width="273" height="174"></rect></clipPath><g><g><g><line x1="0" y1="0" x2="0" y2="174" fill="rgb(0, 0, 0)" stroke="rgb(189, 189, 189)" stroke-width="1px" opacity="0.25"></line><line x1="22.8125" y1="0" x2="22.8125" y2="174" fill="rgb(0, 0, 0)" stroke="rgb(189, 189, 189)" stroke-width="1px" opacity="0.25"></line><line x1="45.625" y1="0" x2="45.625" y2="174" fill="rgb(0, 0, 0)" stroke="rgb(189, 189, 189)" stroke-width="1px" opacity="0.25"></line><line x1="68.4375" y1="0" x2="68.4375" y2="174" fill="rgb(0, 0, 0)" stroke="rgb(189, 189, 189)" stroke-width="1px" opacity="0.25"></line><line x1="91.25" y1="0" x2="91.25" y2="174" fill="rgb(0, 0, 0)" stroke="rgb(189, 189, 189)" stroke-width="1px" opacity="0.25"></line><line x1="114.0625" y1="0" x2="114.0625" y2="174" fill="rgb(0, 0, 0)" stroke="rgb(189, 189, 189)" stroke-width="1px" opacity="0.25"></line><line x1="136.875" y1="0" x2="136.875" y2="174" fill="rgb(0, 0, 0)" stroke="rgb(189, 189, 189)" stroke-width="1px" opacity="0.25"></line><line x1="159.6875" y1="0" x2="159.6875" y2="174" fill="rgb(0, 0, 0)" stroke="rgb(189, 189, 189)" stroke-width="1px" opacity="0.25"></line><line x1="182.5" y1="0" x2="182.5" y2="174" fill="rgb(0, 0, 0)" stroke="rgb(189, 189, 189)" stroke-width="1px" opacity="0.25"></line><line x1="205.3125" y1="0" x2="205.3125" y2="174" fill="rgb(0, 0, 0)" stroke="rgb(189, 189, 189)" stroke-width="1px" opacity="0.25"></line><line x1="228.125" y1="0" x2="228.125" y2="174" fill="rgb(0, 0, 0)" stroke="rgb(189, 189, 189)" stroke-width="1px" opacity="0.25"></line><line x1="250.9375" y1="0" x2="250.9375" y2="174" fill="rgb(0, 0, 0)" stroke="rgb(189, 189, 189)" stroke-width="1px" opacity="0.25"></line><line x1="273.75" y1="0" x2="273.75" y2="174" fill="rgb(0, 0, 0)" stroke="rgb(189, 189, 189)" stroke-width="1px" opacity="0.25"></line></g><g><line x1="0" y1="174" x2="273.75" y2="174" fill="rgb(0, 0, 0)" stroke="rgb(189, 189, 189)" stroke-width="1px" opacity="0.25"></line><line x1="0" y1="159.49999999999986" x2="273.75" y2="159.49999999999986" fill="rgb(0, 0, 0)" stroke="rgb(189, 189, 189)" stroke-width="1px" opacity="0.25"></line><line x1="0" y1="144.99999999999974" x2="273.75" y2="144.99999999999974" fill="rgb(0, 0, 0)" stroke="rgb(189, 189, 189)" stroke-width="1px" opacity="0.25"></line><line x1="0" y1="130.4999999999996" x2="273.75" y2="130.4999999999996" fill="rgb(0, 0, 0)" stroke="rgb(189, 189, 189)" stroke-width="1px" opacity="0.25"></line><line x1="0" y1="115.99999999999947" x2="273.75" y2="115.99999999999947" fill="rgb(0, 0, 0)" stroke="rgb(189, 189, 189)" stroke-width="1px" opacity="0.25"></line><line x1="0" y1="101.49999999999933" x2="273.75" y2="101.49999999999933" fill="rgb(0, 0, 0)" stroke="rgb(189, 189, 189)" stroke-width="1px" opacity="0.25"></line><line x1="0" y1="86.99999999999919" x2="273.75" y2="86.99999999999919" fill="rgb(0, 0, 0)" stroke="rgb(189, 189, 189)" stroke-width="1px" opacity="0.25"></line><line x1="0" y1="72.49999999999906" x2="273.75" y2="72.49999999999906" fill="rgb(0, 0, 0)" stroke="rgb(189, 189, 189)" stroke-width="1px" opacity="0.25"></line><line x1="0" y1="57.99999999999893" x2="273.75" y2="57.99999999999893" fill="rgb(0, 0, 0)" stroke="rgb(189, 189, 189)" stroke-width="1px" opacity="0.25"></line><line x1="0" y1="43.499999999998785" x2="273.75" y2="43.499999999998785" fill="rgb(0, 0, 0)" stroke="rgb(189, 189, 189)" stroke-width="1px" opacity="0.25"></line><line x1="0" y1="28.99999999999866" x2="273.75" y2="28.99999999999866" fill="rgb(0, 0, 0)" stroke="rgb(189, 189, 189)" stroke-width="1px" opacity="0.25"></line><line x1="0" y1="14.499999999998519" x2="273.75" y2="14.499999999998519" fill="rgb(0, 0, 0)" stroke="rgb(189, 189, 189)" stroke-width="1px" opacity="0.25"></line></g></g></g><g><g><line x1="0" y1="14514.50000000012" x2="273.75" y2="14514.50000000012" fill="rgb(0, 0, 0)" stroke="rgb(153, 153, 153)" stroke-width="1.5px"></line></g></g><g><g><line x1="22.8125" y1="0" x2="22.8125" y2="174" fill="rgb(0, 0, 0)" stroke="rgb(153, 153, 153)" stroke-width="1.5px"></line></g></g><g><g><g><g><g><path stroke="rgb(204, 51, 17)" stroke-width="2px" d="M34.21875,186.4872808390235L36.5,154.98607602603448L38.78125,130.88693029040147L41.0625,111.6556766353801L43.34375,96.61522633565119L45.625,86.03506425607372L47.90625,78.07893150278831L50.1875,70.32064060233077L52.46875,63.256490687171514L54.75,57.08920085621702L57.03125,52.61821128650373L59.3125,48.48631347102097L61.59375,44.94469211776268L63.875,41.949870262798015L66.15625,39.766302180427324L68.4375,37.393158783400196L70.71875,34.71265598321073L73,32.52428805666996L75.28125,30.82443661465714L77.5625,29.611283246013276L79.84375,28.496893446387904L82.125,27.151366251703283L84.40625,26.344051403837987L86.6875,25.666412725972418L88.96875,24.87332928459089L91.25,23.624132811707206L93.53125,23.06786530964863L95.8125,22.637306904817482L98.09375,21.992471506810286L100.375,22.088868603260167L102.65625,21.856658731967972L104.9375,21.234034505067626L107.21875,20.667209792549777L109.5,20.423567203816724L111.78125,20.277381651159L114.0625,19.89962219697516L116.34375,20.25306277006634L118.625,19.69178068926448L120.90625,19.54826162030143L123.1875,19.172447763437013L125.46875,19.14020962867223L127.75,18.63756844608665L130.03125,18.52923391585409L132.3125,18.07738713218525L134.59375,17.90307700510756L136.875,17.70169298574634L139.15625,17.677660517247425L141.4375,17.46999085685506L143.71875,17.441841296796138L146,17.328499324587508L148.28125,17.163696198145153L150.5625,17.258064501570832L152.84375,17.21823324745007L155.125,17.09753655186333L157.40625,17.025118534510966L159.6875,16.88521548792401L161.96875,16.801273659970565L164.25,16.750908563200422L166.53125,16.72068950513737L168.8125,16.702558070300505L171.09375,16.69167920939676L173.375,16.685151892853888L175.65625,16.681235502932022L177.9375,16.67888566897633L180.21875,16.67747576860226L182.5,16.676629828379117L184.78125,16.579324321129988L187.0625,16.52094101677922L189.34375,16.485911034170385L191.625,16.46489304460411L193.90625,16.45228225086595L196.1875,16.444715774623056L198.46875,16.440175888875387L200.75,16.437451957427424L203.03125,16.435817598559307L205.3125,16.434836983237137L207.59375,16.434248614045767L209.875,16.43389559253031L212.15625,16.4336837796191L214.4375,16.433556691873648L216.71875,16.43348043922768L219,16.43343468763816L221.28125,16.43340723668509L223.5625,16.433390766111973L225.84375,16.43338088377003L228.125,16.4333749543655L230.40625,16.43337139672022L232.6875,16.433369262133045L234.96875,16.43336798138331L237.25,16.433367212930904L239.53125,16.433366751861385L241.8125,16.433366475219678L244.09375,16.433366309233996L246.375,16.433366209643886L248.65625,16.43336614988725L250.9375,16.433366114033262" style="fill: none;" fill="none"></path></g><g><path stroke="rgb(0, 119, 187)" stroke-width="2px" d="M29.65625,185.0081657487518L31.9375,170.62011326148252L34.21875,155.73471249812738L36.5,151.2307080258033L38.78125,137.329190538407L41.0625,129.2415929833532L43.34375,125.64886106238521L45.625,126.4339654058343L47.90625,123.99163025596225L50.1875,119.0440884024122L52.46875,115.50195620364298L54.75,116.28170400789436L57.03125,115.00839993164182L59.3125,111.92410678904469L61.59375,111.23447677478008L63.875,110.82077348185912L66.15625,111.1523642654712L68.4375,106.71140332358686L70.71875,106.9467841007445L73,109.4080790717921L75.28125,107.98467690028009L77.5625,111.19099003788995L79.84375,107.894578566498L82.125,106.49683491597345L84.40625,104.49799657453966L86.6875,106.77892877810746L88.96875,108.72723795528168L91.25,104.09629639263783L93.53125,104.79761862685241L95.8125,109.85849082174823L98.09375,109.41512765974312L100.375,107.40916669874218L102.65625,102.7253583371633L104.9375,103.97505571343038L107.21875,105.88506662774188L109.5,103.55118710085267L111.78125,97.51078083531127L114.0625,98.52661563541673L116.34375,102.6160025723952L118.625,101.58974867581645L120.90625,102.71393936618303L123.1875,98.74837523477592L125.46875,98.10897978405035L127.75,100.62547803095724L130.03125,103.29522376172741L132.3125,100.25699265540506L134.59375,96.11436042625746L136.875,99.4287064161482L139.15625,99.09727473775143L141.4375,97.73822324108481L143.71875,95.76294556039892L146,98.05766500698908L148.28125,98.85474613706829L150.5625,98.17280232548984L152.84375,93.70365373873774L155.125,95.66224313130547L157.40625,97.99724354952947L159.6875,96.49845399028287L161.96875,96.17893079260563L164.25,97.7275056084379L166.53125,97.4964580083129L168.8125,97.93792569304671L171.09375,95.88276703158118L173.375,95.80951861738492L175.65625,92.2856835138767L177.9375,93.07151796889056L180.21875,92.96292239708848L182.5,95.21780432631462L184.78125,99.470523294031L187.0625,100.8623078919765L189.34375,100.53753186805848L191.625,100.34266625371025L193.90625,99.64565064028768L196.1875,96.32730575511248L198.46875,94.33629882400864L200.75,97.20167696515074L203.03125,97.18096082233899L205.3125,97.74862738146334L207.59375,100.40926658924693L209.875,98.52541835198663L212.15625,100.29524492675019L214.4375,101.35714087160864L216.71875,100.25433541102606L219,97.27261286236914L221.28125,96.0636755779857L223.5625,95.33831320735659L225.84375,96.06294256766348L228.125,94.75777715635094L230.40625,92.81483112687972L232.6875,92.22881404706833L234.96875,94.77733931630318L237.25,95.72635823303047L239.53125,93.97573031075845L241.8125,92.92535355739622L244.09375,91.71537696750464L246.375,91.56914155144328L248.65625,91.48140030180583L250.9375,91.42875555202433" style="fill: none;" fill="none"></path></g></g></g></g><g opacity="0.2"><g><g><g><path stroke="rgb(204, 51, 17)" stroke-width="2px" d="M29.65625,182.9413850307464L31.9375,147.899665355682L34.21875,122.52477598190251L36.5,111.40856933593683L38.78125,96.42476630210798L41.0625,83.61632418632418L43.34375,74.43348360061549L45.625,70.32475662231344L47.90625,66.21689391136064L50.1875,58.72542452812083L52.46875,52.68333148956183L54.75,47.850348472594014L57.03125,45.91698241233705L59.3125,42.29138088226195L61.59375,39.63375878333918L63.875,37.45839786529414L66.15625,36.491282701491016L68.4375,33.833660602568266L70.71875,30.692048788069332L73,29.241808176039296L75.28125,28.274693012236195L77.5625,27.791567564009263L79.84375,26.82531666755539L82.125,25.133081197737262L84.40625,25.133081197737262L86.6875,24.649955749510326L88.96875,23.683704853056458L91.25,21.750338792799486L93.53125,22.23346424102642L95.8125,21.99146938323833L98.09375,21.02521848678446L100.375,22.23346424102642L102.65625,21.508343935011393L104.9375,20.30009818076945L107.21875,19.816972732542517L109.5,20.05810332298136L111.78125,20.05810332298136L114.0625,19.33298301696633L116.34375,20.783223628996385L118.625,18.849857568739395L120.90625,19.33298301696633L123.1875,18.608726978300552L125.46875,19.09185242652749L127.75,17.883606672285545L130.03125,18.36673212051248L132.3125,17.39961695670936L134.59375,17.641611814497452L136.875,17.39961695670936L139.15625,17.641611814497452L141.4375,17.158486366270516L143.71875,17.39961695670936L146,17.158486366270516L148.28125,16.916491508482427L150.5625,17.39961695670936L152.84375,17.158486366270516L155.125,16.916491508482427L157.40625,16.916491508482427L159.6875,16.675360918043584L161.96875,16.675360918043584L164.25,16.675360918043584L166.53125,16.675360918043584L168.8125,16.675360918043584L171.09375,16.675360918043584L173.375,16.675360918043584L175.65625,16.675360918043584L177.9375,16.675360918043584L180.21875,16.675360918043584L182.5,16.675360918043584L184.78125,16.43336606025549L187.0625,16.43336606025549L189.34375,16.43336606025549L191.625,16.43336606025549L193.90625,16.43336606025549L196.1875,16.43336606025549L198.46875,16.43336606025549L200.75,16.43336606025549L203.03125,16.43336606025549L205.3125,16.43336606025549L207.59375,16.43336606025549L209.875,16.43336606025549L212.15625,16.43336606025549L214.4375,16.43336606025549L216.71875,16.43336606025549L219,16.43336606025549L221.28125,16.43336606025549L223.5625,16.43336606025549L225.84375,16.43336606025549L228.125,16.43336606025549L230.40625,16.43336606025549L232.6875,16.43336606025549L234.96875,16.43336606025549L237.25,16.43336606025549L239.53125,16.43336606025549L241.8125,16.43336606025549L244.09375,16.43336606025549L246.375,16.43336606025549L248.65625,16.43336606025549L250.9375,16.43336606025549" style="fill: none;" fill="none"></path></g><g><path stroke="rgb(0, 119, 187)" stroke-width="2px" d="M25.09375,279.8499543666847L27.375,160.9501023292539L29.65625,165.2999598979948L31.9375,153.69976353645293L34.21875,136.3003332614894L36.5,145.00004839897116L38.78125,117.4497981071466L41.0625,117.4497981071466L43.34375,120.35027933120669L45.625,127.5997538566584L47.90625,120.35027933120669L50.1875,111.64969992637567L52.46875,110.20032358169489L54.75,117.4497981071466L57.03125,113.09994053840573L59.3125,107.2998423576348L61.59375,110.20032358169489L63.875,110.20032358169489L66.15625,111.64969992637567L68.4375,100.05036783218308L70.71875,107.2998423576348L73,113.09994053840573L75.28125,105.84960174560476L77.5625,116.0004217624658L79.84375,102.94998478889391L82.125,104.40022540092396L84.40625,101.49974417686387L86.6875,110.20032358169489L88.96875,111.64969992637567L91.25,97.14988660812301L93.53125,105.84960174560476L95.8125,117.4497981071466L98.09375,108.75008296966483L100.375,104.40022540092396L102.65625,95.69964599609295L104.9375,105.84960174560476L107.21875,108.75008296966483L109.5,100.05036783218308L111.78125,88.45017147064124L114.0625,100.05036783218308L116.34375,108.75008296966483L118.625,100.05036783218308L120.90625,104.40022540092396L123.1875,92.80002903938211L125.46875,97.14988660812301L127.75,104.40022540092396L130.03125,107.2998423576348L132.3125,95.69964599609295L134.59375,89.90041208267127L136.875,104.40022540092396L139.15625,98.60012722015303L141.4375,95.69964599609295L143.71875,92.80002903938211L146,101.49974417686387L148.28125,100.05036783218308L150.5625,97.14988660812301L152.84375,86.9999308586112L155.125,98.60012722015303L157.40625,101.49974417686387L159.6875,94.25026965141217L161.96875,95.69964599609295L164.25,100.05036783218308L166.53125,97.14988660812301L168.8125,98.60012722015303L171.09375,92.80002903938211L173.375,95.69964599609295L175.65625,86.9999308586112L177.9375,94.25026965141217L180.21875,92.80002903938211L182.5,98.60012722015303L184.78125,105.84960174560476L187.0625,102.94998478889391L189.34375,100.05036783218308L191.625,100.05036783218308L193.90625,98.60012722015303L196.1875,91.34978842735208L198.46875,91.34978842735208L200.75,101.49974417686387L203.03125,97.14988660812301L205.3125,98.60012722015303L207.59375,104.40022540092396L209.875,95.69964599609295L212.15625,102.94998478889391L214.4375,102.94998478889391L216.71875,98.60012722015303L219,92.80002903938211L221.28125,94.25026965141217L223.5625,94.25026965141217L225.84375,97.14988660812301L228.125,92.80002903938211L230.40625,89.90041208267127L232.6875,91.34978842735208L234.96875,98.60012722015303L237.25,97.14988660812301L239.53125,91.34978842735208L241.8125,91.34978842735208L244.09375,89.90041208267127L246.375,91.34978842735208L248.65625,91.34978842735208L250.9375,91.34978842735208" style="fill: none;" fill="none"></path></g></g></g></g></g></g><g transform="translate(56, 174)" clip-path="url(#clip_1)"><clipPath id="clip_1"><rect width="273" height="26"></rect></clipPath><g><g><line x1="0" y1="0" x2="0" y2="5" style="visibility: inherit;" fill="rgb(0, 0, 0)" stroke="rgb(204, 204, 204)" stroke-width="1px"></line><line x1="22.8125" y1="0" x2="22.8125" y2="5" style="visibility: inherit;" fill="rgb(0, 0, 0)" stroke="rgb(204, 204, 204)" stroke-width="1px"></line><line x1="45.625" y1="0" x2="45.625" y2="5" style="visibility: inherit;" fill="rgb(0, 0, 0)" stroke="rgb(204, 204, 204)" stroke-width="1px"></line><line x1="68.4375" y1="0" x2="68.4375" y2="5" style="visibility: inherit;" fill="rgb(0, 0, 0)" stroke="rgb(204, 204, 204)" stroke-width="1px"></line><line x1="91.25" y1="0" x2="91.25" y2="5" style="visibility: inherit;" fill="rgb(0, 0, 0)" stroke="rgb(204, 204, 204)" stroke-width="1px"></line><line x1="114.0625" y1="0" x2="114.0625" y2="5" style="visibility: inherit;" fill="rgb(0, 0, 0)" stroke="rgb(204, 204, 204)" stroke-width="1px"></line><line x1="136.875" y1="0" x2="136.875" y2="5" style="visibility: inherit;" fill="rgb(0, 0, 0)" stroke="rgb(204, 204, 204)" stroke-width="1px"></line><line x1="159.6875" y1="0" x2="159.6875" y2="5" style="visibility: inherit;" fill="rgb(0, 0, 0)" stroke="rgb(204, 204, 204)" stroke-width="1px"></line><line x1="182.5" y1="0" x2="182.5" y2="5" style="visibility: inherit;" fill="rgb(0, 0, 0)" stroke="rgb(204, 204, 204)" stroke-width="1px"></line><line x1="205.3125" y1="0" x2="205.3125" y2="5" style="visibility: inherit;" fill="rgb(0, 0, 0)" stroke="rgb(204, 204, 204)" stroke-width="1px"></line><line x1="228.125" y1="0" x2="228.125" y2="5" style="visibility: inherit;" fill="rgb(0, 0, 0)" stroke="rgb(204, 204, 204)" stroke-width="1px"></line><line x1="250.9375" y1="0" x2="250.9375" y2="5" style="visibility: inherit;" fill="rgb(0, 0, 0)" stroke="rgb(204, 204, 204)" stroke-width="1px"></line><line x1="273.75" y1="0" x2="273.75" y2="5" style="visibility: inherit;" fill="rgb(0, 0, 0)" stroke="rgb(204, 204, 204)" stroke-width="1px"></line></g><g transform="translate(0, 8)"><text x="0" y="0" dx="0em" dy="0.95em" style="text-anchor: middle; visibility: hidden; font-family: Roboto, sans-serif; font-size: 12px; font-weight: 200;" fill="rgb(255, 255, 255)" stroke="none" stroke-width="1px">-10</text><text x="22.8125" y="0" dx="0em" dy="0.95em" style="text-anchor: middle; visibility: inherit; font-family: Roboto, sans-serif; font-size: 12px; font-weight: 200;" fill="rgb(255, 255, 255)" stroke="none" stroke-width="1px">0</text><text x="45.625" y="0" dx="0em" dy="0.95em" style="text-anchor: middle; visibility: inherit; font-family: Roboto, sans-serif; font-size: 12px; font-weight: 200;" fill="rgb(255, 255, 255)" stroke="none" stroke-width="1px">10</text><text x="68.4375" y="0" dx="0em" dy="0.95em" style="text-anchor: middle; visibility: inherit; font-family: Roboto, sans-serif; font-size: 12px; font-weight: 200;" fill="rgb(255, 255, 255)" stroke="none" stroke-width="1px">20</text><text x="91.25" y="0" dx="0em" dy="0.95em" style="text-anchor: middle; visibility: inherit; font-family: Roboto, sans-serif; font-size: 12px; font-weight: 200;" fill="rgb(255, 255, 255)" stroke="none" stroke-width="1px">30</text><text x="114.0625" y="0" dx="0em" dy="0.95em" style="text-anchor: middle; visibility: inherit; font-family: Roboto, sans-serif; font-size: 12px; font-weight: 200;" fill="rgb(255, 255, 255)" stroke="none" stroke-width="1px">40</text><text x="136.875" y="0" dx="0em" dy="0.95em" style="text-anchor: middle; visibility: inherit; font-family: Roboto, sans-serif; font-size: 12px; font-weight: 200;" fill="rgb(255, 255, 255)" stroke="none" stroke-width="1px">50</text><text x="159.6875" y="0" dx="0em" dy="0.95em" style="text-anchor: middle; visibility: inherit; font-family: Roboto, sans-serif; font-size: 12px; font-weight: 200;" fill="rgb(255, 255, 255)" stroke="none" stroke-width="1px">60</text><text x="182.5" y="0" dx="0em" dy="0.95em" style="text-anchor: middle; visibility: inherit; font-family: Roboto, sans-serif; font-size: 12px; font-weight: 200;" fill="rgb(255, 255, 255)" stroke="none" stroke-width="1px">70</text><text x="205.3125" y="0" dx="0em" dy="0.95em" style="text-anchor: middle; visibility: inherit; font-family: Roboto, sans-serif; font-size: 12px; font-weight: 200;" fill="rgb(255, 255, 255)" stroke="none" stroke-width="1px">80</text><text x="228.125" y="0" dx="0em" dy="0.95em" style="text-anchor: middle; visibility: inherit; font-family: Roboto, sans-serif; font-size: 12px; font-weight: 200;" fill="rgb(255, 255, 255)" stroke="none" stroke-width="1px">90</text><text x="250.9375" y="0" dx="0em" dy="0.95em" style="text-anchor: middle; visibility: inherit; font-family: Roboto, sans-serif; font-size: 12px; font-weight: 200;" fill="rgb(255, 255, 255)" stroke="none" stroke-width="1px">100</text><text x="273.75" y="0" dx="0em" dy="0.95em" style="text-anchor: middle; visibility: hidden; font-family: Roboto, sans-serif; font-size: 12px; font-weight: 200;" fill="rgb(255, 255, 255)" stroke="none" stroke-width="1px">110</text></g><line x1="0" y1="0" x2="273.75" y2="0" fill="rgb(0, 0, 0)" stroke="rgb(204, 204, 204)" stroke-width="1px"></line></g></g></g></g></svg>