<svg viewBox="0 0 1245.666748046875 400" xmlns="http://www.w3.org/2000/svg"><g><g><g><g><g><line x1="47" y1="338.90687863196956" x2="42" y2="338.90687863196956" style="visibility: inherit;" fill="rgb(0, 0, 0)" stroke="rgb(204, 204, 204)" stroke-width="1px"></line><line x1="47" y1="294.8843764606224" x2="42" y2="294.8843764606224" style="visibility: inherit;" fill="rgb(0, 0, 0)" stroke="rgb(204, 204, 204)" stroke-width="1px"></line><line x1="47" y1="250.86187428927516" x2="42" y2="250.86187428927516" style="visibility: inherit;" fill="rgb(0, 0, 0)" stroke="rgb(204, 204, 204)" stroke-width="1px"></line><line x1="47" y1="206.83937211792798" x2="42" y2="206.83937211792798" style="visibility: inherit;" fill="rgb(0, 0, 0)" stroke="rgb(204, 204, 204)" stroke-width="1px"></line><line x1="47" y1="162.81686994658077" x2="42" y2="162.81686994658077" style="visibility: inherit;" fill="rgb(0, 0, 0)" stroke="rgb(204, 204, 204)" stroke-width="1px"></line><line x1="47" y1="118.79436777523355" x2="42" y2="118.79436777523355" style="visibility: inherit;" fill="rgb(0, 0, 0)" stroke="rgb(204, 204, 204)" stroke-width="1px"></line><line x1="47" y1="74.77186560388644" x2="42" y2="74.77186560388644" style="visibility: inherit;" fill="rgb(0, 0, 0)" stroke="rgb(204, 204, 204)" stroke-width="1px"></line><line x1="47" y1="30.749363432539187" x2="42" y2="30.749363432539187" style="visibility: inherit;" fill="rgb(0, 0, 0)" stroke="rgb(204, 204, 204)" stroke-width="1px"></line></g><g transform="translate(37, 0)"><text x="0" y="338.90687863196956" dx="0em" dy="0.3em" style="text-anchor: end; visibility: inherit; font-family: Roboto, sans-serif; font-size: 12px; font-weight: 200;" fill="rgb(255, 255, 255)" stroke="none" stroke-width="1px">0</text><text x="0" y="294.8843764606224" dx="0em" dy="0.3em" style="text-anchor: end; visibility: inherit; font-family: Roboto, sans-serif; font-size: 12px; font-weight: 200;" fill="rgb(255, 255, 255)" stroke="none" stroke-width="1px">0.02</text><text x="0" y="250.86187428927516" dx="0em" dy="0.3em" style="text-anchor: end; visibility: inherit; font-family: Roboto, sans-serif; font-size: 12px; font-weight: 200;" fill="rgb(255, 255, 255)" stroke="none" stroke-width="1px">0.04</text><text x="0" y="206.83937211792798" dx="0em" dy="0.3em" style="text-anchor: end; visibility: inherit; font-family: Roboto, sans-serif; font-size: 12px; font-weight: 200;" fill="rgb(255, 255, 255)" stroke="none" stroke-width="1px">0.06</text><text x="0" y="162.81686994658077" dx="0em" dy="0.3em" style="text-anchor: end; visibility: inherit; font-family: Roboto, sans-serif; font-size: 12px; font-weight: 200;" fill="rgb(255, 255, 255)" stroke="none" stroke-width="1px">0.08</text><text x="0" y="118.79436777523355" dx="0em" dy="0.3em" style="text-anchor: end; visibility: inherit; font-family: Roboto, sans-serif; font-size: 12px; font-weight: 200;" fill="rgb(255, 255, 255)" stroke="none" stroke-width="1px">0.1</text><text x="0" y="74.77186560388644" dx="0em" dy="0.3em" style="text-anchor: end; visibility: inherit; font-family: Roboto, sans-serif; font-size: 12px; font-weight: 200;" fill="rgb(255, 255, 255)" stroke="none" stroke-width="1px">0.12</text><text x="0" y="30.749363432539187" dx="0em" dy="0.3em" style="text-anchor: end; visibility: inherit; font-family: Roboto, sans-serif; font-size: 12px; font-weight: 200;" fill="rgb(255, 255, 255)" stroke="none" stroke-width="1px">0.14</text></g><line x1="47" y1="0" x2="47" y2="374" fill="rgb(0, 0, 0)" stroke="rgb(204, 204, 204)" stroke-width="1px"></line></g></g><g transform="translate(47, 0)" clip-path="url(#clip_0)"><clipPath id="clip_0"><rect width="1198" height="374"></rect></clipPath><g><g><g><line x1="87.5131126799878" y1="0" x2="87.5131126799878" y2="374" fill="rgb(0, 0, 0)" stroke="rgb(189, 189, 189)" stroke-width="1px" opacity="0.25"></line><line x1="182.09428227297178" y1="0" x2="182.09428227297178" y2="374" fill="rgb(0, 0, 0)" stroke="rgb(189, 189, 189)" stroke-width="1px" opacity="0.25"></line><line x1="276.67545186595584" y1="0" x2="276.67545186595584" y2="374" fill="rgb(0, 0, 0)" stroke="rgb(189, 189, 189)" stroke-width="1px" opacity="0.25"></line><line x1="371.2566214589398" y1="0" x2="371.2566214589398" y2="374" fill="rgb(0, 0, 0)" stroke="rgb(189, 189, 189)" stroke-width="1px" opacity="0.25"></line><line x1="465.83779105192383" y1="0" x2="465.83779105192383" y2="374" fill="rgb(0, 0, 0)" stroke="rgb(189, 189, 189)" stroke-width="1px" opacity="0.25"></line><line x1="560.4189606449079" y1="0" x2="560.4189606449079" y2="374" fill="rgb(0, 0, 0)" stroke="rgb(189, 189, 189)" stroke-width="1px" opacity="0.25"></line><line x1="655.0001302378919" y1="0" x2="655.0001302378919" y2="374" fill="rgb(0, 0, 0)" stroke="rgb(189, 189, 189)" stroke-width="1px" opacity="0.25"></line><line x1="749.5812998308759" y1="0" x2="749.5812998308759" y2="374" fill="rgb(0, 0, 0)" stroke="rgb(189, 189, 189)" stroke-width="1px" opacity="0.25"></line><line x1="844.1624694238599" y1="0" x2="844.1624694238599" y2="374" fill="rgb(0, 0, 0)" stroke="rgb(189, 189, 189)" stroke-width="1px" opacity="0.25"></line><line x1="938.7436390168439" y1="0" x2="938.7436390168439" y2="374" fill="rgb(0, 0, 0)" stroke="rgb(189, 189, 189)" stroke-width="1px" opacity="0.25"></line><line x1="1033.3248086098279" y1="0" x2="1033.3248086098279" y2="374" fill="rgb(0, 0, 0)" stroke="rgb(189, 189, 189)" stroke-width="1px" opacity="0.25"></line><line x1="1127.9059782028119" y1="0" x2="1127.9059782028119" y2="374" fill="rgb(0, 0, 0)" stroke="rgb(189, 189, 189)" stroke-width="1px" opacity="0.25"></line></g><g><line x1="0" y1="338.90687863196956" x2="1198.67" y2="338.90687863196956" fill="rgb(0, 0, 0)" stroke="rgb(189, 189, 189)" stroke-width="1px" opacity="0.25"></line><line x1="0" y1="294.8843764606224" x2="1198.67" y2="294.8843764606224" fill="rgb(0, 0, 0)" stroke="rgb(189, 189, 189)" stroke-width="1px" opacity="0.25"></line><line x1="0" y1="250.86187428927516" x2="1198.67" y2="250.86187428927516" fill="rgb(0, 0, 0)" stroke="rgb(189, 189, 189)" stroke-width="1px" opacity="0.25"></line><line x1="0" y1="206.83937211792798" x2="1198.67" y2="206.83937211792798" fill="rgb(0, 0, 0)" stroke="rgb(189, 189, 189)" stroke-width="1px" opacity="0.25"></line><line x1="0" y1="162.81686994658077" x2="1198.67" y2="162.81686994658077" fill="rgb(0, 0, 0)" stroke="rgb(189, 189, 189)" stroke-width="1px" opacity="0.25"></line><line x1="0" y1="118.79436777523355" x2="1198.67" y2="118.79436777523355" fill="rgb(0, 0, 0)" stroke="rgb(189, 189, 189)" stroke-width="1px" opacity="0.25"></line><line x1="0" y1="74.77186560388644" x2="1198.67" y2="74.77186560388644" fill="rgb(0, 0, 0)" stroke="rgb(189, 189, 189)" stroke-width="1px" opacity="0.25"></line><line x1="0" y1="30.749363432539187" x2="1198.67" y2="30.749363432539187" fill="rgb(0, 0, 0)" stroke="rgb(189, 189, 189)" stroke-width="1px" opacity="0.25"></line></g></g></g><g><g><line x1="0" y1="338.90687863196956" x2="1198.67" y2="338.90687863196956" fill="rgb(0, 0, 0)" stroke="rgb(153, 153, 153)" stroke-width="1.5px"></line></g></g><g><g><line x1="87.5131126799878" y1="0" x2="87.5131126799878" y2="374" fill="rgb(0, 0, 0)" stroke="rgb(153, 153, 153)" stroke-width="1.5px"></line></g></g><g><g><g><g><g><path style="fill: none;" stroke="rgb(51, 187, 238)" stroke-width="2px" d="M96.97122963928621,16.841892830676407L106.42934659858462,154.65526737745623L115.88746355788301,212.1030484405831L125.34558051718142,244.15083788987474L134.8036974764798,264.8824051589872L144.2618144357782,278.78346774042944L153.7199313950766,288.60228035576796L163.17804835437502,296.17876370357527L172.63616531367342,302.0402418743748L182.09428227297178,306.4683833797575L191.5523992322702,310.3363513278386L201.0105161915686,313.51726692525494L210.46863315086702,316.580684557149L219.9267501101654,319.0212225342188L229.3848670694638,320.7294949070782L238.8429840287622,322.3190587283424L248.30110098806063,323.8448996476027L257.759217947359,325.0141277192831L267.2173349066574,326.3113962251644L276.67545186595584,327.28488007457366L286.1335688252542,328.3326614443827L295.5916857845526,329.05669887371704L305.04980274385105,329.8653096400459L314.5079197031494,330.4003643200004L323.9660366624478,331.09265308950825L333.4241536217462,331.70612676273157L342.8822705810446,332.1857340441138L352.34038754034304,332.5043138988782L361.7985044996414,332.9346506111324L371.2566214589398,333.2985067550893L380.7147384182382,333.54470125069395L390.1728553775366,334.0181844897493L399.63097233683504,334.50477793321704L409.0890892961334,334.51645732919815L418.5472062554318,334.68194595389195L428.00532321473025,334.98521010555174L437.4634401740286,335.4151620000297L446.92155713332704,335.566011785305L456.3796740926254,335.489236103668L465.83779105192383,335.86578675677794L475.29590801122225,335.9787260531037L484.7540249705206,336.15067615854264L494.212141929819,336.3316193544922L503.6702588891174,336.41523923667035L513.1283758484159,336.6429685426164L522.5864928077142,336.74145329084746L532.0446097670126,336.8460340805004L541.502726726311,337.0041646682138L550.9608436856095,337.1738812806489L560.4189606449079,337.2815808914274L569.8770776042062,337.3858209040428L579.3351945635046,337.48945261983926L588.793311522803,337.5692406305223L598.2514284821015,337.6567336830808L607.7095454413998,337.74884976076464L617.1676624006982,337.7263463259071L626.6257793599966,337.7964870154036L636.083896319295,337.87232203193145L645.5420132785935,337.86352861052904L655.0001302378919,337.8611874049714L664.4582471971902,337.93462094144525L673.9163641564886,337.95960464566997L683.374481115787,338.02301960495623L692.8325980750855,338.0214483343793L702.2907150343839,338.06599548712506L711.7488319936822,338.10006085854553L721.2069489529806,338.14397875717094L730.6650659122789,338.1615250057435L740.1231828715775,338.1911291725465L749.5812998308759,338.1986197455715L759.0394167901742,338.24860403010297L768.4975337494726,338.2521810777649L777.9556507087709,338.2748711604757L787.4137676680695,338.2899526209319L796.8718846273679,338.2960666499218L806.3300015866662,338.31147440520226L815.7881185459646,338.32952357459766L825.2462355052631,338.3418204870646L834.7043524645615,338.33892670748793L844.1624694238599,338.3592017046853L853.6205863831582,338.3596273651172L863.0787033424566,338.38189401350746L872.5368203017551,338.38938433359834L881.9949372610535,338.38800885670963L891.4530542203519,338.4003903192926L900.9111711796502,338.40781919684247L910.3692881389486,338.407874278071L919.827405098247,338.41230957210945L929.2855220575454,338.4120359140609L938.7436390168439,338.42067622264665L948.2017559761423,338.42145816249683L957.6598729354406,338.4233947372366L967.117989894739,338.4274915165521L976.5761068540374,338.42994958414135L986.0342238133359,338.4284895902233L995.4923407726343,338.43054842834414L1004.9504577319326,338.42884889674497L1014.408574691231,338.4307640122571L1023.8666916505293,338.43338050520634L1033.3248086098279,338.4349504009759" fill="none"></path></g></g></g></g><g opacity="0.2"><g><g><g><path style="fill: none;" stroke="rgb(51, 187, 238)" stroke-width="2px" d="M96.97122963928621,16.841892830676407L106.42934659858462,237.34329210552414L115.88746355788301,267.2529182611849L125.34558051718142,281.83903828224163L134.8036974764798,291.94953938554045L144.2618144357782,298.01364167309333L153.7199313950766,302.6433394967039L163.17804835437502,307.22534915891845L172.63616531367342,310.68478364278405L182.09428227297178,313.0436574419272L191.5523992322702,316.1032210653536L201.0105161915686,318.27132991916756L210.46863315086702,321.16580841490685L219.9267501101654,322.6772482318605L229.3848670694638,323.28989545631913L238.8429840287622,324.70228337667754L248.30110098806063,326.1330153417529L257.759217947359,326.76767295992306L267.2173349066574,328.2571013581865L276.67545186595584,328.7450168684078L286.1335688252542,329.90427603627575L295.5916857845526,330.14273119295854L305.04980274385105,331.0782098249301L314.5079197031494,331.20294000169935L323.9660366624478,332.1310813232777L333.4241536217462,332.6263346563816L342.8822705810446,332.90514373900345L352.34038754034304,332.98218319192983L361.7985044996414,333.5801552831127L371.2566214589398,333.844290769927L380.7147384182382,333.9139929124601L390.1728553775366,334.7284092541249L399.63097233683504,335.2346680403292L409.0890892961334,334.5339764223332L418.5472062554318,334.93017888382053L428.00532321473025,335.4401063252214L437.4634401740286,336.06008983509446L446.92155713332704,335.7922864618177L456.3796740926254,335.3740725816402L465.83779105192383,336.4306127351844L475.29590801122225,336.1481349973659L484.7540249705206,336.4086013164942L494.212141929819,336.60303414828593L503.6702588891174,336.54066905990135L513.1283758484159,336.98456250147626L522.5864928077142,336.8891804131787L532.0446097670126,337.0029052649699L541.502726726311,337.241360549775L550.9608436856095,337.42845619929585L560.4189606449079,337.4431303075929L569.8770776042062,337.54218092296475L579.3351945635046,337.6449001935332L588.793311522803,337.68892264654653L598.2514284821015,337.78797326191835L607.7095454413998,337.88702387729023L617.1676624006982,337.6925911736208L626.6257793599966,337.90169804964836L636.083896319295,337.9860745567232L645.5420132785935,337.85033847842533L655.0001302378919,337.85767559663503L664.4582471971902,338.0447712461559L673.9163641564886,337.9970802020071L683.374481115787,338.11814204388565L692.8325980750855,338.01909142851383L702.2907150343839,338.13281621624384L711.7488319936822,338.15115891567626L721.2069489529806,338.20985560510894L730.6650659122789,338.1878443786023L740.1231828715775,338.23553542275107L749.5812998308759,338.20985560510894L759.0394167901742,338.3235804569002L768.4975337494726,338.25754664925773L777.9556507087709,338.308906284542L787.4137676680695,338.31257481161623L796.8718846273679,338.3052376934065L806.3300015866662,338.33458603812295L815.7881185459646,338.3565973286907L825.2462355052631,338.360265855765L834.7043524645615,338.33458603812295L844.1624694238599,338.3896142004814L853.6205863831582,338.360265855765L863.0787033424566,338.4152939860929L872.5368203017551,338.40061981373475L881.9949372610535,338.3859456413765L891.4530542203519,338.4189625131672L900.9111711796502,338.4189625131672L910.3692881389486,338.4079568999138L919.827405098247,338.4189625131672L929.2855220575454,338.41162542698805L938.7436390168439,338.4336366855253L948.2017559761423,338.422631072272L957.6598729354406,338.42629959934624L967.117989894739,338.4336366855253L976.5761068540374,338.4336366855253L986.0342238133359,338.42629959934624L995.4923407726343,338.4336366855253L1004.9504577319326,338.42629959934624L1014.408574691231,338.4336366855253L1023.8666916505293,338.4373052446302L1033.3248086098279,338.4373052446302" fill="none"></path></g></g></g></g></g></g><g transform="translate(47, 374)" clip-path="url(#clip_1)"><clipPath id="clip_1"><rect width="1198" height="26"></rect></clipPath><g><g><line x1="87.5131126799878" y1="0" x2="87.5131126799878" y2="5" style="visibility: inherit;" fill="rgb(0, 0, 0)" stroke="rgb(204, 204, 204)" stroke-width="1px"></line><line x1="182.09428227297178" y1="0" x2="182.09428227297178" y2="5" style="visibility: inherit;" fill="rgb(0, 0, 0)" stroke="rgb(204, 204, 204)" stroke-width="1px"></line><line x1="276.67545186595584" y1="0" x2="276.67545186595584" y2="5" style="visibility: inherit;" fill="rgb(0, 0, 0)" stroke="rgb(204, 204, 204)" stroke-width="1px"></line><line x1="371.2566214589398" y1="0" x2="371.2566214589398" y2="5" style="visibility: inherit;" fill="rgb(0, 0, 0)" stroke="rgb(204, 204, 204)" stroke-width="1px"></line><line x1="465.83779105192383" y1="0" x2="465.83779105192383" y2="5" style="visibility: inherit;" fill="rgb(0, 0, 0)" stroke="rgb(204, 204, 204)" stroke-width="1px"></line><line x1="560.4189606449079" y1="0" x2="560.4189606449079" y2="5" style="visibility: inherit;" fill="rgb(0, 0, 0)" stroke="rgb(204, 204, 204)" stroke-width="1px"></line><line x1="655.0001302378919" y1="0" x2="655.0001302378919" y2="5" style="visibility: inherit;" fill="rgb(0, 0, 0)" stroke="rgb(204, 204, 204)" stroke-width="1px"></line><line x1="749.5812998308759" y1="0" x2="749.5812998308759" y2="5" style="visibility: inherit;" fill="rgb(0, 0, 0)" stroke="rgb(204, 204, 204)" stroke-width="1px"></line><line x1="844.1624694238599" y1="0" x2="844.1624694238599" y2="5" style="visibility: inherit;" fill="rgb(0, 0, 0)" stroke="rgb(204, 204, 204)" stroke-width="1px"></line><line x1="938.7436390168439" y1="0" x2="938.7436390168439" y2="5" style="visibility: inherit;" fill="rgb(0, 0, 0)" stroke="rgb(204, 204, 204)" stroke-width="1px"></line><line x1="1033.3248086098279" y1="0" x2="1033.3248086098279" y2="5" style="visibility: inherit;" fill="rgb(0, 0, 0)" stroke="rgb(204, 204, 204)" stroke-width="1px"></line><line x1="1127.9059782028119" y1="0" x2="1127.9059782028119" y2="5" style="visibility: inherit;" fill="rgb(0, 0, 0)" stroke="rgb(204, 204, 204)" stroke-width="1px"></line></g><g transform="translate(0, 8)"><text x="87.5131126799878" y="0" dx="0em" dy="0.95em" style="text-anchor: middle; visibility: inherit; font-family: Roboto, sans-serif; font-size: 12px; font-weight: 200;" fill="rgb(255, 255, 255)" stroke="none" stroke-width="1px">0</text><text x="182.09428227297178" y="0" dx="0em" dy="0.95em" style="text-anchor: middle; visibility: inherit; font-family: Roboto, sans-serif; font-size: 12px; font-weight: 200;" fill="rgb(255, 255, 255)" stroke="none" stroke-width="1px">10</text><text x="276.67545186595584" y="0" dx="0em" dy="0.95em" style="text-anchor: middle; visibility: inherit; font-family: Roboto, sans-serif; font-size: 12px; font-weight: 200;" fill="rgb(255, 255, 255)" stroke="none" stroke-width="1px">20</text><text x="371.2566214589398" y="0" dx="0em" dy="0.95em" style="text-anchor: middle; visibility: inherit; font-family: Roboto, sans-serif; font-size: 12px; font-weight: 200;" fill="rgb(255, 255, 255)" stroke="none" stroke-width="1px">30</text><text x="465.83779105192383" y="0" dx="0em" dy="0.95em" style="text-anchor: middle; visibility: inherit; font-family: Roboto, sans-serif; font-size: 12px; font-weight: 200;" fill="rgb(255, 255, 255)" stroke="none" stroke-width="1px">40</text><text x="560.4189606449079" y="0" dx="0em" dy="0.95em" style="text-anchor: middle; visibility: inherit; font-family: Roboto, sans-serif; font-size: 12px; font-weight: 200;" fill="rgb(255, 255, 255)" stroke="none" stroke-width="1px">50</text><text x="655.0001302378919" y="0" dx="0em" dy="0.95em" style="text-anchor: middle; visibility: inherit; font-family: Roboto, sans-serif; font-size: 12px; font-weight: 200;" fill="rgb(255, 255, 255)" stroke="none" stroke-width="1px">60</text><text x="749.5812998308759" y="0" dx="0em" dy="0.95em" style="text-anchor: middle; visibility: inherit; font-family: Roboto, sans-serif; font-size: 12px; font-weight: 200;" fill="rgb(255, 255, 255)" stroke="none" stroke-width="1px">70</text><text x="844.1624694238599" y="0" dx="0em" dy="0.95em" style="text-anchor: middle; visibility: inherit; font-family: Roboto, sans-serif; font-size: 12px; font-weight: 200;" fill="rgb(255, 255, 255)" stroke="none" stroke-width="1px">80</text><text x="938.7436390168439" y="0" dx="0em" dy="0.95em" style="text-anchor: middle; visibility: inherit; font-family: Roboto, sans-serif; font-size: 12px; font-weight: 200;" fill="rgb(255, 255, 255)" stroke="none" stroke-width="1px">90</text><text x="1033.3248086098279" y="0" dx="0em" dy="0.95em" style="text-anchor: middle; visibility: inherit; font-family: Roboto, sans-serif; font-size: 12px; font-weight: 200;" fill="rgb(255, 255, 255)" stroke="none" stroke-width="1px">100</text><text x="1127.9059782028119" y="0" dx="0em" dy="0.95em" style="text-anchor: middle; visibility: inherit; font-family: Roboto, sans-serif; font-size: 12px; font-weight: 200;" fill="rgb(255, 255, 255)" stroke="none" stroke-width="1px">110</text></g><line x1="0" y1="0" x2="1198.67" y2="0" fill="rgb(0, 0, 0)" stroke="rgb(204, 204, 204)" stroke-width="1px"></line></g></g></g></g></svg>