<svg viewBox="0 0 1245.666748046875 400" xmlns="http://www.w3.org/2000/svg"><g><g><g><g><g><line x1="56.25" y1="374" x2="51.25" y2="374" style="visibility: inherit;" fill="rgb(0, 0, 0)" stroke="rgb(204, 204, 204)" stroke-width="1px"></line><line x1="56.25" y1="342.83333333333303" x2="51.25" y2="342.83333333333303" style="visibility: inherit;" fill="rgb(0, 0, 0)" stroke="rgb(204, 204, 204)" stroke-width="1px"></line><line x1="56.25" y1="311.6666666666661" x2="51.25" y2="311.6666666666661" style="visibility: inherit;" fill="rgb(0, 0, 0)" stroke="rgb(204, 204, 204)" stroke-width="1px"></line><line x1="56.25" y1="280.49999999999915" x2="51.25" y2="280.49999999999915" style="visibility: inherit;" fill="rgb(0, 0, 0)" stroke="rgb(204, 204, 204)" stroke-width="1px"></line><line x1="56.25" y1="249.3333333333322" x2="51.25" y2="249.3333333333322" style="visibility: inherit;" fill="rgb(0, 0, 0)" stroke="rgb(204, 204, 204)" stroke-width="1px"></line><line x1="56.25" y1="218.16666666666524" x2="51.25" y2="218.16666666666524" style="visibility: inherit;" fill="rgb(0, 0, 0)" stroke="rgb(204, 204, 204)" stroke-width="1px"></line><line x1="56.25" y1="186.99999999999827" x2="51.25" y2="186.99999999999827" style="visibility: inherit;" fill="rgb(0, 0, 0)" stroke="rgb(204, 204, 204)" stroke-width="1px"></line><line x1="56.25" y1="155.83333333333132" x2="51.25" y2="155.83333333333132" style="visibility: inherit;" fill="rgb(0, 0, 0)" stroke="rgb(204, 204, 204)" stroke-width="1px"></line><line x1="56.25" y1="124.66666666666436" x2="51.25" y2="124.66666666666436" style="visibility: inherit;" fill="rgb(0, 0, 0)" stroke="rgb(204, 204, 204)" stroke-width="1px"></line><line x1="56.25" y1="93.49999999999739" x2="51.25" y2="93.49999999999739" style="visibility: inherit;" fill="rgb(0, 0, 0)" stroke="rgb(204, 204, 204)" stroke-width="1px"></line><line x1="56.25" y1="62.33333333333046" x2="51.25" y2="62.33333333333046" style="visibility: inherit;" fill="rgb(0, 0, 0)" stroke="rgb(204, 204, 204)" stroke-width="1px"></line><line x1="56.25" y1="31.166666666663485" x2="51.25" y2="31.166666666663485" style="visibility: inherit;" fill="rgb(0, 0, 0)" stroke="rgb(204, 204, 204)" stroke-width="1px"></line></g><g transform="translate(46.25, 0)"><text x="0" y="374" dx="0em" dy="0.3em" style="text-anchor: end; visibility: hidden; font-family: Roboto, sans-serif; font-size: 12px; font-weight: 200;" fill="rgb(255, 255, 255)" stroke="none" stroke-width="1px">0.989</text><text x="0" y="342.83333333333303" dx="0em" dy="0.3em" style="text-anchor: end; visibility: inherit; font-family: Roboto, sans-serif; font-size: 12px; font-weight: 200;" fill="rgb(255, 255, 255)" stroke="none" stroke-width="1px">0.99</text><text x="0" y="311.6666666666661" dx="0em" dy="0.3em" style="text-anchor: end; visibility: inherit; font-family: Roboto, sans-serif; font-size: 12px; font-weight: 200;" fill="rgb(255, 255, 255)" stroke="none" stroke-width="1px">0.991</text><text x="0" y="280.49999999999915" dx="0em" dy="0.3em" style="text-anchor: end; visibility: inherit; font-family: Roboto, sans-serif; font-size: 12px; font-weight: 200;" fill="rgb(255, 255, 255)" stroke="none" stroke-width="1px">0.992</text><text x="0" y="249.3333333333322" dx="0em" dy="0.3em" style="text-anchor: end; visibility: inherit; font-family: Roboto, sans-serif; font-size: 12px; font-weight: 200;" fill="rgb(255, 255, 255)" stroke="none" stroke-width="1px">0.993</text><text x="0" y="218.16666666666524" dx="0em" dy="0.3em" style="text-anchor: end; visibility: inherit; font-family: Roboto, sans-serif; font-size: 12px; font-weight: 200;" fill="rgb(255, 255, 255)" stroke="none" stroke-width="1px">0.994</text><text x="0" y="186.99999999999827" dx="0em" dy="0.3em" style="text-anchor: end; visibility: inherit; font-family: Roboto, sans-serif; font-size: 12px; font-weight: 200;" fill="rgb(255, 255, 255)" stroke="none" stroke-width="1px">0.995</text><text x="0" y="155.83333333333132" dx="0em" dy="0.3em" style="text-anchor: end; visibility: inherit; font-family: Roboto, sans-serif; font-size: 12px; font-weight: 200;" fill="rgb(255, 255, 255)" stroke="none" stroke-width="1px">0.996</text><text x="0" y="124.66666666666436" dx="0em" dy="0.3em" style="text-anchor: end; visibility: inherit; font-family: Roboto, sans-serif; font-size: 12px; font-weight: 200;" fill="rgb(255, 255, 255)" stroke="none" stroke-width="1px">0.997</text><text x="0" y="93.49999999999739" dx="0em" dy="0.3em" style="text-anchor: end; visibility: inherit; font-family: Roboto, sans-serif; font-size: 12px; font-weight: 200;" fill="rgb(255, 255, 255)" stroke="none" stroke-width="1px">0.998</text><text x="0" y="62.33333333333046" dx="0em" dy="0.3em" style="text-anchor: end; visibility: inherit; font-family: Roboto, sans-serif; font-size: 12px; font-weight: 200;" fill="rgb(255, 255, 255)" stroke="none" stroke-width="1px">0.999</text><text x="0" y="31.166666666663485" dx="0em" dy="0.3em" style="text-anchor: end; visibility: inherit; font-family: Roboto, sans-serif; font-size: 12px; font-weight: 200;" fill="rgb(255, 255, 255)" stroke="none" stroke-width="1px">1</text></g><line x1="56.25" y1="0" x2="56.25" y2="374" fill="rgb(0, 0, 0)" stroke="rgb(204, 204, 204)" stroke-width="1px"></line></g></g><g transform="translate(56, 0)" clip-path="url(#clip_0)"><clipPath id="clip_0"><rect width="1189" height="374"></rect></clipPath><g><g><g><line x1="0" y1="0" x2="0" y2="374" fill="rgb(0, 0, 0)" stroke="rgb(189, 189, 189)" stroke-width="1px" opacity="0.25"></line><line x1="99.11833333333334" y1="0" x2="99.11833333333334" y2="374" fill="rgb(0, 0, 0)" stroke="rgb(189, 189, 189)" stroke-width="1px" opacity="0.25"></line><line x1="198.23666666666668" y1="0" x2="198.23666666666668" y2="374" fill="rgb(0, 0, 0)" stroke="rgb(189, 189, 189)" stroke-width="1px" opacity="0.25"></line><line x1="297.355" y1="0" x2="297.355" y2="374" fill="rgb(0, 0, 0)" stroke="rgb(189, 189, 189)" stroke-width="1px" opacity="0.25"></line><line x1="396.47333333333336" y1="0" x2="396.47333333333336" y2="374" fill="rgb(0, 0, 0)" stroke="rgb(189, 189, 189)" stroke-width="1px" opacity="0.25"></line><line x1="495.5916666666667" y1="0" x2="495.5916666666667" y2="374" fill="rgb(0, 0, 0)" stroke="rgb(189, 189, 189)" stroke-width="1px" opacity="0.25"></line><line x1="594.71" y1="0" x2="594.71" y2="374" fill="rgb(0, 0, 0)" stroke="rgb(189, 189, 189)" stroke-width="1px" opacity="0.25"></line><line x1="693.8283333333334" y1="0" x2="693.8283333333334" y2="374" fill="rgb(0, 0, 0)" stroke="rgb(189, 189, 189)" stroke-width="1px" opacity="0.25"></line><line x1="792.9466666666667" y1="0" x2="792.9466666666667" y2="374" fill="rgb(0, 0, 0)" stroke="rgb(189, 189, 189)" stroke-width="1px" opacity="0.25"></line><line x1="892.065" y1="0" x2="892.065" y2="374" fill="rgb(0, 0, 0)" stroke="rgb(189, 189, 189)" stroke-width="1px" opacity="0.25"></line><line x1="991.1833333333334" y1="0" x2="991.1833333333334" y2="374" fill="rgb(0, 0, 0)" stroke="rgb(189, 189, 189)" stroke-width="1px" opacity="0.25"></line><line x1="1090.3016666666667" y1="0" x2="1090.3016666666667" y2="374" fill="rgb(0, 0, 0)" stroke="rgb(189, 189, 189)" stroke-width="1px" opacity="0.25"></line><line x1="1189.42" y1="0" x2="1189.42" y2="374" fill="rgb(0, 0, 0)" stroke="rgb(189, 189, 189)" stroke-width="1px" opacity="0.25"></line></g><g><line x1="0" y1="374" x2="1189.42" y2="374" fill="rgb(0, 0, 0)" stroke="rgb(189, 189, 189)" stroke-width="1px" opacity="0.25"></line><line x1="0" y1="342.83333333333303" x2="1189.42" y2="342.83333333333303" fill="rgb(0, 0, 0)" stroke="rgb(189, 189, 189)" stroke-width="1px" opacity="0.25"></line><line x1="0" y1="311.6666666666661" x2="1189.42" y2="311.6666666666661" fill="rgb(0, 0, 0)" stroke="rgb(189, 189, 189)" stroke-width="1px" opacity="0.25"></line><line x1="0" y1="280.49999999999915" x2="1189.42" y2="280.49999999999915" fill="rgb(0, 0, 0)" stroke="rgb(189, 189, 189)" stroke-width="1px" opacity="0.25"></line><line x1="0" y1="249.3333333333322" x2="1189.42" y2="249.3333333333322" fill="rgb(0, 0, 0)" stroke="rgb(189, 189, 189)" stroke-width="1px" opacity="0.25"></line><line x1="0" y1="218.16666666666524" x2="1189.42" y2="218.16666666666524" fill="rgb(0, 0, 0)" stroke="rgb(189, 189, 189)" stroke-width="1px" opacity="0.25"></line><line x1="0" y1="186.99999999999827" x2="1189.42" y2="186.99999999999827" fill="rgb(0, 0, 0)" stroke="rgb(189, 189, 189)" stroke-width="1px" opacity="0.25"></line><line x1="0" y1="155.83333333333132" x2="1189.42" y2="155.83333333333132" fill="rgb(0, 0, 0)" stroke="rgb(189, 189, 189)" stroke-width="1px" opacity="0.25"></line><line x1="0" y1="124.66666666666436" x2="1189.42" y2="124.66666666666436" fill="rgb(0, 0, 0)" stroke="rgb(189, 189, 189)" stroke-width="1px" opacity="0.25"></line><line x1="0" y1="93.49999999999739" x2="1189.42" y2="93.49999999999739" fill="rgb(0, 0, 0)" stroke="rgb(189, 189, 189)" stroke-width="1px" opacity="0.25"></line><line x1="0" y1="62.33333333333046" x2="1189.42" y2="62.33333333333046" fill="rgb(0, 0, 0)" stroke="rgb(189, 189, 189)" stroke-width="1px" opacity="0.25"></line><line x1="0" y1="31.166666666663485" x2="1189.42" y2="31.166666666663485" fill="rgb(0, 0, 0)" stroke="rgb(189, 189, 189)" stroke-width="1px" opacity="0.25"></line></g></g></g><g><g><line x1="0" y1="31197.83333333359" x2="1189.42" y2="31197.83333333359" fill="rgb(0, 0, 0)" stroke="rgb(153, 153, 153)" stroke-width="1.5px"></line></g></g><g><g><line x1="99.11833333333334" y1="0" x2="99.11833333333334" y2="374" fill="rgb(0, 0, 0)" stroke="rgb(153, 153, 153)" stroke-width="1.5px"></line></g></g><g><g><g><g><g><path stroke="rgb(204, 51, 17)" stroke-width="2px" d="M148.6775,400.84047720571715L158.58933333333334,333.1309909984879L168.50116666666668,281.33167775063305L178.413,239.99553483696644L188.32483333333334,207.66721062950313L198.23666666666668,184.92594271133086L208.1485,167.82482978185533L218.06033333333332,151.14896313374544L227.9721666666667,135.96510067242613L237.88400000000001,122.70897195531704L247.79583333333335,113.09891391466894L257.7076666666667,104.21770826529794L267.6195,96.60525777036345L277.53133333333335,90.16811194417504L287.4431666666667,85.47469549126333L297.355,80.37380106317055L307.2668333333334,74.61226056161387L317.1786666666667,69.9085272022676L327.0905,66.25482352805616L337.00233333333335,63.64724100005152L346.9141666666667,61.25194338476481L356.826,58.35983320768407L366.73783333333336,56.624570258824185L376.6496666666667,55.16803654892922L386.5615,53.46336294504019L396.47333333333336,50.77830845734767L406.3851666666667,49.58265302188844L416.297,48.65719989886056L426.20883333333336,47.27117438820142L436.12066666666664,47.478372744938525L446.0325,46.97925497560932L455.9443333333334,45.64097071778903L465.8561666666667,44.42262334720469L475.76800000000003,43.898931805904915L485.67983333333336,43.58471688237624L495.5916666666667,42.77275115901557L505.50350000000003,43.53244526439546L515.4153333333334,42.32601136657997L525.3271666666667,42.017527850532964L535.239,41.20974404324967L545.1508333333334,41.14045058116905L555.0626666666667,40.06006091285291L564.9745,39.827203934077176L574.8863333333334,38.85599303124876L584.7981666666667,38.481326436265675L594.71,38.048466532581216L604.6218333333334,37.99681053707205L614.5336666666668,37.550440117608L624.4455,37.4899347413894L634.3573333333334,37.246314640205334L644.2691666666667,36.89208263279476L654.181,37.094920250502824L664.0928333333334,37.00930594566854L674.0046666666667,36.74987741607406L683.9165,36.59422029831667L693.8283333333334,36.293509152204486L703.7401666666667,36.113082464534436L713.652,36.00482645193654L723.5638333333333,35.93987284437572L733.4756666666667,35.900900679841314L743.3875,35.87751738111718L753.2993333333334,35.86348740188134L763.2111666666668,35.85506941434814L773.123,35.85001862182269L783.0348333333334,35.846988146306L792.9466666666667,35.845169860998794L802.8585,35.63601894311848L812.7703333333334,35.51052839238751L822.6821666666667,35.435234061952436L832.594,35.390057463689296L842.5058333333334,35.36295150473485L852.4176666666667,35.3466879293622L862.3295,35.336929784134455L872.2413333333333,35.331074896999176L882.1531666666667,35.32756196471943L892.065,35.325454205348784L901.9768333333334,35.324189549730555L911.8886666666668,35.32343075635825L921.8005,35.322975480330705L931.7123333333334,35.32270231471692L941.6241666666667,35.322538415351445L951.5360000000001,35.322440075728004L961.4478333333334,35.322381071955306L971.3596666666667,35.32234566968896L981.2715000000001,35.32232442833328L991.1833333333334,35.32231168352125L1001.0951666666667,35.322304036628516L1011.0070000000001,35.32229944849286L1020.9188333333333,35.322296695617L1030.8306666666667,35.322295043885966L1040.7425,35.32229405285148L1050.6543333333334,35.3222934582308L1060.5661666666667,35.32229310145698L1070.478,35.322292887395484L1080.3898333333334,35.322292758953054L1090.3016666666667,35.32229268188759" style="fill: none;" fill="none"></path></g><g><path stroke="rgb(0, 119, 187)" stroke-width="2px" d="M128.85383333333334,397.6612298277768L138.76566666666668,366.73518597583023L148.6775,334.7401291626416L158.58933333333334,325.0591080554623L168.50116666666668,295.1788348354266L178.413,277.79514813663275L188.32483333333334,270.0728392950119L198.23666666666668,271.7603624240346L208.1485,266.51074549270044L218.06033333333332,255.87637392242624L227.9721666666667,248.2628254032326L237.88400000000001,249.93883505145112L247.79583333333335,247.20196307146L257.7076666666667,240.572505397142L267.6195,239.0901972055618L277.53133333333335,238.2009728862949L287.4431666666667,238.913702501645L297.355,229.36818875299704L307.2668333333334,229.87412214757725L317.1786666666667,235.1644917979899L327.0905,232.10499517646412L337.00233333333335,238.9967257136255L346.9141666666667,231.91133553948418L356.826,228.906989991805L366.73783333333336,224.61063631538983L376.6496666666667,229.51332967248385L386.5615,233.7010746854905L396.47333333333336,223.74721178647442L406.3851666666667,225.25465153128047L416.297,236.13261820306803L426.20883333333336,235.179642211172L436.12066666666664,230.867978996147L446.0325,220.80048286263838L455.9443333333334,223.4866140047297L465.8561666666667,227.59203976307737L475.76800000000003,222.5755400903385L485.67983333333336,209.59213811727824L495.5916666666667,211.77559912440148L505.50350000000003,220.56543081652762L515.4153333333334,218.3595747399733L525.3271666666667,220.77593863765776L535.239,212.25225481497813L545.1508333333334,210.87792206456797L555.0626666666667,216.28694703205753L564.9745,222.0253660165865L574.8863333333334,215.49491524782465L584.7981666666667,206.5906367782775L594.71,213.7145758599967L604.6218333333334,213.00218822941974L614.5336666666668,210.08100857566507L624.4455,205.83529677924824L634.3573333333334,210.76762478513746L644.2691666666667,212.48089112220427L654.181,211.0151038490414L664.0928333333334,201.40900286372363L674.0046666666667,205.61884443165658L683.9165,210.63775337657484L693.8283333333334,207.41621719750455L703.7401666666667,206.72942595652012L713.652,210.05797182503318L723.5638333333333,209.56135227074154L733.4756666666667,210.510254075859L743.3875,206.09284407937565L753.2993333333334,205.93540208564346L763.2111666666668,198.36118180568903L773.123,200.05027425497167L783.0348333333334,199.81685618684534L792.9466666666667,204.66355642552685L802.8585,213.8044581147563L812.7703333333334,216.79599512413338L822.6821666666667,216.09791332559698L832.594,215.67906424648066L842.5058333333334,214.18088126130803L852.4176666666667,207.0483468529429L862.3295,202.76882620792662L872.2413333333333,208.9277424423355L882.1531666666667,208.88321464111945L892.065,210.10337149808785L901.9768333333334,215.8222166918296L911.8886666666668,211.7730256531207L921.8005,215.5771356471527L931.7123333333334,217.8596016435726L941.6241666666667,215.48920369956178L951.5360000000001,209.08021385359805L961.4478333333334,206.48169348371638L971.3596666666667,204.92258126178945L981.2715000000001,206.48011793279395L991.1833333333334,203.67476239353593L1001.0951666666667,199.49854506582193L1011.0070000000001,198.2389451356526L1020.9188333333333,203.71680979481258L1030.8306666666667,205.75665505260574L1040.7425,201.99381112772218L1050.6543333333334,199.7361047727942L1060.5661666666667,197.13535049337204L1070.478,196.82102839218268L1080.3898333333334,196.63243513146773L1090.3016666666667,196.5192791750408" style="fill: none;" fill="none"></path></g></g></g></g><g opacity="0.2"><g><g><g><path stroke="rgb(204, 51, 17)" stroke-width="2px" d="M128.85383333333334,393.21883908907563L138.76566666666668,317.89928070704065L148.6775,263.35785182316977L158.58933333333334,239.46439615885274L168.50116666666668,207.25783101717462L178.413,179.7270416418692L188.32483333333334,159.989211877185L198.23666666666668,151.15781021117948L208.1485,142.32826622326942L218.06033333333332,126.22591249147811L227.9721666666667,113.2388849258398L237.88400000000001,102.85074901580553L247.79583333333335,98.69512311617274L257.7076666666667,90.90216350555154L267.6195,85.18980336188996L277.53133333333335,80.51402759551728L287.4431666666667,78.4352858066531L297.355,72.72292566299156L307.2668333333334,65.97026578585017L317.1786666666667,62.85308194160171L327.0905,60.77434015273757L337.00233333333335,59.73589809735324L346.9141666666667,57.659013986584576L356.826,54.02168027559619L366.73783333333336,54.02168027559619L376.6496666666667,52.98323822021185L386.5615,50.90635410944319L396.47333333333336,46.75072820981039L406.3851666666667,47.78917026519472L416.297,47.2690203984548L426.20883333333336,45.19213628768614L436.12066666666664,47.78917026519472L446.0325,46.23057834307047L455.9443333333334,43.633544365561924L465.8561666666667,42.595102310177595L475.76800000000003,43.113394498822004L485.67983333333336,43.113394498822004L495.5916666666667,41.554802576697746L505.50350000000003,44.671986420946254L515.4153333333334,40.516360521313416L525.3271666666667,41.554802576697746L535.239,39.99806833266901L545.1508333333334,41.03651038805334L555.0626666666667,38.43947641054479L564.9745,39.47791846592912L574.8863333333334,37.39917667706494L584.7981666666667,37.91932654380487L594.71,37.39917667706494L604.6218333333334,37.91932654380487L614.5336666666668,36.880884488420534L624.4455,37.39917667706494L634.3573333333334,36.880884488420534L644.2691666666667,36.36073462168061L654.181,37.39917667706494L664.0928333333334,36.880884488420534L674.0046666666667,36.36073462168061L683.9165,36.36073462168061L693.8283333333334,35.842442433036204L703.7401666666667,35.842442433036204L713.652,35.842442433036204L723.5638333333333,35.842442433036204L733.4756666666667,35.842442433036204L743.3875,35.842442433036204L753.2993333333334,35.842442433036204L763.2111666666668,35.842442433036204L773.123,35.842442433036204L783.0348333333334,35.842442433036204L792.9466666666667,35.842442433036204L802.8585,35.322292566296284L812.7703333333334,35.322292566296284L822.6821666666667,35.322292566296284L832.594,35.322292566296284L842.5058333333334,35.322292566296284L852.4176666666667,35.322292566296284L862.3295,35.322292566296284L872.2413333333333,35.322292566296284L882.1531666666667,35.322292566296284L892.065,35.322292566296284L901.9768333333334,35.322292566296284L911.8886666666668,35.322292566296284L921.8005,35.322292566296284L931.7123333333334,35.322292566296284L941.6241666666667,35.322292566296284L951.5360000000001,35.322292566296284L961.4478333333334,35.322292566296284L971.3596666666667,35.322292566296284L981.2715000000001,35.322292566296284L991.1833333333334,35.322292566296284L1001.0951666666667,35.322292566296284L1011.0070000000001,35.322292566296284L1020.9188333333333,35.322292566296284L1030.8306666666667,35.322292566296284L1040.7425,35.322292566296284L1050.6543333333334,35.322292566296284L1060.5661666666667,35.322292566296284L1070.478,35.322292566296284L1080.3898333333334,35.322292566296284L1090.3016666666667,35.322292566296284" style="fill: none;" fill="none"></path></g><g><path stroke="rgb(0, 119, 187)" stroke-width="2px" d="M109.03016666666666,601.5165685812648L118.94200000000001,345.950219949086L128.85383333333334,355.29991380373593L138.76566666666668,330.366158405939L148.6775,292.9673829873393L158.58933333333334,311.66677069663916L168.50116666666668,252.44956604639557L178.413,252.44956604639557L188.32483333333334,258.68393373489255L198.23666666666668,274.26613759994393L208.1485,258.68393373489255L218.06033333333332,239.98268834749715L227.9721666666667,236.8673621813442L237.88400000000001,252.44956604639557L247.79583333333335,243.09987219174565L257.7076666666667,230.63299449284722L267.6195,236.8673621813442L277.53133333333335,236.8673621813442L287.4431666666667,239.98268834749715L297.355,215.0507906277958L307.2668333333334,230.63299449284722L317.1786666666667,243.09987219174565L327.0905,227.51581064859874L337.00233333333335,249.3342398802426L346.9141666666667,221.28330063819726L356.826,224.40048448244573L366.73783333333336,218.16611679394876L376.6496666666667,236.8673621813442L386.5615,239.98268834749715L396.47333333333336,208.8164229392989L406.3851666666667,227.51581064859874L416.297,252.44956604639557L426.20883333333336,233.75017833709566L436.12066666666664,224.40048448244573L446.0325,205.69923909505036L455.9443333333334,227.51581064859874L465.8561666666667,233.75017833709566L475.76800000000003,215.0507906277958L485.67983333333336,190.11703522999898L495.5916666666667,215.0507906277958L505.50350000000003,233.75017833709566L515.4153333333334,215.0507906277958L525.3271666666667,224.40048448244573L535.239,199.4667290846489L545.1508333333334,208.8164229392989L555.0626666666667,224.40048448244573L564.9745,230.63299449284722L574.8863333333334,205.69923909505036L584.7981666666667,193.23421907424745L594.71,224.40048448244573L604.6218333333334,211.9336067835473L614.5336666666668,205.69923909505036L624.4455,199.4667290846489L634.3573333333334,218.16611679394876L644.2691666666667,215.0507906277958L654.181,208.8164229392989L664.0928333333334,186.9998513857505L674.0046666666667,211.9336067835473L683.9165,218.16611679394876L693.8283333333334,202.5839129288974L703.7401666666667,205.69923909505036L713.652,215.0507906277958L723.5638333333333,208.8164229392989L733.4756666666667,211.9336067835473L743.3875,199.4667290846489L753.2993333333334,205.69923909505036L763.2111666666668,186.9998513857505L773.123,202.5839129288974L783.0348333333334,199.4667290846489L792.9466666666667,211.9336067835473L802.8585,227.51581064859874L812.7703333333334,221.28330063819726L822.6821666666667,215.0507906277958L832.594,215.0507906277958L842.5058333333334,211.9336067835473L852.4176666666667,196.34954524040043L862.3295,196.34954524040043L872.2413333333333,218.16611679394876L882.1531666666667,208.8164229392989L892.065,211.9336067835473L901.9768333333334,224.40048448244573L911.8886666666668,205.69923909505036L921.8005,221.28330063819726L931.7123333333334,221.28330063819726L941.6241666666667,211.9336067835473L951.5360000000001,199.4667290846489L961.4478333333334,202.5839129288974L971.3596666666667,202.5839129288974L981.2715000000001,208.8164229392989L991.1833333333334,199.4667290846489L1001.0951666666667,193.23421907424745L1011.0070000000001,196.34954524040043L1020.9188333333333,211.9336067835473L1030.8306666666667,208.8164229392989L1040.7425,196.34954524040043L1050.6543333333334,196.34954524040043L1060.5661666666667,193.23421907424745L1070.478,196.34954524040043L1080.3898333333334,196.34954524040043L1090.3016666666667,196.34954524040043" style="fill: none;" fill="none"></path></g></g></g></g></g></g><g transform="translate(56, 374)" clip-path="url(#clip_1)"><clipPath id="clip_1"><rect width="1189" height="26"></rect></clipPath><g><g><line x1="0" y1="0" x2="0" y2="5" style="visibility: inherit;" fill="rgb(0, 0, 0)" stroke="rgb(204, 204, 204)" stroke-width="1px"></line><line x1="99.11833333333334" y1="0" x2="99.11833333333334" y2="5" style="visibility: inherit;" fill="rgb(0, 0, 0)" stroke="rgb(204, 204, 204)" stroke-width="1px"></line><line x1="198.23666666666668" y1="0" x2="198.23666666666668" y2="5" style="visibility: inherit;" fill="rgb(0, 0, 0)" stroke="rgb(204, 204, 204)" stroke-width="1px"></line><line x1="297.355" y1="0" x2="297.355" y2="5" style="visibility: inherit;" fill="rgb(0, 0, 0)" stroke="rgb(204, 204, 204)" stroke-width="1px"></line><line x1="396.47333333333336" y1="0" x2="396.47333333333336" y2="5" style="visibility: inherit;" fill="rgb(0, 0, 0)" stroke="rgb(204, 204, 204)" stroke-width="1px"></line><line x1="495.5916666666667" y1="0" x2="495.5916666666667" y2="5" style="visibility: inherit;" fill="rgb(0, 0, 0)" stroke="rgb(204, 204, 204)" stroke-width="1px"></line><line x1="594.71" y1="0" x2="594.71" y2="5" style="visibility: inherit;" fill="rgb(0, 0, 0)" stroke="rgb(204, 204, 204)" stroke-width="1px"></line><line x1="693.8283333333334" y1="0" x2="693.8283333333334" y2="5" style="visibility: inherit;" fill="rgb(0, 0, 0)" stroke="rgb(204, 204, 204)" stroke-width="1px"></line><line x1="792.9466666666667" y1="0" x2="792.9466666666667" y2="5" style="visibility: inherit;" fill="rgb(0, 0, 0)" stroke="rgb(204, 204, 204)" stroke-width="1px"></line><line x1="892.065" y1="0" x2="892.065" y2="5" style="visibility: inherit;" fill="rgb(0, 0, 0)" stroke="rgb(204, 204, 204)" stroke-width="1px"></line><line x1="991.1833333333334" y1="0" x2="991.1833333333334" y2="5" style="visibility: inherit;" fill="rgb(0, 0, 0)" stroke="rgb(204, 204, 204)" stroke-width="1px"></line><line x1="1090.3016666666667" y1="0" x2="1090.3016666666667" y2="5" style="visibility: inherit;" fill="rgb(0, 0, 0)" stroke="rgb(204, 204, 204)" stroke-width="1px"></line><line x1="1189.42" y1="0" x2="1189.42" y2="5" style="visibility: inherit;" fill="rgb(0, 0, 0)" stroke="rgb(204, 204, 204)" stroke-width="1px"></line></g><g transform="translate(0, 8)"><text x="0" y="0" dx="0em" dy="0.95em" style="text-anchor: middle; visibility: hidden; font-family: Roboto, sans-serif; font-size: 12px; font-weight: 200;" fill="rgb(255, 255, 255)" stroke="none" stroke-width="1px">-10</text><text x="99.11833333333334" y="0" dx="0em" dy="0.95em" style="text-anchor: middle; visibility: inherit; font-family: Roboto, sans-serif; font-size: 12px; font-weight: 200;" fill="rgb(255, 255, 255)" stroke="none" stroke-width="1px">0</text><text x="198.23666666666668" y="0" dx="0em" dy="0.95em" style="text-anchor: middle; visibility: inherit; font-family: Roboto, sans-serif; font-size: 12px; font-weight: 200;" fill="rgb(255, 255, 255)" stroke="none" stroke-width="1px">10</text><text x="297.355" y="0" dx="0em" dy="0.95em" style="text-anchor: middle; visibility: inherit; font-family: Roboto, sans-serif; font-size: 12px; font-weight: 200;" fill="rgb(255, 255, 255)" stroke="none" stroke-width="1px">20</text><text x="396.47333333333336" y="0" dx="0em" dy="0.95em" style="text-anchor: middle; visibility: inherit; font-family: Roboto, sans-serif; font-size: 12px; font-weight: 200;" fill="rgb(255, 255, 255)" stroke="none" stroke-width="1px">30</text><text x="495.5916666666667" y="0" dx="0em" dy="0.95em" style="text-anchor: middle; visibility: inherit; font-family: Roboto, sans-serif; font-size: 12px; font-weight: 200;" fill="rgb(255, 255, 255)" stroke="none" stroke-width="1px">40</text><text x="594.71" y="0" dx="0em" dy="0.95em" style="text-anchor: middle; visibility: inherit; font-family: Roboto, sans-serif; font-size: 12px; font-weight: 200;" fill="rgb(255, 255, 255)" stroke="none" stroke-width="1px">50</text><text x="693.8283333333334" y="0" dx="0em" dy="0.95em" style="text-anchor: middle; visibility: inherit; font-family: Roboto, sans-serif; font-size: 12px; font-weight: 200;" fill="rgb(255, 255, 255)" stroke="none" stroke-width="1px">60</text><text x="792.9466666666667" y="0" dx="0em" dy="0.95em" style="text-anchor: middle; visibility: inherit; font-family: Roboto, sans-serif; font-size: 12px; font-weight: 200;" fill="rgb(255, 255, 255)" stroke="none" stroke-width="1px">70</text><text x="892.065" y="0" dx="0em" dy="0.95em" style="text-anchor: middle; visibility: inherit; font-family: Roboto, sans-serif; font-size: 12px; font-weight: 200;" fill="rgb(255, 255, 255)" stroke="none" stroke-width="1px">80</text><text x="991.1833333333334" y="0" dx="0em" dy="0.95em" style="text-anchor: middle; visibility: inherit; font-family: Roboto, sans-serif; font-size: 12px; font-weight: 200;" fill="rgb(255, 255, 255)" stroke="none" stroke-width="1px">90</text><text x="1090.3016666666667" y="0" dx="0em" dy="0.95em" style="text-anchor: middle; visibility: inherit; font-family: Roboto, sans-serif; font-size: 12px; font-weight: 200;" fill="rgb(255, 255, 255)" stroke="none" stroke-width="1px">100</text><text x="1189.42" y="0" dx="0em" dy="0.95em" style="text-anchor: middle; visibility: hidden; font-family: Roboto, sans-serif; font-size: 12px; font-weight: 200;" fill="rgb(255, 255, 255)" stroke="none" stroke-width="1px">110</text></g><line x1="0" y1="0" x2="1189.42" y2="0" fill="rgb(0, 0, 0)" stroke="rgb(204, 204, 204)" stroke-width="1px"></line></g></g></g></g></svg>