<svg viewBox="0 0 330 200" xmlns="http://www.w3.org/2000/svg"><g><g><g><g><g><line x1="56.25" y1="162.14979193595735" x2="51.25" y2="162.14979193595735" style="visibility: inherit;" fill="rgb(0, 0, 0)" stroke="rgb(204, 204, 204)" stroke-width="1px"></line><line x1="56.25" y1="144.12836336452884" x2="51.25" y2="144.12836336452884" style="visibility: inherit;" fill="rgb(0, 0, 0)" stroke="rgb(204, 204, 204)" stroke-width="1px"></line><line x1="56.25" y1="126.10693479310031" x2="51.25" y2="126.10693479310031" style="visibility: inherit;" fill="rgb(0, 0, 0)" stroke="rgb(204, 204, 204)" stroke-width="1px"></line><line x1="56.25" y1="108.08550622167178" x2="51.25" y2="108.08550622167178" style="visibility: inherit;" fill="rgb(0, 0, 0)" stroke="rgb(204, 204, 204)" stroke-width="1px"></line><line x1="56.25" y1="90.06407765024325" x2="51.25" y2="90.06407765024325" style="visibility: inherit;" fill="rgb(0, 0, 0)" stroke="rgb(204, 204, 204)" stroke-width="1px"></line><line x1="56.25" y1="72.04264907881472" x2="51.25" y2="72.04264907881472" style="visibility: inherit;" fill="rgb(0, 0, 0)" stroke="rgb(204, 204, 204)" stroke-width="1px"></line><line x1="56.25" y1="54.0212205073862" x2="51.25" y2="54.0212205073862" style="visibility: inherit;" fill="rgb(0, 0, 0)" stroke="rgb(204, 204, 204)" stroke-width="1px"></line><line x1="56.25" y1="35.99979193595769" x2="51.25" y2="35.99979193595769" style="visibility: inherit;" fill="rgb(0, 0, 0)" stroke="rgb(204, 204, 204)" stroke-width="1px"></line><line x1="56.25" y1="17.978363364529145" x2="51.25" y2="17.978363364529145" style="visibility: inherit;" fill="rgb(0, 0, 0)" stroke="rgb(204, 204, 204)" stroke-width="1px"></line></g><g transform="translate(46.25, 0)"><text x="0" y="162.14979193595735" dx="0em" dy="0.3em" style="text-anchor: end; visibility: inherit; font-family: Roboto, sans-serif; font-size: 12px; font-weight: 200;" fill="rgb(255, 255, 255)" stroke="none" stroke-width="1px">-0.02</text><text x="0" y="144.12836336452884" dx="0em" dy="0.3em" style="text-anchor: end; visibility: hidden; font-family: Roboto, sans-serif; font-size: 12px; font-weight: 200;" fill="rgb(255, 255, 255)" stroke="none" stroke-width="1px">0</text><text x="0" y="126.10693479310031" dx="0em" dy="0.3em" style="text-anchor: end; visibility: inherit; font-family: Roboto, sans-serif; font-size: 12px; font-weight: 200;" fill="rgb(255, 255, 255)" stroke="none" stroke-width="1px">0.02</text><text x="0" y="108.08550622167178" dx="0em" dy="0.3em" style="text-anchor: end; visibility: hidden; font-family: Roboto, sans-serif; font-size: 12px; font-weight: 200;" fill="rgb(255, 255, 255)" stroke="none" stroke-width="1px">0.04</text><text x="0" y="90.06407765024325" dx="0em" dy="0.3em" style="text-anchor: end; visibility: inherit; font-family: Roboto, sans-serif; font-size: 12px; font-weight: 200;" fill="rgb(255, 255, 255)" stroke="none" stroke-width="1px">0.06</text><text x="0" y="72.04264907881472" dx="0em" dy="0.3em" style="text-anchor: end; visibility: hidden; font-family: Roboto, sans-serif; font-size: 12px; font-weight: 200;" fill="rgb(255, 255, 255)" stroke="none" stroke-width="1px">0.08</text><text x="0" y="54.0212205073862" dx="0em" dy="0.3em" style="text-anchor: end; visibility: inherit; font-family: Roboto, sans-serif; font-size: 12px; font-weight: 200;" fill="rgb(255, 255, 255)" stroke="none" stroke-width="1px">0.1</text><text x="0" y="35.99979193595769" dx="0em" dy="0.3em" style="text-anchor: end; visibility: hidden; font-family: Roboto, sans-serif; font-size: 12px; font-weight: 200;" fill="rgb(255, 255, 255)" stroke="none" stroke-width="1px">0.12</text><text x="0" y="17.978363364529145" dx="0em" dy="0.3em" style="text-anchor: end; visibility: inherit; font-family: Roboto, sans-serif; font-size: 12px; font-weight: 200;" fill="rgb(255, 255, 255)" stroke="none" stroke-width="1px">0.14</text></g><line x1="56.25" y1="0" x2="56.25" y2="174" fill="rgb(0, 0, 0)" stroke="rgb(204, 204, 204)" stroke-width="1px"></line></g></g><g transform="translate(56, 0)" clip-path="url(#clip_0)"><clipPath id="clip_0"><rect width="273" height="174"></rect></clipPath><g><g><g><line x1="3.286787362745107" y1="0" x2="3.286787362745107" y2="174" fill="rgb(0, 0, 0)" stroke="rgb(189, 189, 189)" stroke-width="1px" opacity="0.25"></line><line x1="25.275948894435327" y1="0" x2="25.275948894435327" y2="174" fill="rgb(0, 0, 0)" stroke="rgb(189, 189, 189)" stroke-width="1px" opacity="0.25"></line><line x1="47.265110426125545" y1="0" x2="47.265110426125545" y2="174" fill="rgb(0, 0, 0)" stroke="rgb(189, 189, 189)" stroke-width="1px" opacity="0.25"></line><line x1="69.25427195781576" y1="0" x2="69.25427195781576" y2="174" fill="rgb(0, 0, 0)" stroke="rgb(189, 189, 189)" stroke-width="1px" opacity="0.25"></line><line x1="91.24343348950597" y1="0" x2="91.24343348950597" y2="174" fill="rgb(0, 0, 0)" stroke="rgb(189, 189, 189)" stroke-width="1px" opacity="0.25"></line><line x1="113.2325950211962" y1="0" x2="113.2325950211962" y2="174" fill="rgb(0, 0, 0)" stroke="rgb(189, 189, 189)" stroke-width="1px" opacity="0.25"></line><line x1="135.22175655288643" y1="0" x2="135.22175655288643" y2="174" fill="rgb(0, 0, 0)" stroke="rgb(189, 189, 189)" stroke-width="1px" opacity="0.25"></line><line x1="157.21091808457663" y1="0" x2="157.21091808457663" y2="174" fill="rgb(0, 0, 0)" stroke="rgb(189, 189, 189)" stroke-width="1px" opacity="0.25"></line><line x1="179.20007961626686" y1="0" x2="179.20007961626686" y2="174" fill="rgb(0, 0, 0)" stroke="rgb(189, 189, 189)" stroke-width="1px" opacity="0.25"></line><line x1="201.1892411479571" y1="0" x2="201.1892411479571" y2="174" fill="rgb(0, 0, 0)" stroke="rgb(189, 189, 189)" stroke-width="1px" opacity="0.25"></line><line x1="223.17840267964732" y1="0" x2="223.17840267964732" y2="174" fill="rgb(0, 0, 0)" stroke="rgb(189, 189, 189)" stroke-width="1px" opacity="0.25"></line><line x1="245.16756421133752" y1="0" x2="245.16756421133752" y2="174" fill="rgb(0, 0, 0)" stroke="rgb(189, 189, 189)" stroke-width="1px" opacity="0.25"></line><line x1="267.1567257430278" y1="0" x2="267.1567257430278" y2="174" fill="rgb(0, 0, 0)" stroke="rgb(189, 189, 189)" stroke-width="1px" opacity="0.25"></line></g><g><line x1="0" y1="162.14979193595735" x2="273.75" y2="162.14979193595735" fill="rgb(0, 0, 0)" stroke="rgb(189, 189, 189)" stroke-width="1px" opacity="0.25"></line><line x1="0" y1="144.12836336452884" x2="273.75" y2="144.12836336452884" fill="rgb(0, 0, 0)" stroke="rgb(189, 189, 189)" stroke-width="1px" opacity="0.25"></line><line x1="0" y1="126.10693479310031" x2="273.75" y2="126.10693479310031" fill="rgb(0, 0, 0)" stroke="rgb(189, 189, 189)" stroke-width="1px" opacity="0.25"></line><line x1="0" y1="108.08550622167178" x2="273.75" y2="108.08550622167178" fill="rgb(0, 0, 0)" stroke="rgb(189, 189, 189)" stroke-width="1px" opacity="0.25"></line><line x1="0" y1="90.06407765024325" x2="273.75" y2="90.06407765024325" fill="rgb(0, 0, 0)" stroke="rgb(189, 189, 189)" stroke-width="1px" opacity="0.25"></line><line x1="0" y1="72.04264907881472" x2="273.75" y2="72.04264907881472" fill="rgb(0, 0, 0)" stroke="rgb(189, 189, 189)" stroke-width="1px" opacity="0.25"></line><line x1="0" y1="54.0212205073862" x2="273.75" y2="54.0212205073862" fill="rgb(0, 0, 0)" stroke="rgb(189, 189, 189)" stroke-width="1px" opacity="0.25"></line><line x1="0" y1="35.99979193595769" x2="273.75" y2="35.99979193595769" fill="rgb(0, 0, 0)" stroke="rgb(189, 189, 189)" stroke-width="1px" opacity="0.25"></line><line x1="0" y1="17.978363364529145" x2="273.75" y2="17.978363364529145" fill="rgb(0, 0, 0)" stroke="rgb(189, 189, 189)" stroke-width="1px" opacity="0.25"></line></g></g></g><g><g><line x1="0" y1="144.12836336452884" x2="273.75" y2="144.12836336452884" fill="rgb(0, 0, 0)" stroke="rgb(153, 153, 153)" stroke-width="1.5px"></line></g></g><g><g><line x1="69.25427195781576" y1="0" x2="69.25427195781576" y2="174" fill="rgb(0, 0, 0)" stroke="rgb(153, 153, 153)" stroke-width="1.5px"></line></g></g><g><g><g><g><g><path stroke="rgb(51, 187, 238)" stroke-width="2px" d="M70.35373003440027,12.285082072039572L71.45318811098478,68.70154554146066L72.5526461875693,92.21886127664035L73.6521042641538,105.3382188766383L74.75156234073832,113.82507083384593L75.85102041732283,119.5157288842071L76.95047849390734,123.53524212120651L78.04993657049185,126.63681624217946L79.14939464707636,129.03632115371087L80.24885272366087,130.84906309038738L81.34831080024537,132.4324875813807L82.44776887682988,133.73465443703694L83.5472269534144,134.98872131907726L84.6466850299989,135.98780085023228L85.74614310658342,136.68711386129664L86.84560118316793,137.33783132286072L87.94505925975244,137.9624626314307L89.04451733633695,138.44110785008462L90.14397541292146,138.9721687976361L91.24343348950597,139.37068248477922L92.3428915660905,139.79961124128175L93.44234964267501,140.09600940522535L94.54180771925952,140.42702923482892L95.64126579584403,140.64606380172106L96.74072387242855,140.92946506232929L97.84018194901306,141.18060190001776L98.93964002559757,141.37693804488578L100.03909810218208,141.50735462308452L101.13855617876659,141.68352094573848L102.23801425535109,141.83247221350314L103.3374723319356,141.93325650104654L104.43693040852011,142.12708565549104L105.53638848510462,142.32628171551167L106.63584656168914,142.33106289309242L107.73530463827365,142.3988087340193L108.83476271485816,142.52295554480574L109.93422079144267,142.69896433515856L111.03367886802718,142.7607174953895L112.13313694461169,142.72928794471886L113.2325950211962,142.8834359454875L114.33205309778072,142.929669743233L115.43151117436523,143.00006071126467L116.53096925094974,143.0741331678597L117.63042732753425,143.1083645190891L118.72988540411876,143.20158973842703L119.82934348070327,143.2419062985515L120.92880155728778,143.28471838640914L122.02825963387228,143.34945207829116L123.12771771045679,143.4189287244954L124.2271757870413,143.46301755968386L125.32663386362582,143.50569014413446L126.42609194021033,143.54811371098876L127.52555001679484,143.58077641448037L128.62500809337936,143.616593319913L129.72446616996388,143.6543027465103L130.8239242465484,143.64509054765983L131.9233823231329,143.67380394111467L133.0228403997174,143.7048484130588L134.12229847630192,143.7012486627519L135.22175655288643,143.70029024679084L136.32121462947094,143.73035162828975L137.42067270605543,143.74057917145356L138.52013078263994,143.7665392623791L139.61958885922445,143.7658960335967L140.71904693580896,143.7841322376213L141.8185050123935,143.79807752985897L142.917963088978,143.8160561370268L144.01742116556252,143.82323901963798L145.11687924214704,143.8353580349402L146.21633731873155,143.83842444007556L147.31579539531606,143.85888643494064L148.41525347190057,143.86035076581135L149.51471154848508,143.8696393724258L150.6141696250696,143.87581324826107L151.7136277016541,143.87831613953915L152.81308577823862,143.88462359021864L153.9125438548231,143.89201235280572L155.0120019314076,143.89704632222458L156.11146000799212,143.89586169982988L157.21091808457663,143.9041616463517L158.31037616116114,143.90433589835217L159.40983423774566,143.91345116426615L160.50929231433017,143.91651746585822L161.60875039091468,143.91595438885716L162.7082084674992,143.92102297043576L163.8076665440837,143.9240641193829L164.9071246206682,143.92408666790644L166.00658269725272,143.92590233786532L167.10604077383724,143.9257903108625L168.20549885042175,143.92932738159527L169.30495692700626,143.92964748319017L170.40441500359077,143.9304402560137L171.50387308017528,143.932117348686L172.6033311567598,143.9331236042894L173.7027892333443,143.93252592867324L174.80224730992882,143.93336875228172L175.90170538651333,143.93267301746863L177.00116346309784,143.93345700555895L178.10062153968235,143.93452811552467L179.20007961626686,143.93517078150413" style="fill: none;" fill="none"></path></g></g></g></g><g opacity="0.2"><g><g><g><path stroke="rgb(51, 187, 238)" stroke-width="2px" d="M70.35373003440027,12.285082072039572L71.45318811098478,102.55142362311331L72.5526461875693,114.79548438241285L73.6521042641538,120.76658341423584L74.75156234073832,124.90550474917625L75.85102041732283,127.38795760475475L76.95047849390734,129.28321036232742L78.04993657049185,131.15894108566962L79.14939464707636,132.57512481838572L80.24885272366087,133.54077360215572L81.34831080024537,134.79326277427748L82.44776887682988,135.68081838599645L83.5472269534144,136.86572689618222L84.6466850299989,137.48446284615673L85.74614310658342,137.7352613616998L86.84560118316793,138.31344857883747L87.94505925975244,138.89914527124964L89.04451733633695,139.15895415009638L90.14397541292146,139.76867931717314L91.24343348950597,139.96841658976433L92.3428915660905,140.44298085256318L93.44234964267501,140.54059689803287L94.54180771925952,140.92355244382523L95.64126579584403,140.97461305738597L96.74072387242855,141.35456493894674L97.84018194901306,141.55730608556658L98.93964002559757,141.6714417598174L100.03909810218208,141.70297929016246L101.13855617876659,141.9477702674453L102.23801425535109,142.05589903282706L103.3374723319356,142.08443289894052L104.43693040852011,142.41782934859233L105.53638848510462,142.62507578176252L106.63584656168914,142.33823465912107L107.73530463827365,142.50042749249812L108.83476271485816,142.7091757577841L109.93422079144267,142.9629775179647L111.03367886802718,142.85334723516274L112.13313694461169,142.68214361888792L113.2325950211962,143.11465794612525L114.33205309778072,142.9990204397586L115.43151117436523,143.1056471632275L116.53096925094974,143.18524185269877L117.63042732753425,143.15971154591838L118.72988540411876,143.34142756740965L119.82934348070327,143.30238113873196L120.92880155728778,143.34893651819158L122.02825963387228,143.44655261611052L123.12771771045679,143.52314369379945L124.2271757870413,143.52915081246562L125.32663386362582,143.56969902080988L126.42609194021033,143.6117490612699L127.52555001679484,143.6297704697176L128.62500809337936,143.67031867806188L129.72446616996388,143.71086688640614L130.8239242465484,143.63127224938415L131.9233823231329,143.71687403129692L133.0228403997174,143.75141512097505L134.12229847630192,143.69584903729154L135.22175655288643,143.69885262284922L136.32121462947094,143.77544370053812L137.42067270605543,143.75592048619927L138.52013078263994,143.8054793987674L139.61958885922445,143.76493119042314L140.71904693580896,143.8114865436582L141.8185050123935,143.8189954682155L142.917963088978,143.84302404777856L144.01742116556252,143.83401334355474L145.11687924214704,143.85353655789362L146.21633731873155,143.84302404777856L147.31579539531606,143.88957942723826L148.41525347190057,143.86254726211743L149.51471154848508,143.88357228234747L150.6141696250696,143.88507406201398L151.7136277016541,143.8820704764563L152.81308577823862,143.89408476623788L153.9125438548231,143.90309549668635L155.0120019314076,143.90459727635286L156.11146000799212,143.89408476623788L157.21091808457663,143.91661156613443L158.31037616116114,143.90459727635286L159.40983423774566,143.92712406313711L160.50929231433017,143.92111691824635L161.60875039091468,143.9151097733556L162.7082084674992,143.92862584280368L163.8076665440837,143.92862584280368L164.9071246206682,143.92412049069173L166.00658269725272,143.92862584280368L167.10604077383724,143.92562227035825L168.20549885042175,143.93463298769444L169.30495692700626,143.93012763558252L170.40441500359077,143.93162941524903L171.50387308017528,143.93463298769444L172.6033311567598,143.93463298769444L173.7027892333443,143.93162941524903L174.80224730992882,143.93463298769444L175.90170538651333,143.93162941524903L177.00116346309784,143.93463298769444L178.10062153968235,143.9361347804733L179.20007961626686,143.9361347804733" style="fill: none;" fill="none"></path></g></g></g></g></g><g><g><circle r="4" cx="179.20007961626686" cy="143.93517078150413" fill="rgb(51, 187, 238)" style="stroke: none;" stroke="none" stroke-width="1px"></circle></g></g></g><g transform="translate(56, 174)" clip-path="url(#clip_1)"><clipPath id="clip_1"><rect width="273" height="26"></rect></clipPath><g><g><line x1="3.286787362745107" y1="0" x2="3.286787362745107" y2="5" style="visibility: inherit;" fill="rgb(0, 0, 0)" stroke="rgb(204, 204, 204)" stroke-width="1px"></line><line x1="25.275948894435327" y1="0" x2="25.275948894435327" y2="5" style="visibility: inherit;" fill="rgb(0, 0, 0)" stroke="rgb(204, 204, 204)" stroke-width="1px"></line><line x1="47.265110426125545" y1="0" x2="47.265110426125545" y2="5" style="visibility: inherit;" fill="rgb(0, 0, 0)" stroke="rgb(204, 204, 204)" stroke-width="1px"></line><line x1="69.25427195781576" y1="0" x2="69.25427195781576" y2="5" style="visibility: inherit;" fill="rgb(0, 0, 0)" stroke="rgb(204, 204, 204)" stroke-width="1px"></line><line x1="91.24343348950597" y1="0" x2="91.24343348950597" y2="5" style="visibility: inherit;" fill="rgb(0, 0, 0)" stroke="rgb(204, 204, 204)" stroke-width="1px"></line><line x1="113.2325950211962" y1="0" x2="113.2325950211962" y2="5" style="visibility: inherit;" fill="rgb(0, 0, 0)" stroke="rgb(204, 204, 204)" stroke-width="1px"></line><line x1="135.22175655288643" y1="0" x2="135.22175655288643" y2="5" style="visibility: inherit;" fill="rgb(0, 0, 0)" stroke="rgb(204, 204, 204)" stroke-width="1px"></line><line x1="157.21091808457663" y1="0" x2="157.21091808457663" y2="5" style="visibility: inherit;" fill="rgb(0, 0, 0)" stroke="rgb(204, 204, 204)" stroke-width="1px"></line><line x1="179.20007961626686" y1="0" x2="179.20007961626686" y2="5" style="visibility: inherit;" fill="rgb(0, 0, 0)" stroke="rgb(204, 204, 204)" stroke-width="1px"></line><line x1="201.1892411479571" y1="0" x2="201.1892411479571" y2="5" style="visibility: inherit;" fill="rgb(0, 0, 0)" stroke="rgb(204, 204, 204)" stroke-width="1px"></line><line x1="223.17840267964732" y1="0" x2="223.17840267964732" y2="5" style="visibility: inherit;" fill="rgb(0, 0, 0)" stroke="rgb(204, 204, 204)" stroke-width="1px"></line><line x1="245.16756421133752" y1="0" x2="245.16756421133752" y2="5" style="visibility: inherit;" fill="rgb(0, 0, 0)" stroke="rgb(204, 204, 204)" stroke-width="1px"></line><line x1="267.1567257430278" y1="0" x2="267.1567257430278" y2="5" style="visibility: inherit;" fill="rgb(0, 0, 0)" stroke="rgb(204, 204, 204)" stroke-width="1px"></line></g><g transform="translate(0, 8)"><text x="3.286787362745107" y="0" dx="0em" dy="0.95em" style="text-anchor: middle; visibility: hidden; font-family: Roboto, sans-serif; font-size: 12px; font-weight: 200;" fill="rgb(255, 255, 255)" stroke="none" stroke-width="1px">-60</text><text x="25.275948894435327" y="0" dx="0em" dy="0.95em" style="text-anchor: middle; visibility: inherit; font-family: Roboto, sans-serif; font-size: 12px; font-weight: 200;" fill="rgb(255, 255, 255)" stroke="none" stroke-width="1px">-40</text><text x="47.265110426125545" y="0" dx="0em" dy="0.95em" style="text-anchor: middle; visibility: hidden; font-family: Roboto, sans-serif; font-size: 12px; font-weight: 200;" fill="rgb(255, 255, 255)" stroke="none" stroke-width="1px">-20</text><text x="69.25427195781576" y="0" dx="0em" dy="0.95em" style="text-anchor: middle; visibility: inherit; font-family: Roboto, sans-serif; font-size: 12px; font-weight: 200;" fill="rgb(255, 255, 255)" stroke="none" stroke-width="1px">0</text><text x="91.24343348950597" y="0" dx="0em" dy="0.95em" style="text-anchor: middle; visibility: hidden; font-family: Roboto, sans-serif; font-size: 12px; font-weight: 200;" fill="rgb(255, 255, 255)" stroke="none" stroke-width="1px">20</text><text x="113.2325950211962" y="0" dx="0em" dy="0.95em" style="text-anchor: middle; visibility: inherit; font-family: Roboto, sans-serif; font-size: 12px; font-weight: 200;" fill="rgb(255, 255, 255)" stroke="none" stroke-width="1px">40</text><text x="135.22175655288643" y="0" dx="0em" dy="0.95em" style="text-anchor: middle; visibility: hidden; font-family: Roboto, sans-serif; font-size: 12px; font-weight: 200;" fill="rgb(255, 255, 255)" stroke="none" stroke-width="1px">60</text><text x="157.21091808457663" y="0" dx="0em" dy="0.95em" style="text-anchor: middle; visibility: inherit; font-family: Roboto, sans-serif; font-size: 12px; font-weight: 200;" fill="rgb(255, 255, 255)" stroke="none" stroke-width="1px">80</text><text x="179.20007961626686" y="0" dx="0em" dy="0.95em" style="text-anchor: middle; visibility: hidden; font-family: Roboto, sans-serif; font-size: 12px; font-weight: 200;" fill="rgb(255, 255, 255)" stroke="none" stroke-width="1px">100</text><text x="201.1892411479571" y="0" dx="0em" dy="0.95em" style="text-anchor: middle; visibility: inherit; font-family: Roboto, sans-serif; font-size: 12px; font-weight: 200;" fill="rgb(255, 255, 255)" stroke="none" stroke-width="1px">120</text><text x="223.17840267964732" y="0" dx="0em" dy="0.95em" style="text-anchor: middle; visibility: hidden; font-family: Roboto, sans-serif; font-size: 12px; font-weight: 200;" fill="rgb(255, 255, 255)" stroke="none" stroke-width="1px">140</text><text x="245.16756421133752" y="0" dx="0em" dy="0.95em" style="text-anchor: middle; visibility: inherit; font-family: Roboto, sans-serif; font-size: 12px; font-weight: 200;" fill="rgb(255, 255, 255)" stroke="none" stroke-width="1px">160</text><text x="267.1567257430278" y="0" dx="0em" dy="0.95em" style="text-anchor: middle; visibility: hidden; font-family: Roboto, sans-serif; font-size: 12px; font-weight: 200;" fill="rgb(255, 255, 255)" stroke="none" stroke-width="1px">180</text></g><line x1="0" y1="0" x2="273.75" y2="0" fill="rgb(0, 0, 0)" stroke="rgb(204, 204, 204)" stroke-width="1px"></line></g></g></g></g></svg>