<svg viewBox="0 0 1261 400" xmlns="http://www.w3.org/2000/svg"><g><g><g><g><g><line x1="47" y1="344.4188796512649" x2="42" y2="344.4188796512649" style="visibility: inherit;" fill="rgb(0, 0, 0)" stroke="rgb(204, 204, 204)" stroke-width="1px"></line><line x1="47" y1="320.8147113696561" x2="42" y2="320.8147113696561" style="visibility: inherit;" fill="rgb(0, 0, 0)" stroke="rgb(204, 204, 204)" stroke-width="1px"></line><line x1="47" y1="304.06728745089487" x2="42" y2="304.06728745089487" style="visibility: inherit;" fill="rgb(0, 0, 0)" stroke="rgb(204, 204, 204)" stroke-width="1px"></line><line x1="47" y1="291.076976248158" x2="42" y2="291.076976248158" style="visibility: inherit;" fill="rgb(0, 0, 0)" stroke="rgb(204, 204, 204)" stroke-width="1px"></line><line x1="47" y1="280.46311916928613" x2="42" y2="280.46311916928613" style="visibility: inherit;" fill="rgb(0, 0, 0)" stroke="rgb(204, 204, 204)" stroke-width="1px"></line><line x1="47" y1="271.489230875065" x2="42" y2="271.489230875065" style="visibility: inherit;" fill="rgb(0, 0, 0)" stroke="rgb(204, 204, 204)" stroke-width="1px"></line><line x1="47" y1="263.7156952505249" x2="42" y2="263.7156952505249" style="visibility: inherit;" fill="rgb(0, 0, 0)" stroke="rgb(204, 204, 204)" stroke-width="1px"></line><line x1="47" y1="256.8589508876775" x2="42" y2="256.8589508876775" style="visibility: inherit;" fill="rgb(0, 0, 0)" stroke="rgb(204, 204, 204)" stroke-width="1px"></line><line x1="47" y1="250.72538404778808" x2="42" y2="250.72538404778808" style="visibility: inherit;" fill="rgb(0, 0, 0)" stroke="rgb(204, 204, 204)" stroke-width="1px"></line><line x1="47" y1="210.3737918474182" x2="42" y2="210.3737918474182" style="visibility: inherit;" fill="rgb(0, 0, 0)" stroke="rgb(204, 204, 204)" stroke-width="1px"></line><line x1="47" y1="186.7696235658095" x2="42" y2="186.7696235658095" style="visibility: inherit;" fill="rgb(0, 0, 0)" stroke="rgb(204, 204, 204)" stroke-width="1px"></line><line x1="47" y1="170.02219964704827" x2="42" y2="170.02219964704827" style="visibility: inherit;" fill="rgb(0, 0, 0)" stroke="rgb(204, 204, 204)" stroke-width="1px"></line><line x1="47" y1="157.0318884443114" x2="42" y2="157.0318884443114" style="visibility: inherit;" fill="rgb(0, 0, 0)" stroke="rgb(204, 204, 204)" stroke-width="1px"></line><line x1="47" y1="146.41803136543962" x2="42" y2="146.41803136543962" style="visibility: inherit;" fill="rgb(0, 0, 0)" stroke="rgb(204, 204, 204)" stroke-width="1px"></line><line x1="47" y1="137.44414307121838" x2="42" y2="137.44414307121838" style="visibility: inherit;" fill="rgb(0, 0, 0)" stroke="rgb(204, 204, 204)" stroke-width="1px"></line><line x1="47" y1="129.6706074466784" x2="42" y2="129.6706074466784" style="visibility: inherit;" fill="rgb(0, 0, 0)" stroke="rgb(204, 204, 204)" stroke-width="1px"></line><line x1="47" y1="122.81386308383087" x2="42" y2="122.81386308383087" style="visibility: inherit;" fill="rgb(0, 0, 0)" stroke="rgb(204, 204, 204)" stroke-width="1px"></line><line x1="47" y1="116.68029624394147" x2="42" y2="116.68029624394147" style="visibility: inherit;" fill="rgb(0, 0, 0)" stroke="rgb(204, 204, 204)" stroke-width="1px"></line><line x1="47" y1="76.32870404357162" x2="42" y2="76.32870404357162" style="visibility: inherit;" fill="rgb(0, 0, 0)" stroke="rgb(204, 204, 204)" stroke-width="1px"></line><line x1="47" y1="52.72453576196292" x2="42" y2="52.72453576196292" style="visibility: inherit;" fill="rgb(0, 0, 0)" stroke="rgb(204, 204, 204)" stroke-width="1px"></line><line x1="47" y1="35.97711184320168" x2="42" y2="35.97711184320168" style="visibility: inherit;" fill="rgb(0, 0, 0)" stroke="rgb(204, 204, 204)" stroke-width="1px"></line><line x1="47" y1="22.98680064046478" x2="42" y2="22.98680064046478" style="visibility: inherit;" fill="rgb(0, 0, 0)" stroke="rgb(204, 204, 204)" stroke-width="1px"></line><line x1="47" y1="12.372943561592987" x2="42" y2="12.372943561592987" style="visibility: inherit;" fill="rgb(0, 0, 0)" stroke="rgb(204, 204, 204)" stroke-width="1px"></line><line x1="47" y1="3.399055267371782" x2="42" y2="3.399055267371782" style="visibility: inherit;" fill="rgb(0, 0, 0)" stroke="rgb(204, 204, 204)" stroke-width="1px"></line></g><g transform="translate(37, 0)"><text x="0" y="344.4188796512649" dx="0em" dy="0.3em" style="text-anchor: end; visibility: inherit; font-family: Roboto, sans-serif; font-size: 12px; font-weight: 200;" fill="rgb(255, 255, 255)" stroke="none" stroke-width="1px">2e-4</text><text x="0" y="320.8147113696561" dx="0em" dy="0.3em" style="text-anchor: end; visibility: hidden; font-family: Roboto, sans-serif; font-size: 12px; font-weight: 200;" fill="rgb(255, 255, 255)" stroke="none" stroke-width="1px">3e-4</text><text x="0" y="304.06728745089487" dx="0em" dy="0.3em" style="text-anchor: end; visibility: hidden; font-family: Roboto, sans-serif; font-size: 12px; font-weight: 200;" fill="rgb(255, 255, 255)" stroke="none" stroke-width="1px">4e-4</text><text x="0" y="291.076976248158" dx="0em" dy="0.3em" style="text-anchor: end; visibility: inherit; font-family: Roboto, sans-serif; font-size: 12px; font-weight: 200;" fill="rgb(255, 255, 255)" stroke="none" stroke-width="1px">5e-4</text><text x="0" y="280.46311916928613" dx="0em" dy="0.3em" style="text-anchor: end; visibility: hidden; font-family: Roboto, sans-serif; font-size: 12px; font-weight: 200;" fill="rgb(255, 255, 255)" stroke="none" stroke-width="1px">6e-4</text><text x="0" y="271.489230875065" dx="0em" dy="0.3em" style="text-anchor: end; visibility: hidden; font-family: Roboto, sans-serif; font-size: 12px; font-weight: 200;" fill="rgb(255, 255, 255)" stroke="none" stroke-width="1px">7e-4</text><text x="0" y="263.7156952505249" dx="0em" dy="0.3em" style="text-anchor: end; visibility: inherit; font-family: Roboto, sans-serif; font-size: 12px; font-weight: 200;" fill="rgb(255, 255, 255)" stroke="none" stroke-width="1px">8e-4</text><text x="0" y="256.8589508876775" dx="0em" dy="0.3em" style="text-anchor: end; visibility: hidden; font-family: Roboto, sans-serif; font-size: 12px; font-weight: 200;" fill="rgb(255, 255, 255)" stroke="none" stroke-width="1px">9e-4</text><text x="0" y="250.72538404778808" dx="0em" dy="0.3em" style="text-anchor: end; visibility: hidden; font-family: Roboto, sans-serif; font-size: 12px; font-weight: 200;" fill="rgb(255, 255, 255)" stroke="none" stroke-width="1px">1e-3</text><text x="0" y="210.3737918474182" dx="0em" dy="0.3em" style="text-anchor: end; visibility: inherit; font-family: Roboto, sans-serif; font-size: 12px; font-weight: 200;" fill="rgb(255, 255, 255)" stroke="none" stroke-width="1px">2e-3</text><text x="0" y="186.7696235658095" dx="0em" dy="0.3em" style="text-anchor: end; visibility: hidden; font-family: Roboto, sans-serif; font-size: 12px; font-weight: 200;" fill="rgb(255, 255, 255)" stroke="none" stroke-width="1px">3e-3</text><text x="0" y="170.02219964704827" dx="0em" dy="0.3em" style="text-anchor: end; visibility: hidden; font-family: Roboto, sans-serif; font-size: 12px; font-weight: 200;" fill="rgb(255, 255, 255)" stroke="none" stroke-width="1px">4e-3</text><text x="0" y="157.0318884443114" dx="0em" dy="0.3em" style="text-anchor: end; visibility: inherit; font-family: Roboto, sans-serif; font-size: 12px; font-weight: 200;" fill="rgb(255, 255, 255)" stroke="none" stroke-width="1px">5e-3</text><text x="0" y="146.41803136543962" dx="0em" dy="0.3em" style="text-anchor: end; visibility: hidden; font-family: Roboto, sans-serif; font-size: 12px; font-weight: 200;" fill="rgb(255, 255, 255)" stroke="none" stroke-width="1px">6e-3</text><text x="0" y="137.44414307121838" dx="0em" dy="0.3em" style="text-anchor: end; visibility: hidden; font-family: Roboto, sans-serif; font-size: 12px; font-weight: 200;" fill="rgb(255, 255, 255)" stroke="none" stroke-width="1px">7e-3</text><text x="0" y="129.6706074466784" dx="0em" dy="0.3em" style="text-anchor: end; visibility: inherit; font-family: Roboto, sans-serif; font-size: 12px; font-weight: 200;" fill="rgb(255, 255, 255)" stroke="none" stroke-width="1px">8e-3</text><text x="0" y="122.81386308383087" dx="0em" dy="0.3em" style="text-anchor: end; visibility: hidden; font-family: Roboto, sans-serif; font-size: 12px; font-weight: 200;" fill="rgb(255, 255, 255)" stroke="none" stroke-width="1px">9e-3</text><text x="0" y="116.68029624394147" dx="0em" dy="0.3em" style="text-anchor: end; visibility: hidden; font-family: Roboto, sans-serif; font-size: 12px; font-weight: 200;" fill="rgb(255, 255, 255)" stroke="none" stroke-width="1px">0.01</text><text x="0" y="76.32870404357162" dx="0em" dy="0.3em" style="text-anchor: end; visibility: inherit; font-family: Roboto, sans-serif; font-size: 12px; font-weight: 200;" fill="rgb(255, 255, 255)" stroke="none" stroke-width="1px">0.02</text><text x="0" y="52.72453576196292" dx="0em" dy="0.3em" style="text-anchor: end; visibility: hidden; font-family: Roboto, sans-serif; font-size: 12px; font-weight: 200;" fill="rgb(255, 255, 255)" stroke="none" stroke-width="1px">0.03</text><text x="0" y="35.97711184320168" dx="0em" dy="0.3em" style="text-anchor: end; visibility: hidden; font-family: Roboto, sans-serif; font-size: 12px; font-weight: 200;" fill="rgb(255, 255, 255)" stroke="none" stroke-width="1px">0.04</text><text x="0" y="22.98680064046478" dx="0em" dy="0.3em" style="text-anchor: end; visibility: inherit; font-family: Roboto, sans-serif; font-size: 12px; font-weight: 200;" fill="rgb(255, 255, 255)" stroke="none" stroke-width="1px">0.05</text><text x="0" y="12.372943561592987" dx="0em" dy="0.3em" style="text-anchor: end; visibility: hidden; font-family: Roboto, sans-serif; font-size: 12px; font-weight: 200;" fill="rgb(255, 255, 255)" stroke="none" stroke-width="1px">0.06</text><text x="0" y="3.399055267371782" dx="0em" dy="0.3em" style="text-anchor: end; visibility: hidden; font-family: Roboto, sans-serif; font-size: 12px; font-weight: 200;" fill="rgb(255, 255, 255)" stroke="none" stroke-width="1px">0.07</text></g><line x1="47" y1="0" x2="47" y2="374" fill="rgb(0, 0, 0)" stroke="rgb(204, 204, 204)" stroke-width="1px"></line></g></g><g transform="translate(47, 0)" clip-path="url(#clip_0)"><clipPath id="clip_0"><rect width="1214" height="374"></rect></clipPath><g><g><g><line x1="0" y1="0" x2="0" y2="374" fill="rgb(0, 0, 0)" stroke="rgb(189, 189, 189)" stroke-width="1px" opacity="0.25"></line><line x1="101.16666666666666" y1="0" x2="101.16666666666666" y2="374" fill="rgb(0, 0, 0)" stroke="rgb(189, 189, 189)" stroke-width="1px" opacity="0.25"></line><line x1="202.33333333333331" y1="0" x2="202.33333333333331" y2="374" fill="rgb(0, 0, 0)" stroke="rgb(189, 189, 189)" stroke-width="1px" opacity="0.25"></line><line x1="303.5" y1="0" x2="303.5" y2="374" fill="rgb(0, 0, 0)" stroke="rgb(189, 189, 189)" stroke-width="1px" opacity="0.25"></line><line x1="404.66666666666663" y1="0" x2="404.66666666666663" y2="374" fill="rgb(0, 0, 0)" stroke="rgb(189, 189, 189)" stroke-width="1px" opacity="0.25"></line><line x1="505.83333333333337" y1="0" x2="505.83333333333337" y2="374" fill="rgb(0, 0, 0)" stroke="rgb(189, 189, 189)" stroke-width="1px" opacity="0.25"></line><line x1="607" y1="0" x2="607" y2="374" fill="rgb(0, 0, 0)" stroke="rgb(189, 189, 189)" stroke-width="1px" opacity="0.25"></line><line x1="708.1666666666667" y1="0" x2="708.1666666666667" y2="374" fill="rgb(0, 0, 0)" stroke="rgb(189, 189, 189)" stroke-width="1px" opacity="0.25"></line><line x1="809.3333333333333" y1="0" x2="809.3333333333333" y2="374" fill="rgb(0, 0, 0)" stroke="rgb(189, 189, 189)" stroke-width="1px" opacity="0.25"></line><line x1="910.5" y1="0" x2="910.5" y2="374" fill="rgb(0, 0, 0)" stroke="rgb(189, 189, 189)" stroke-width="1px" opacity="0.25"></line><line x1="1011.6666666666667" y1="0" x2="1011.6666666666667" y2="374" fill="rgb(0, 0, 0)" stroke="rgb(189, 189, 189)" stroke-width="1px" opacity="0.25"></line><line x1="1112.8333333333333" y1="0" x2="1112.8333333333333" y2="374" fill="rgb(0, 0, 0)" stroke="rgb(189, 189, 189)" stroke-width="1px" opacity="0.25"></line><line x1="1214" y1="0" x2="1214" y2="374" fill="rgb(0, 0, 0)" stroke="rgb(189, 189, 189)" stroke-width="1px" opacity="0.25"></line></g><g><line x1="0" y1="344.4188796512649" x2="1214" y2="344.4188796512649" fill="rgb(0, 0, 0)" stroke="rgb(189, 189, 189)" stroke-width="1px" opacity="0.25"></line><line x1="0" y1="320.8147113696561" x2="1214" y2="320.8147113696561" fill="rgb(0, 0, 0)" stroke="rgb(189, 189, 189)" stroke-width="1px" opacity="0.25"></line><line x1="0" y1="304.06728745089487" x2="1214" y2="304.06728745089487" fill="rgb(0, 0, 0)" stroke="rgb(189, 189, 189)" stroke-width="1px" opacity="0.25"></line><line x1="0" y1="291.076976248158" x2="1214" y2="291.076976248158" fill="rgb(0, 0, 0)" stroke="rgb(189, 189, 189)" stroke-width="1px" opacity="0.25"></line><line x1="0" y1="280.46311916928613" x2="1214" y2="280.46311916928613" fill="rgb(0, 0, 0)" stroke="rgb(189, 189, 189)" stroke-width="1px" opacity="0.25"></line><line x1="0" y1="271.489230875065" x2="1214" y2="271.489230875065" fill="rgb(0, 0, 0)" stroke="rgb(189, 189, 189)" stroke-width="1px" opacity="0.25"></line><line x1="0" y1="263.7156952505249" x2="1214" y2="263.7156952505249" fill="rgb(0, 0, 0)" stroke="rgb(189, 189, 189)" stroke-width="1px" opacity="0.25"></line><line x1="0" y1="256.8589508876775" x2="1214" y2="256.8589508876775" fill="rgb(0, 0, 0)" stroke="rgb(189, 189, 189)" stroke-width="1px" opacity="0.25"></line><line x1="0" y1="250.72538404778808" x2="1214" y2="250.72538404778808" fill="rgb(0, 0, 0)" stroke="rgb(189, 189, 189)" stroke-width="1px" opacity="0.25"></line><line x1="0" y1="210.3737918474182" x2="1214" y2="210.3737918474182" fill="rgb(0, 0, 0)" stroke="rgb(189, 189, 189)" stroke-width="1px" opacity="0.25"></line><line x1="0" y1="186.7696235658095" x2="1214" y2="186.7696235658095" fill="rgb(0, 0, 0)" stroke="rgb(189, 189, 189)" stroke-width="1px" opacity="0.25"></line><line x1="0" y1="170.02219964704827" x2="1214" y2="170.02219964704827" fill="rgb(0, 0, 0)" stroke="rgb(189, 189, 189)" stroke-width="1px" opacity="0.25"></line><line x1="0" y1="157.0318884443114" x2="1214" y2="157.0318884443114" fill="rgb(0, 0, 0)" stroke="rgb(189, 189, 189)" stroke-width="1px" opacity="0.25"></line><line x1="0" y1="146.41803136543962" x2="1214" y2="146.41803136543962" fill="rgb(0, 0, 0)" stroke="rgb(189, 189, 189)" stroke-width="1px" opacity="0.25"></line><line x1="0" y1="137.44414307121838" x2="1214" y2="137.44414307121838" fill="rgb(0, 0, 0)" stroke="rgb(189, 189, 189)" stroke-width="1px" opacity="0.25"></line><line x1="0" y1="129.6706074466784" x2="1214" y2="129.6706074466784" fill="rgb(0, 0, 0)" stroke="rgb(189, 189, 189)" stroke-width="1px" opacity="0.25"></line><line x1="0" y1="122.81386308383087" x2="1214" y2="122.81386308383087" fill="rgb(0, 0, 0)" stroke="rgb(189, 189, 189)" stroke-width="1px" opacity="0.25"></line><line x1="0" y1="116.68029624394147" x2="1214" y2="116.68029624394147" fill="rgb(0, 0, 0)" stroke="rgb(189, 189, 189)" stroke-width="1px" opacity="0.25"></line><line x1="0" y1="76.32870404357162" x2="1214" y2="76.32870404357162" fill="rgb(0, 0, 0)" stroke="rgb(189, 189, 189)" stroke-width="1px" opacity="0.25"></line><line x1="0" y1="52.72453576196292" x2="1214" y2="52.72453576196292" fill="rgb(0, 0, 0)" stroke="rgb(189, 189, 189)" stroke-width="1px" opacity="0.25"></line><line x1="0" y1="35.97711184320168" x2="1214" y2="35.97711184320168" fill="rgb(0, 0, 0)" stroke="rgb(189, 189, 189)" stroke-width="1px" opacity="0.25"></line><line x1="0" y1="22.98680064046478" x2="1214" y2="22.98680064046478" fill="rgb(0, 0, 0)" stroke="rgb(189, 189, 189)" stroke-width="1px" opacity="0.25"></line><line x1="0" y1="12.372943561592987" x2="1214" y2="12.372943561592987" fill="rgb(0, 0, 0)" stroke="rgb(189, 189, 189)" stroke-width="1px" opacity="0.25"></line><line x1="0" y1="3.399055267371782" x2="1214" y2="3.399055267371782" fill="rgb(0, 0, 0)" stroke="rgb(189, 189, 189)" stroke-width="1px" opacity="0.25"></line></g></g></g><g><g><line x1="101.16666666666666" y1="0" x2="101.16666666666666" y2="374" fill="rgb(0, 0, 0)" stroke="rgb(153, 153, 153)" stroke-width="1.5px"></line></g></g><g><g><g><g><g><path stroke="rgb(51, 187, 238)" stroke-width="2px" d="M121.4,-9.417186466078L131.51666666666668,11.810902234174996L141.63333333333333,28.05439302172632L151.75,41.45547470362304L161.86666666666667,53.428571428571445L171.98333333333332,63.70106036093874L182.1,73.13532410382511L192.21666666666667,81.82177332525457L202.33333333333331,89.66099968907365L212.45,96.769923251873L222.56666666666666,103.43269257211765L232.68333333333334,110.01982858735201L242.8,117.31099069428697L252.91666666666669,123.16266725756725L263.03333333333336,127.73204946436891L273.15000000000003,132.50553008257342L283.26666666666665,136.77329918983753L293.3833333333333,141.14083707269026L303.5,145.9262258081133L313.6166666666667,151.02796071779147L323.73333333333335,155.26689939741638L333.85,159.80980753332898L343.96666666666664,164.30365408678702L354.08333333333337,168.0327949366149L364.2,171.8339077955085L374.31666666666666,175.34545418073267L384.43333333333334,179.28481108290592L394.55,183.54312294313797L404.66666666666663,189.08050166245695L414.78333333333336,192.99062906240837L424.9,197.5334344218615L435.01666666666665,203.51339347491265L445.1333333333333,204.48885955161484L455.25,206.13699739039512L465.3666666666667,207.1854837853353L475.48333333333335,213.59866474026734L485.6,219.40270873348265L495.71666666666664,224.08656582689088L505.83333333333337,225.23139357296964L515.9499999999999,228.52099896876257L526.0666666666667,232.08995508689688L536.1833333333333,236.06539607743122L546.3000000000001,242.59812879981683L556.4166666666666,248.07609227582955L566.5333333333333,252.26281890586023L576.65,253.3634825709148L586.7666666666667,256.98303618649163L596.8833333333333,258.3317058974039L607,258.6648074261072L617.1166666666667,263.0759864379678L627.2333333333333,263.28285135161025L637.35,265.72073161454716L647.4666666666667,269.49329741278086L657.5833333333333,274.3310389716754L667.7,275.5659977098336L677.8166666666667,280.8270743240759L687.9333333333333,281.0067560226935L698.05,283.0433630555233L708.1666666666667,281.9975012262976L718.2833333333333,284.9699780719171L728.4,289.1852529471386L738.5166666666667,291.79053399921145L748.6333333333333,296.73658735487237L758.75,297.4429374902661L768.8666666666667,299.82226510638833L778.9833333333333,302.23059062627453L789.1,300.7173570537409L799.2166666666667,303.5530499944371L809.3333333333333,302.89601224825856L819.45,305.70893555118516L829.5666666666667,305.04670789942986L839.6833333333333,304.6529573404307L849.8,308.35499940796484L859.9166666666667,310.1536687064707L870.0333333333333,311.8116970594618L880.15,312.4922876083373L890.2666666666667,314.27568250788363L900.3833333333333,316.0838002333328L910.5,317.4399075444984L920.6166666666667,317.04366874768243L930.7333333333333,317.2922722457843L940.85,318.3028740904324L950.9666666666667,316.9479609010301L961.0833333333333,316.8707717480847L971.2,317.5538363003286L981.3166666666667,319.086977176926L991.4333333333333,319.8991374244364L1001.55,318.9960597969944L1011.6666666666667,319.7167159704629L1021.7833333333333,320.4098048667928L1031.8999999999999,320.5714285714286L1042.0166666666667,320.5397171829499L1052.1333333333334,320.77870081378677L1062.25,321.0523139481567L1072.3666666666666,320.56939789271786L1082.4833333333333,320.79658068463635L1092.6000000000001,320.41709019824015L1102.7166666666667,320.83405664319326L1112.8333333333333,320.69706595495603" style="fill: none;" fill="none"></path></g></g></g></g><g opacity="0.2"><g><g><g><path stroke="rgb(51, 187, 238)" stroke-width="2px" d="M111.28333333333333,-41.131738086071124L121.4,23.77215171327432L131.51666666666668,43.76450363144227L141.63333333333333,55.741220529027515L151.75,65.46473488385121L161.86666666666667,75.52891263291329L171.98333333333332,82.50000859030096L182.1,90.3900134020203L192.21666666666667,97.59368586951078L202.33333333333331,103.68222081958743L212.45,109.29981984317772L222.56666666666666,115.07267260247053L232.68333333333334,121.5238110320093L242.8,130.29244852461625L252.91666666666669,133.20820646563217L263.03333333333336,135.3344218084349L273.15000000000003,140.4885692753095L283.26666666666665,143.82464037836448L293.3833333333333,148.37488228045885L303.5,153.93340212845953L313.6166666666667,159.6311115956725L323.73333333333335,162.26685474407125L333.85,167.366976681501L343.96666666666664,171.77038045732456L354.08333333333337,174.11663678808995L364.2,178.04576068291894L374.31666666666666,181.04498985956909L384.43333333333334,185.7437760232453L394.55,190.57850166524295L404.66666666666663,198.51998881645622L414.78333333333336,199.3972175522113L424.9,205.09051893357378L435.01666666666665,213.8212447022415L445.1333333333333,205.98340778077932L455.25,208.70013927252316L465.3666666666667,208.79449397363575L475.48333333333335,224.77581152948648L485.6,229.36306354245298L495.71666666666664,231.90501056995822L505.83333333333337,226.99198804136162L515.9499999999999,233.83260027989627L526.0666666666667,237.89051555413567L536.1833333333333,242.58913541630585L546.3000000000001,254.0186236203675L556.4166666666666,257.4004850849555L566.5333333333333,259.16806092499377L576.65,255.054508778217L586.7666666666667,262.87285322598404L596.8833333333333,260.41516773944926L607,259.16806092499377L617.1166666666667,270.39079818782017L627.2333333333333,263.5945335738211L637.35,269.58036548081185L647.4666666666667,275.6543465312732L657.5833333333333,282.4366943205715L667.7,277.4689914204552L677.8166666666667,289.7342264374655L687.9333333333333,281.2773227267997L698.05,286.23843590937145L708.1666666666667,280.4631164042201L718.2833333333333,289.7342264374655L728.4,296.1423413649824L738.5166666666667,295.9310351361938L748.6333333333333,305.04570776350755L758.75,298.5187970291024L768.8666666666667,303.58416729138713L778.9833333333333,306.04086114159355L789.1,298.5187970291024L799.2166666666667,308.08370426629335L809.3333333333333,301.92415402145247L819.45,310.2008487019172L829.5666666666667,304.0672804501274L839.6833333333333,304.0672804501274L849.8,314.3907913206057L859.9166666666667,312.9603702461269L870.0333333333333,314.3907913206057L880.15,313.52832899247494L890.2666666666667,317.05759482964027L900.3833333333333,318.9058444138541L910.5,319.5352052594119L920.6166666666667,316.4543219637763L930.7333333333333,317.66717948280365L940.85,319.8524529314344L950.9666666666667,314.97294420253104L961.0833333333333,316.75517958166654L971.2,318.59369995487566L981.3166666666667,321.46516010257494L991.4333333333333,321.1390259007664L1001.55,317.66717948280365L1011.6666666666667,320.81470860459007L1021.7833333333333,321.46516010257494L1031.8999999999999,320.81470860459007L1042.0166666666667,320.49218246565425L1052.1333333333334,321.1390259007664L1062.25,321.46516010257494L1072.3666666666666,319.8524529314344L1082.4833333333333,321.1390259007664L1092.6000000000001,319.8524529314344L1102.7166666666667,321.46516010257494L1112.8333333333333,320.49218246565425" style="fill: none;" fill="none"></path></g></g></g></g></g></g><g transform="translate(47, 374)" clip-path="url(#clip_1)"><clipPath id="clip_1"><rect width="1214" height="26"></rect></clipPath><g><g><line x1="0" y1="0" x2="0" y2="5" style="visibility: inherit;" fill="rgb(0, 0, 0)" stroke="rgb(204, 204, 204)" stroke-width="1px"></line><line x1="101.16666666666666" y1="0" x2="101.16666666666666" y2="5" style="visibility: inherit;" fill="rgb(0, 0, 0)" stroke="rgb(204, 204, 204)" stroke-width="1px"></line><line x1="202.33333333333331" y1="0" x2="202.33333333333331" y2="5" style="visibility: inherit;" fill="rgb(0, 0, 0)" stroke="rgb(204, 204, 204)" stroke-width="1px"></line><line x1="303.5" y1="0" x2="303.5" y2="5" style="visibility: inherit;" fill="rgb(0, 0, 0)" stroke="rgb(204, 204, 204)" stroke-width="1px"></line><line x1="404.66666666666663" y1="0" x2="404.66666666666663" y2="5" style="visibility: inherit;" fill="rgb(0, 0, 0)" stroke="rgb(204, 204, 204)" stroke-width="1px"></line><line x1="505.83333333333337" y1="0" x2="505.83333333333337" y2="5" style="visibility: inherit;" fill="rgb(0, 0, 0)" stroke="rgb(204, 204, 204)" stroke-width="1px"></line><line x1="607" y1="0" x2="607" y2="5" style="visibility: inherit;" fill="rgb(0, 0, 0)" stroke="rgb(204, 204, 204)" stroke-width="1px"></line><line x1="708.1666666666667" y1="0" x2="708.1666666666667" y2="5" style="visibility: inherit;" fill="rgb(0, 0, 0)" stroke="rgb(204, 204, 204)" stroke-width="1px"></line><line x1="809.3333333333333" y1="0" x2="809.3333333333333" y2="5" style="visibility: inherit;" fill="rgb(0, 0, 0)" stroke="rgb(204, 204, 204)" stroke-width="1px"></line><line x1="910.5" y1="0" x2="910.5" y2="5" style="visibility: inherit;" fill="rgb(0, 0, 0)" stroke="rgb(204, 204, 204)" stroke-width="1px"></line><line x1="1011.6666666666667" y1="0" x2="1011.6666666666667" y2="5" style="visibility: inherit;" fill="rgb(0, 0, 0)" stroke="rgb(204, 204, 204)" stroke-width="1px"></line><line x1="1112.8333333333333" y1="0" x2="1112.8333333333333" y2="5" style="visibility: inherit;" fill="rgb(0, 0, 0)" stroke="rgb(204, 204, 204)" stroke-width="1px"></line><line x1="1214" y1="0" x2="1214" y2="5" style="visibility: inherit;" fill="rgb(0, 0, 0)" stroke="rgb(204, 204, 204)" stroke-width="1px"></line></g><g transform="translate(0, 8)"><text x="0" y="0" dx="0em" dy="0.95em" style="text-anchor: middle; visibility: hidden; font-family: Roboto, sans-serif; font-size: 12px; font-weight: 200;" fill="rgb(255, 255, 255)" stroke="none" stroke-width="1px">-10</text><text x="101.16666666666666" y="0" dx="0em" dy="0.95em" style="text-anchor: middle; visibility: inherit; font-family: Roboto, sans-serif; font-size: 12px; font-weight: 200;" fill="rgb(255, 255, 255)" stroke="none" stroke-width="1px">0</text><text x="202.33333333333331" y="0" dx="0em" dy="0.95em" style="text-anchor: middle; visibility: inherit; font-family: Roboto, sans-serif; font-size: 12px; font-weight: 200;" fill="rgb(255, 255, 255)" stroke="none" stroke-width="1px">10</text><text x="303.5" y="0" dx="0em" dy="0.95em" style="text-anchor: middle; visibility: inherit; font-family: Roboto, sans-serif; font-size: 12px; font-weight: 200;" fill="rgb(255, 255, 255)" stroke="none" stroke-width="1px">20</text><text x="404.66666666666663" y="0" dx="0em" dy="0.95em" style="text-anchor: middle; visibility: inherit; font-family: Roboto, sans-serif; font-size: 12px; font-weight: 200;" fill="rgb(255, 255, 255)" stroke="none" stroke-width="1px">30</text><text x="505.83333333333337" y="0" dx="0em" dy="0.95em" style="text-anchor: middle; visibility: inherit; font-family: Roboto, sans-serif; font-size: 12px; font-weight: 200;" fill="rgb(255, 255, 255)" stroke="none" stroke-width="1px">40</text><text x="607" y="0" dx="0em" dy="0.95em" style="text-anchor: middle; visibility: inherit; font-family: Roboto, sans-serif; font-size: 12px; font-weight: 200;" fill="rgb(255, 255, 255)" stroke="none" stroke-width="1px">50</text><text x="708.1666666666667" y="0" dx="0em" dy="0.95em" style="text-anchor: middle; visibility: inherit; font-family: Roboto, sans-serif; font-size: 12px; font-weight: 200;" fill="rgb(255, 255, 255)" stroke="none" stroke-width="1px">60</text><text x="809.3333333333333" y="0" dx="0em" dy="0.95em" style="text-anchor: middle; visibility: inherit; font-family: Roboto, sans-serif; font-size: 12px; font-weight: 200;" fill="rgb(255, 255, 255)" stroke="none" stroke-width="1px">70</text><text x="910.5" y="0" dx="0em" dy="0.95em" style="text-anchor: middle; visibility: inherit; font-family: Roboto, sans-serif; font-size: 12px; font-weight: 200;" fill="rgb(255, 255, 255)" stroke="none" stroke-width="1px">80</text><text x="1011.6666666666667" y="0" dx="0em" dy="0.95em" style="text-anchor: middle; visibility: inherit; font-family: Roboto, sans-serif; font-size: 12px; font-weight: 200;" fill="rgb(255, 255, 255)" stroke="none" stroke-width="1px">90</text><text x="1112.8333333333333" y="0" dx="0em" dy="0.95em" style="text-anchor: middle; visibility: inherit; font-family: Roboto, sans-serif; font-size: 12px; font-weight: 200;" fill="rgb(255, 255, 255)" stroke="none" stroke-width="1px">100</text><text x="1214" y="0" dx="0em" dy="0.95em" style="text-anchor: middle; visibility: hidden; font-family: Roboto, sans-serif; font-size: 12px; font-weight: 200;" fill="rgb(255, 255, 255)" stroke="none" stroke-width="1px">110</text></g><line x1="0" y1="0" x2="1214" y2="0" fill="rgb(0, 0, 0)" stroke="rgb(204, 204, 204)" stroke-width="1px"></line></g></g></g></g></svg>