<svg viewBox="0 0 330 200" xmlns="http://www.w3.org/2000/svg"><g><g><g><g><g><line x1="56.25" y1="171.98827825260543" x2="51.25" y2="171.98827825260543" style="visibility: inherit;" fill="rgb(0, 0, 0)" stroke="rgb(204, 204, 204)" stroke-width="1px"></line><line x1="56.25" y1="154.64807206703844" x2="51.25" y2="154.64807206703844" style="visibility: inherit;" fill="rgb(0, 0, 0)" stroke="rgb(204, 204, 204)" stroke-width="1px"></line><line x1="56.25" y1="137.30786588147146" x2="51.25" y2="137.30786588147146" style="visibility: inherit;" fill="rgb(0, 0, 0)" stroke="rgb(204, 204, 204)" stroke-width="1px"></line><line x1="56.25" y1="119.96765969590447" x2="51.25" y2="119.96765969590447" style="visibility: inherit;" fill="rgb(0, 0, 0)" stroke="rgb(204, 204, 204)" stroke-width="1px"></line><line x1="56.25" y1="102.62745351033749" x2="51.25" y2="102.62745351033749" style="visibility: inherit;" fill="rgb(0, 0, 0)" stroke="rgb(204, 204, 204)" stroke-width="1px"></line><line x1="56.25" y1="85.2872473247705" x2="51.25" y2="85.2872473247705" style="visibility: inherit;" fill="rgb(0, 0, 0)" stroke="rgb(204, 204, 204)" stroke-width="1px"></line><line x1="56.25" y1="67.94704113920352" x2="51.25" y2="67.94704113920352" style="visibility: inherit;" fill="rgb(0, 0, 0)" stroke="rgb(204, 204, 204)" stroke-width="1px"></line><line x1="56.25" y1="50.60683495363653" x2="51.25" y2="50.60683495363653" style="visibility: inherit;" fill="rgb(0, 0, 0)" stroke="rgb(204, 204, 204)" stroke-width="1px"></line><line x1="56.25" y1="33.26662876806954" x2="51.25" y2="33.26662876806954" style="visibility: inherit;" fill="rgb(0, 0, 0)" stroke="rgb(204, 204, 204)" stroke-width="1px"></line><line x1="56.25" y1="15.92642258250259" x2="51.25" y2="15.92642258250259" style="visibility: inherit;" fill="rgb(0, 0, 0)" stroke="rgb(204, 204, 204)" stroke-width="1px"></line></g><g transform="translate(46.25, 0)"><text x="0" y="171.98827825260543" dx="0em" dy="0.3em" style="text-anchor: end; visibility: hidden; font-family: Roboto, sans-serif; font-size: 12px; font-weight: 200;" fill="rgb(255, 255, 255)" stroke="none" stroke-width="1px">-0.02</text><text x="0" y="154.64807206703844" dx="0em" dy="0.3em" style="text-anchor: end; visibility: inherit; font-family: Roboto, sans-serif; font-size: 12px; font-weight: 200;" fill="rgb(255, 255, 255)" stroke="none" stroke-width="1px">0</text><text x="0" y="137.30786588147146" dx="0em" dy="0.3em" style="text-anchor: end; visibility: hidden; font-family: Roboto, sans-serif; font-size: 12px; font-weight: 200;" fill="rgb(255, 255, 255)" stroke="none" stroke-width="1px">0.02</text><text x="0" y="119.96765969590447" dx="0em" dy="0.3em" style="text-anchor: end; visibility: inherit; font-family: Roboto, sans-serif; font-size: 12px; font-weight: 200;" fill="rgb(255, 255, 255)" stroke="none" stroke-width="1px">0.04</text><text x="0" y="102.62745351033749" dx="0em" dy="0.3em" style="text-anchor: end; visibility: hidden; font-family: Roboto, sans-serif; font-size: 12px; font-weight: 200;" fill="rgb(255, 255, 255)" stroke="none" stroke-width="1px">0.06</text><text x="0" y="85.2872473247705" dx="0em" dy="0.3em" style="text-anchor: end; visibility: inherit; font-family: Roboto, sans-serif; font-size: 12px; font-weight: 200;" fill="rgb(255, 255, 255)" stroke="none" stroke-width="1px">0.08</text><text x="0" y="67.94704113920352" dx="0em" dy="0.3em" style="text-anchor: end; visibility: hidden; font-family: Roboto, sans-serif; font-size: 12px; font-weight: 200;" fill="rgb(255, 255, 255)" stroke="none" stroke-width="1px">0.1</text><text x="0" y="50.60683495363653" dx="0em" dy="0.3em" style="text-anchor: end; visibility: inherit; font-family: Roboto, sans-serif; font-size: 12px; font-weight: 200;" fill="rgb(255, 255, 255)" stroke="none" stroke-width="1px">0.12</text><text x="0" y="33.26662876806954" dx="0em" dy="0.3em" style="text-anchor: end; visibility: hidden; font-family: Roboto, sans-serif; font-size: 12px; font-weight: 200;" fill="rgb(255, 255, 255)" stroke="none" stroke-width="1px">0.14</text><text x="0" y="15.92642258250259" dx="0em" dy="0.3em" style="text-anchor: end; visibility: inherit; font-family: Roboto, sans-serif; font-size: 12px; font-weight: 200;" fill="rgb(255, 255, 255)" stroke="none" stroke-width="1px">0.16</text></g><line x1="56.25" y1="0" x2="56.25" y2="174" fill="rgb(0, 0, 0)" stroke="rgb(204, 204, 204)" stroke-width="1px"></line></g></g><g transform="translate(56, 0)" clip-path="url(#clip_0)"><clipPath id="clip_0"><rect width="273" height="174"></rect></clipPath><g><g><g><line x1="30.264456275422447" y1="0" x2="30.264456275422447" y2="174" fill="rgb(0, 0, 0)" stroke="rgb(189, 189, 189)" stroke-width="1px" opacity="0.25"></line><line x1="62.12630257644284" y1="0" x2="62.12630257644284" y2="174" fill="rgb(0, 0, 0)" stroke="rgb(189, 189, 189)" stroke-width="1px" opacity="0.25"></line><line x1="93.98814887746323" y1="0" x2="93.98814887746323" y2="174" fill="rgb(0, 0, 0)" stroke="rgb(189, 189, 189)" stroke-width="1px" opacity="0.25"></line><line x1="125.84999517848362" y1="0" x2="125.84999517848362" y2="174" fill="rgb(0, 0, 0)" stroke="rgb(189, 189, 189)" stroke-width="1px" opacity="0.25"></line><line x1="157.71184147950402" y1="0" x2="157.71184147950402" y2="174" fill="rgb(0, 0, 0)" stroke="rgb(189, 189, 189)" stroke-width="1px" opacity="0.25"></line><line x1="189.5736877805244" y1="0" x2="189.5736877805244" y2="174" fill="rgb(0, 0, 0)" stroke="rgb(189, 189, 189)" stroke-width="1px" opacity="0.25"></line><line x1="221.4355340815448" y1="0" x2="221.4355340815448" y2="174" fill="rgb(0, 0, 0)" stroke="rgb(189, 189, 189)" stroke-width="1px" opacity="0.25"></line><line x1="253.2973803825652" y1="0" x2="253.2973803825652" y2="174" fill="rgb(0, 0, 0)" stroke="rgb(189, 189, 189)" stroke-width="1px" opacity="0.25"></line></g><g><line x1="0" y1="171.98827825260543" x2="273.75" y2="171.98827825260543" fill="rgb(0, 0, 0)" stroke="rgb(189, 189, 189)" stroke-width="1px" opacity="0.25"></line><line x1="0" y1="154.64807206703844" x2="273.75" y2="154.64807206703844" fill="rgb(0, 0, 0)" stroke="rgb(189, 189, 189)" stroke-width="1px" opacity="0.25"></line><line x1="0" y1="137.30786588147146" x2="273.75" y2="137.30786588147146" fill="rgb(0, 0, 0)" stroke="rgb(189, 189, 189)" stroke-width="1px" opacity="0.25"></line><line x1="0" y1="119.96765969590447" x2="273.75" y2="119.96765969590447" fill="rgb(0, 0, 0)" stroke="rgb(189, 189, 189)" stroke-width="1px" opacity="0.25"></line><line x1="0" y1="102.62745351033749" x2="273.75" y2="102.62745351033749" fill="rgb(0, 0, 0)" stroke="rgb(189, 189, 189)" stroke-width="1px" opacity="0.25"></line><line x1="0" y1="85.2872473247705" x2="273.75" y2="85.2872473247705" fill="rgb(0, 0, 0)" stroke="rgb(189, 189, 189)" stroke-width="1px" opacity="0.25"></line><line x1="0" y1="67.94704113920352" x2="273.75" y2="67.94704113920352" fill="rgb(0, 0, 0)" stroke="rgb(189, 189, 189)" stroke-width="1px" opacity="0.25"></line><line x1="0" y1="50.60683495363653" x2="273.75" y2="50.60683495363653" fill="rgb(0, 0, 0)" stroke="rgb(189, 189, 189)" stroke-width="1px" opacity="0.25"></line><line x1="0" y1="33.26662876806954" x2="273.75" y2="33.26662876806954" fill="rgb(0, 0, 0)" stroke="rgb(189, 189, 189)" stroke-width="1px" opacity="0.25"></line><line x1="0" y1="15.92642258250259" x2="273.75" y2="15.92642258250259" fill="rgb(0, 0, 0)" stroke="rgb(189, 189, 189)" stroke-width="1px" opacity="0.25"></line></g></g></g><g><g><line x1="0" y1="154.64807206703844" x2="273.75" y2="154.64807206703844" fill="rgb(0, 0, 0)" stroke="rgb(153, 153, 153)" stroke-width="1.5px"></line></g></g><g><g><line x1="62.12630257644284" y1="0" x2="62.12630257644284" y2="174" fill="rgb(0, 0, 0)" stroke="rgb(153, 153, 153)" stroke-width="1.5px"></line></g></g><g><g><g><g><g><path style="fill: none;" stroke="rgb(51, 187, 238)" stroke-width="2px" d="M63.719394891493856,24.23237259736415L65.31248720654487,79.01117123909704L66.9055795215959,102.12278442907375L68.49867183664692,114.91161588471712L70.09176415169793,123.08242476998063L71.68485646674895,128.9504293908601L73.27794878179998,133.10742691210638L74.871041096851,136.33009821099353L76.46413341190201,138.86923500908796L78.05722572695304,140.85716029947568L79.65031804200406,142.44247142248722L81.24341035705508,143.76243823008272L82.8365026721061,144.92703665644007L84.4295949871571,146.07139279707238L86.02268730220813,146.8915929010664L87.61577961725915,147.47712968447988L89.20887193231017,148.04166658986225L90.80196424736118,148.50865813738022L92.39505656241221,148.95240871181994L93.98814887746323,149.40187659672847L95.58124119251426,149.84206255774583L97.17433350756528,150.17957584083894L98.76742582261629,150.5150235876679L100.36051813766731,150.82206637795616L101.95361045271834,151.05946785183383L103.54670276776935,151.28629747510956L105.13979508282037,151.48308576285484L106.73288739787138,151.6901717245814L108.3259797129224,151.89881227828047L109.91907202797343,152.1482680706567L111.51216434302445,152.31065765284197L113.10525665807546,152.48612235135232L114.69834897312649,152.69717642226286L116.29144128817751,152.72959377161956L117.88453360322853,152.78314655032528L119.47762591827956,152.81643426643515L121.07071823333055,153.00749688829123L122.66381054838158,153.16317296518932L124.2569028634326,153.27796488011143L125.84999517848362,153.30464551536537L127.44308749353463,153.37845459330077L129.03617980858567,153.45395240659965L130.62927212363667,153.53277551968006L132.2223644386877,153.6511642090117L133.81545675373872,153.7406936487924L135.40854906878974,153.8036594257519L137.00164138384076,153.81947463846018L138.59473369889176,153.86942424574266L140.18782601394278,153.88725585410216L141.7809183289938,153.89159674893386L143.37401064404483,153.94679992149918L144.96710295909585,153.94928744283612L146.56019527414688,153.97794629038248L148.1532875891979,154.01999589528702L149.74637990424893,154.07007995460643L151.33947221929995,154.082212188737L152.93256453435094,154.13110801796276L154.52565684940197,154.1327011762088L156.118749164453,154.15041928371377L157.71184147950402,154.14139791293346L159.30493379455504,154.1666194524806L160.89802610960606,154.20024859230847L162.4911184246571,154.21984807165995L164.0842107397081,154.2547280319187L165.67730305475914,154.25947182024845L167.27039536981016,154.27503424370727L168.86348768486113,154.2901517634212L170.45657999991215,154.28072605914994L172.04967231496317,154.298190909235L173.6427646300142,154.29421964509618L175.23585694506522,154.31091111735097L176.82894926011625,154.30705383105916L178.42204157516727,154.3047394592841L180.0151338902183,154.32589311441498L181.60822620526932,154.3356952645809L183.2013185203203,154.34446659759305L184.79441083537134,154.34799537367144L186.38750315042236,154.35704872414078L187.98059546547339,154.36594877178692L189.5736877805244,154.37244481955832L191.16678009557543,154.37056237248922L192.75987241062646,154.37174493252186L194.35296472567748,154.37650052054448L195.9460570407285,154.37010576026162L197.5391493557795,154.36973695154973L199.13224167083052,154.37298370368708L200.72533398588155,154.38013381606294L202.31842630093257,154.38384587894325L203.9115186159836,154.3797150363943L205.5046109310346,154.38301660659684L207.09770324608562,154.3861535578088L208.69079556113664,154.38687971944555L210.28388787618766,154.38673740178908L211.87698019123866,154.38780803037892L213.47007250628968,154.38902841207803L215.0631648213407,154.38687060827817L216.65625713639173,154.38788795427237L218.24934945144275,154.38618633359482L219.84244176649378,154.38805539400755L221.4355340815448,154.38744280652628" fill="none"></path></g></g></g></g><g opacity="0.2"><g><g><g><path style="fill: none;" stroke="rgb(51, 187, 238)" stroke-width="2px" d="M63.719394891493856,24.23237259736415L65.31248720654487,111.87845042413679L66.9055795215959,124.30993309145141L68.49867183664692,129.95128167655375L70.09176415169793,133.75023285058066L71.68485646674895,137.0679922631999L73.27794878179998,139.05199987944886L74.871041096851,141.02878390241546L76.46413341190201,142.61396858434563L78.05722572695304,143.80899767493634L79.65031804200406,144.80605945179772L81.24341035705508,145.7352052403988L82.8365026721061,146.67013168005153L84.4295949871571,147.78568509521114L86.02268730220813,148.1209289426243L87.61577961725915,148.35502189369487L89.20887193231017,148.88823305483731L90.80196424736118,149.20902688955385L92.39505656241221,149.61796697254587L93.98814887746323,150.07603734094627L95.58124119251426,150.5023173584276L97.17433350756528,150.68583465946028L98.76742582261629,151.01818858508074L100.36051813766731,151.282626926174L101.95361045271834,151.41556837530226L103.54670276776935,151.6265409426984L105.13979508282037,151.77826769094543L106.73288739787138,152.00080034924554L108.3259797129224,152.21177291664165L109.91907202797343,152.52245162135063L111.51216434302445,152.5542419722697L113.10525665807546,152.7493193642063L114.69834897312649,153.013757503433L116.29144128817751,152.77821979333268L117.88453360322853,152.86347571608232L119.47762591827956,152.86636583974158L121.07071823333055,153.29409081811926L122.66381054838158,153.39668707909135L124.2569028634326,153.4501527518552L125.84999517848362,153.34466646815713L127.44308749353463,153.48916821005585L129.03617980858567,153.56719912645718L130.62927212363667,153.65101018924378L132.2223644386877,153.82874724295792L133.81545675373872,153.87498780844018L135.40854906878974,153.8981080911813L137.00164138384076,153.84319745752111L138.59473369889176,153.94434865666358L140.18782601394278,153.91400326664086L141.7809183289938,153.8981080911813L143.37401064404483,154.0296046803465L144.96710295909585,153.9530187248415L146.56019527414688,154.02093456170192L148.1532875891979,154.0830703026437L149.74637990424893,154.1452060435855L151.33947221929995,154.10041053993288L152.93256453435094,154.20445176180132L154.52565684940197,154.1350909135779L156.118749164453,154.1769964449712L157.71184147950402,154.12786585676298L159.30493379455504,154.20445176180132L160.89802610960606,154.25069230205025L162.4911184246571,154.24924729068724L164.0842107397081,154.30704797230675L165.67730305475914,154.26658750274308L167.27039536981016,154.2983778788955L168.86348768486113,154.31282804299204L170.45657999991215,154.26658750274308L172.04967231496317,154.3243881843626L173.6427646300142,154.28826274888792L175.23585694506522,154.33594832573317L176.82894926011625,154.30126790162146L178.42204157516727,154.30126790162146L180.0151338902183,154.3576235971113L181.60822620526932,154.3503984898297L183.2013185203203,154.3576235971113L184.79441083537134,154.353288537789L186.38750315042236,154.37062874984485L187.98059546547339,154.37929884325612L189.5736877805244,154.38218889121543L191.16678009557543,154.36773870188554L192.75987241062646,154.37351877257083L194.35296472567748,154.38363390257842L195.9460570407285,154.3605136198373L197.5391493557795,154.36918373848187L199.13224167083052,154.37785383189313L200.72533398588155,154.39085898462668L202.31842630093257,154.3894139732637L203.9115186159836,154.37351877257083L205.5046109310346,154.3879689619007L207.09770324608562,154.39085898462668L208.69079556113664,154.3879689619007L210.28388787618766,154.3865239253044L211.87698019123866,154.3894139732637L213.47007250628968,154.39085898462668L215.0631648213407,154.38363390257842L216.65625713639173,154.3894139732637L218.24934945144275,154.38363390257842L219.84244176649378,154.39085898462668L221.4355340815448,154.3865239253044" fill="none"></path></g></g></g></g></g></g><g transform="translate(56, 174)" clip-path="url(#clip_1)"><clipPath id="clip_1"><rect width="273" height="26"></rect></clipPath><g><g><line x1="30.264456275422447" y1="0" x2="30.264456275422447" y2="5" style="visibility: inherit;" fill="rgb(0, 0, 0)" stroke="rgb(204, 204, 204)" stroke-width="1px"></line><line x1="62.12630257644284" y1="0" x2="62.12630257644284" y2="5" style="visibility: inherit;" fill="rgb(0, 0, 0)" stroke="rgb(204, 204, 204)" stroke-width="1px"></line><line x1="93.98814887746323" y1="0" x2="93.98814887746323" y2="5" style="visibility: inherit;" fill="rgb(0, 0, 0)" stroke="rgb(204, 204, 204)" stroke-width="1px"></line><line x1="125.84999517848362" y1="0" x2="125.84999517848362" y2="5" style="visibility: inherit;" fill="rgb(0, 0, 0)" stroke="rgb(204, 204, 204)" stroke-width="1px"></line><line x1="157.71184147950402" y1="0" x2="157.71184147950402" y2="5" style="visibility: inherit;" fill="rgb(0, 0, 0)" stroke="rgb(204, 204, 204)" stroke-width="1px"></line><line x1="189.5736877805244" y1="0" x2="189.5736877805244" y2="5" style="visibility: inherit;" fill="rgb(0, 0, 0)" stroke="rgb(204, 204, 204)" stroke-width="1px"></line><line x1="221.4355340815448" y1="0" x2="221.4355340815448" y2="5" style="visibility: inherit;" fill="rgb(0, 0, 0)" stroke="rgb(204, 204, 204)" stroke-width="1px"></line><line x1="253.2973803825652" y1="0" x2="253.2973803825652" y2="5" style="visibility: inherit;" fill="rgb(0, 0, 0)" stroke="rgb(204, 204, 204)" stroke-width="1px"></line></g><g transform="translate(0, 8)"><text x="30.264456275422447" y="0" dx="0em" dy="0.95em" style="text-anchor: middle; visibility: inherit; font-family: Roboto, sans-serif; font-size: 12px; font-weight: 200;" fill="rgb(255, 255, 255)" stroke="none" stroke-width="1px">-20</text><text x="62.12630257644284" y="0" dx="0em" dy="0.95em" style="text-anchor: middle; visibility: inherit; font-family: Roboto, sans-serif; font-size: 12px; font-weight: 200;" fill="rgb(255, 255, 255)" stroke="none" stroke-width="1px">0</text><text x="93.98814887746323" y="0" dx="0em" dy="0.95em" style="text-anchor: middle; visibility: inherit; font-family: Roboto, sans-serif; font-size: 12px; font-weight: 200;" fill="rgb(255, 255, 255)" stroke="none" stroke-width="1px">20</text><text x="125.84999517848362" y="0" dx="0em" dy="0.95em" style="text-anchor: middle; visibility: inherit; font-family: Roboto, sans-serif; font-size: 12px; font-weight: 200;" fill="rgb(255, 255, 255)" stroke="none" stroke-width="1px">40</text><text x="157.71184147950402" y="0" dx="0em" dy="0.95em" style="text-anchor: middle; visibility: inherit; font-family: Roboto, sans-serif; font-size: 12px; font-weight: 200;" fill="rgb(255, 255, 255)" stroke="none" stroke-width="1px">60</text><text x="189.5736877805244" y="0" dx="0em" dy="0.95em" style="text-anchor: middle; visibility: inherit; font-family: Roboto, sans-serif; font-size: 12px; font-weight: 200;" fill="rgb(255, 255, 255)" stroke="none" stroke-width="1px">80</text><text x="221.4355340815448" y="0" dx="0em" dy="0.95em" style="text-anchor: middle; visibility: inherit; font-family: Roboto, sans-serif; font-size: 12px; font-weight: 200;" fill="rgb(255, 255, 255)" stroke="none" stroke-width="1px">100</text><text x="253.2973803825652" y="0" dx="0em" dy="0.95em" style="text-anchor: middle; visibility: inherit; font-family: Roboto, sans-serif; font-size: 12px; font-weight: 200;" fill="rgb(255, 255, 255)" stroke="none" stroke-width="1px">120</text></g><line x1="0" y1="0" x2="273.75" y2="0" fill="rgb(0, 0, 0)" stroke="rgb(204, 204, 204)" stroke-width="1px"></line></g></g></g></g></svg>