<svg viewBox="0 0 1261 400" xmlns="http://www.w3.org/2000/svg"><g><g><g><g><g><line x1="56.25" y1="372.013012463306" x2="51.25" y2="372.013012463306" style="visibility: inherit;" fill="rgb(0, 0, 0)" stroke="rgb(204, 204, 204)" stroke-width="1px"></line><line x1="56.25" y1="331.3976158239941" x2="51.25" y2="331.3976158239941" style="visibility: inherit;" fill="rgb(0, 0, 0)" stroke="rgb(204, 204, 204)" stroke-width="1px"></line><line x1="56.25" y1="290.78221918468216" x2="51.25" y2="290.78221918468216" style="visibility: inherit;" fill="rgb(0, 0, 0)" stroke="rgb(204, 204, 204)" stroke-width="1px"></line><line x1="56.25" y1="250.16682254537025" x2="51.25" y2="250.16682254537025" style="visibility: inherit;" fill="rgb(0, 0, 0)" stroke="rgb(204, 204, 204)" stroke-width="1px"></line><line x1="56.25" y1="209.5514259060583" x2="51.25" y2="209.5514259060583" style="visibility: inherit;" fill="rgb(0, 0, 0)" stroke="rgb(204, 204, 204)" stroke-width="1px"></line><line x1="56.25" y1="168.93602926674637" x2="51.25" y2="168.93602926674637" style="visibility: inherit;" fill="rgb(0, 0, 0)" stroke="rgb(204, 204, 204)" stroke-width="1px"></line><line x1="56.25" y1="128.32063262743446" x2="51.25" y2="128.32063262743446" style="visibility: inherit;" fill="rgb(0, 0, 0)" stroke="rgb(204, 204, 204)" stroke-width="1px"></line><line x1="56.25" y1="87.70523598812252" x2="51.25" y2="87.70523598812252" style="visibility: inherit;" fill="rgb(0, 0, 0)" stroke="rgb(204, 204, 204)" stroke-width="1px"></line><line x1="56.25" y1="47.08983934881058" x2="51.25" y2="47.08983934881058" style="visibility: inherit;" fill="rgb(0, 0, 0)" stroke="rgb(204, 204, 204)" stroke-width="1px"></line><line x1="56.25" y1="6.474442709498674" x2="51.25" y2="6.474442709498674" style="visibility: inherit;" fill="rgb(0, 0, 0)" stroke="rgb(204, 204, 204)" stroke-width="1px"></line></g><g transform="translate(46.25, 0)"><text x="0" y="372.013012463306" dx="0em" dy="0.3em" style="text-anchor: end; visibility: hidden; font-family: Roboto, sans-serif; font-size: 12px; font-weight: 200;" fill="rgb(255, 255, 255)" stroke="none" stroke-width="1px">-0.02</text><text x="0" y="331.3976158239941" dx="0em" dy="0.3em" style="text-anchor: end; visibility: inherit; font-family: Roboto, sans-serif; font-size: 12px; font-weight: 200;" fill="rgb(255, 255, 255)" stroke="none" stroke-width="1px">0</text><text x="0" y="290.78221918468216" dx="0em" dy="0.3em" style="text-anchor: end; visibility: inherit; font-family: Roboto, sans-serif; font-size: 12px; font-weight: 200;" fill="rgb(255, 255, 255)" stroke="none" stroke-width="1px">0.02</text><text x="0" y="250.16682254537025" dx="0em" dy="0.3em" style="text-anchor: end; visibility: inherit; font-family: Roboto, sans-serif; font-size: 12px; font-weight: 200;" fill="rgb(255, 255, 255)" stroke="none" stroke-width="1px">0.04</text><text x="0" y="209.5514259060583" dx="0em" dy="0.3em" style="text-anchor: end; visibility: inherit; font-family: Roboto, sans-serif; font-size: 12px; font-weight: 200;" fill="rgb(255, 255, 255)" stroke="none" stroke-width="1px">0.06</text><text x="0" y="168.93602926674637" dx="0em" dy="0.3em" style="text-anchor: end; visibility: inherit; font-family: Roboto, sans-serif; font-size: 12px; font-weight: 200;" fill="rgb(255, 255, 255)" stroke="none" stroke-width="1px">0.08</text><text x="0" y="128.32063262743446" dx="0em" dy="0.3em" style="text-anchor: end; visibility: inherit; font-family: Roboto, sans-serif; font-size: 12px; font-weight: 200;" fill="rgb(255, 255, 255)" stroke="none" stroke-width="1px">0.1</text><text x="0" y="87.70523598812252" dx="0em" dy="0.3em" style="text-anchor: end; visibility: inherit; font-family: Roboto, sans-serif; font-size: 12px; font-weight: 200;" fill="rgb(255, 255, 255)" stroke="none" stroke-width="1px">0.12</text><text x="0" y="47.08983934881058" dx="0em" dy="0.3em" style="text-anchor: end; visibility: inherit; font-family: Roboto, sans-serif; font-size: 12px; font-weight: 200;" fill="rgb(255, 255, 255)" stroke="none" stroke-width="1px">0.14</text><text x="0" y="6.474442709498674" dx="0em" dy="0.3em" style="text-anchor: end; visibility: hidden; font-family: Roboto, sans-serif; font-size: 12px; font-weight: 200;" fill="rgb(255, 255, 255)" stroke="none" stroke-width="1px">0.16</text></g><line x1="56.25" y1="0" x2="56.25" y2="374" fill="rgb(0, 0, 0)" stroke="rgb(204, 204, 204)" stroke-width="1px"></line></g></g><g transform="translate(56, 0)" clip-path="url(#clip_0)"><clipPath id="clip_0"><rect width="1204" height="374"></rect></clipPath><g><g><g><line x1="44.626094277997964" y1="0" x2="44.626094277997964" y2="374" fill="rgb(0, 0, 0)" stroke="rgb(189, 189, 189)" stroke-width="1px" opacity="0.25"></line><line x1="130.77683139376478" y1="0" x2="130.77683139376478" y2="374" fill="rgb(0, 0, 0)" stroke="rgb(189, 189, 189)" stroke-width="1px" opacity="0.25"></line><line x1="216.92756850953157" y1="0" x2="216.92756850953157" y2="374" fill="rgb(0, 0, 0)" stroke="rgb(189, 189, 189)" stroke-width="1px" opacity="0.25"></line><line x1="303.07830562529836" y1="0" x2="303.07830562529836" y2="374" fill="rgb(0, 0, 0)" stroke="rgb(189, 189, 189)" stroke-width="1px" opacity="0.25"></line><line x1="389.2290427410652" y1="0" x2="389.2290427410652" y2="374" fill="rgb(0, 0, 0)" stroke="rgb(189, 189, 189)" stroke-width="1px" opacity="0.25"></line><line x1="475.379779856832" y1="0" x2="475.379779856832" y2="374" fill="rgb(0, 0, 0)" stroke="rgb(189, 189, 189)" stroke-width="1px" opacity="0.25"></line><line x1="561.5305169725988" y1="0" x2="561.5305169725988" y2="374" fill="rgb(0, 0, 0)" stroke="rgb(189, 189, 189)" stroke-width="1px" opacity="0.25"></line><line x1="647.6812540883656" y1="0" x2="647.6812540883656" y2="374" fill="rgb(0, 0, 0)" stroke="rgb(189, 189, 189)" stroke-width="1px" opacity="0.25"></line><line x1="733.8319912041325" y1="0" x2="733.8319912041325" y2="374" fill="rgb(0, 0, 0)" stroke="rgb(189, 189, 189)" stroke-width="1px" opacity="0.25"></line><line x1="819.9827283198993" y1="0" x2="819.9827283198993" y2="374" fill="rgb(0, 0, 0)" stroke="rgb(189, 189, 189)" stroke-width="1px" opacity="0.25"></line><line x1="906.1334654356659" y1="0" x2="906.1334654356659" y2="374" fill="rgb(0, 0, 0)" stroke="rgb(189, 189, 189)" stroke-width="1px" opacity="0.25"></line><line x1="992.2842025514328" y1="0" x2="992.2842025514328" y2="374" fill="rgb(0, 0, 0)" stroke="rgb(189, 189, 189)" stroke-width="1px" opacity="0.25"></line><line x1="1078.4349396671996" y1="0" x2="1078.4349396671996" y2="374" fill="rgb(0, 0, 0)" stroke="rgb(189, 189, 189)" stroke-width="1px" opacity="0.25"></line><line x1="1164.5856767829664" y1="0" x2="1164.5856767829664" y2="374" fill="rgb(0, 0, 0)" stroke="rgb(189, 189, 189)" stroke-width="1px" opacity="0.25"></line></g><g><line x1="0" y1="372.013012463306" x2="1204.75" y2="372.013012463306" fill="rgb(0, 0, 0)" stroke="rgb(189, 189, 189)" stroke-width="1px" opacity="0.25"></line><line x1="0" y1="331.3976158239941" x2="1204.75" y2="331.3976158239941" fill="rgb(0, 0, 0)" stroke="rgb(189, 189, 189)" stroke-width="1px" opacity="0.25"></line><line x1="0" y1="290.78221918468216" x2="1204.75" y2="290.78221918468216" fill="rgb(0, 0, 0)" stroke="rgb(189, 189, 189)" stroke-width="1px" opacity="0.25"></line><line x1="0" y1="250.16682254537025" x2="1204.75" y2="250.16682254537025" fill="rgb(0, 0, 0)" stroke="rgb(189, 189, 189)" stroke-width="1px" opacity="0.25"></line><line x1="0" y1="209.5514259060583" x2="1204.75" y2="209.5514259060583" fill="rgb(0, 0, 0)" stroke="rgb(189, 189, 189)" stroke-width="1px" opacity="0.25"></line><line x1="0" y1="168.93602926674637" x2="1204.75" y2="168.93602926674637" fill="rgb(0, 0, 0)" stroke="rgb(189, 189, 189)" stroke-width="1px" opacity="0.25"></line><line x1="0" y1="128.32063262743446" x2="1204.75" y2="128.32063262743446" fill="rgb(0, 0, 0)" stroke="rgb(189, 189, 189)" stroke-width="1px" opacity="0.25"></line><line x1="0" y1="87.70523598812252" x2="1204.75" y2="87.70523598812252" fill="rgb(0, 0, 0)" stroke="rgb(189, 189, 189)" stroke-width="1px" opacity="0.25"></line><line x1="0" y1="47.08983934881058" x2="1204.75" y2="47.08983934881058" fill="rgb(0, 0, 0)" stroke="rgb(189, 189, 189)" stroke-width="1px" opacity="0.25"></line><line x1="0" y1="6.474442709498674" x2="1204.75" y2="6.474442709498674" fill="rgb(0, 0, 0)" stroke="rgb(189, 189, 189)" stroke-width="1px" opacity="0.25"></line></g></g></g><g><g><line x1="0" y1="331.3976158239941" x2="1204.75" y2="331.3976158239941" fill="rgb(0, 0, 0)" stroke="rgb(153, 153, 153)" stroke-width="1.5px"></line></g></g><g><g><line x1="130.77683139376478" y1="0" x2="130.77683139376478" y2="374" fill="rgb(0, 0, 0)" stroke="rgb(153, 153, 153)" stroke-width="1.5px"></line></g></g><g><g><g><g><g><path style="fill: none;" stroke="rgb(51, 187, 238)" stroke-width="2px" d="M139.39190510534144,25.9291972095168L148.00697881691812,154.23578194383407L156.6220525284948,208.36935605707436L165.2371262400715,238.32421683356296L173.85219995164817,257.46243469484847L182.46727366322486,271.20686959993674L191.08234737480151,280.94366865222156L199.69742108637823,288.49202601554833L208.31249479795488,294.4393629198763L216.92756850953157,299.0956151751476L225.54264222110828,302.8088374614789L234.15771593268494,305.90055245422457L242.7727896442616,308.62835317965033L251.3878633558383,311.30874106264446L260.00293706741496,313.22986888493347L268.6180107789916,314.601352502299L277.23308449056833,315.9236487936038L285.84815820214504,317.01746779014115L294.4632319137217,318.0568502171387L303.07830562529836,319.10962411306775L311.69337933687507,320.14065726287294L320.3084530484518,320.9312035641778L328.9235267600284,321.7169118275871L337.5386004716051,322.43608809223724L346.1536741831818,322.9921457838882L354.7687478947584,323.52344137635686L363.3838216063351,323.98437213318937L371.99889531791183,324.4694227942916L380.6139690294885,324.9581147252207L389.2290427410652,325.5424068520218L397.84411645264186,325.92276664820673L406.4591901642185,326.33375186083515L415.0742638757952,326.8280968940278L423.68933758737194,326.9040269889776L432.3044112989486,327.0294619073974L440.91948501052525,327.1074306338676L449.53455872210196,327.5549503511412L458.1496324336787,327.9195853239209L466.7647061452553,328.18845866404456L475.379779856832,328.25095184156686L483.9948535684087,328.42383242579103L492.60992727998536,328.6006684795104L501.225000991562,328.78529327392437L509.8400747031387,329.06259122086664L518.4551484147154,329.2722930934207L527.070222126292,329.41977576914815L535.6852958378688,329.45681922354584L544.3003695494455,329.57381455163164L552.9154432610221,329.61558094347777L561.5305169725988,329.6257484791732L570.1455906841754,329.75504906104027L578.7606643957522,329.7608755007416L587.3757381073289,329.82800218008236L595.9908118189055,329.9264935915135L604.6058855304822,330.0438038421989L613.2209592420589,330.07222077658025L621.8360329536355,330.1867478748603L630.4511066652123,330.19047947720577L639.0661803767889,330.23198001972014L647.6812540883656,330.21084955860846L656.2963277999423,330.2699251440772L664.911401511519,330.34869357613223L673.5264752230956,330.39460079426254L682.1415489346724,330.47629898201825L690.7566226462491,330.4874102019498L699.3716963578256,330.52386155637345L707.9867700694024,330.55927082733666L716.601843780979,330.5371933091409L725.2169174925557,330.57810065510085L733.8319912041325,330.56879889326297L742.4470649157091,330.6078947816779L751.0621386272858,330.59885998641556L759.6772123388625,330.5934391092582L768.2922860504391,330.6429866223799L776.9073597620157,330.6659458774571L785.5224334735925,330.6864906832992L794.1375071851692,330.6947560198553L802.7525808967458,330.7159613859445L811.3676546083226,330.73680767585523L819.9827283198993,330.75202315564826L828.5978020314759,330.7476139615738L837.2128757430527,330.75038383318093L845.8279494546292,330.76152269114635L854.4430231662059,330.74654445371806L863.0580968777826,330.7456806051595L871.6731705893593,330.7532853662816L880.288244300936,330.77003284016126L888.9033180125127,330.77872748338643L897.5183917240894,330.7690519462685L906.1334654356659,330.7767851059481L914.7485391472427,330.78413268396116L923.3636128588194,330.7858335485637L931.978686570396,330.7855002025813L940.5937602819728,330.7880079008384L949.2088339935494,330.7908663608954L957.8239077051261,330.785812207775L966.4389814167029,330.78819510395465L975.0540551282795,330.7842094536106L983.6691288398561,330.78858729255865L992.2842025514328,330.78715244897825" fill="none"></path></g></g></g></g><g opacity="0.2"><g><g><g><path style="fill: none;" stroke="rgb(51, 187, 238)" stroke-width="2px" d="M139.39190510534144,25.9291972095168L148.00697881691812,231.21973278442448L156.6220525284948,260.337587205785L165.2371262400715,273.5511331067135L173.85219995164817,282.44929193454277L182.46727366322486,290.2203710702396L191.08234737480151,294.86744708577385L199.69742108637823,299.4976035155094L208.31249479795488,303.2105296430398L216.92756850953157,306.00960711596264L225.54264222110828,308.34499223813197L234.15771593268494,310.5212999668826L242.7727896442616,312.7111475251361L251.3878633558383,315.32407172823804L260.00293706741496,316.10930240472834L268.6180107789916,316.657610651842L277.23308449056833,317.9065336790858L285.84815820214504,318.6579185644225L294.4632319137217,319.6157655181836L303.07830562529836,320.68868872925725L311.69337933687507,321.6871504432724L320.3084530484518,322.11699700287227L328.9235267600284,322.89545871026206L337.5386004716051,323.51484396988394L346.1536741831818,323.82622836914464L354.7687478947584,324.3203824993268L363.3838216063351,324.67576708904267L371.99889531791183,325.1969980412779L380.6139690294885,325.69115217146003L389.2290427410652,326.41884471929404L397.84411645264186,326.49330621635255L406.4591901642185,326.9502295980055L415.0742638757952,327.569614384802L423.68933758737194,327.0179221259635L432.3044112989486,327.21761427963634L440.91948501052525,327.22438372156233L449.53455872210196,328.2262299201277L458.1496324336787,328.46653777970556L466.7647061452553,328.5917686727326L475.379779856832,328.3446916076415L483.9948535684087,328.68315330178064L492.60992727998536,328.8659225598767L501.225000991562,329.062230465412L509.8400747031387,329.4785381411599L518.4551484147154,329.58684590219747L527.070222126292,329.6409997827162L535.6852958378688,329.5123844051389L544.3003695494455,329.74930754375373L552.9154432610221,329.67823053124545L561.5305169725988,329.6409997827162L570.1455906841754,329.9489999338393L578.7606643957522,329.76961516029354L587.3757381073289,329.92869219909323L595.9908118189055,330.07423070866L604.6058855304822,330.2197692182268L613.2209592420589,330.1148461781522L621.8360329536355,330.35853852228036L630.4511066652123,330.19607688072404L639.0661803767889,330.2942308334917L647.6812540883656,330.1791538669409L656.2963277999423,330.35853852228036L664.911401511519,330.4668462242147L673.5264752230956,330.4634616214581L682.1415489346724,330.5988462636518L690.7566226462491,330.50407703184715L699.3716963578256,330.5785385880089L707.9867700694024,330.6123847337815L716.601843780979,330.50407703184715L725.2169174925557,330.6394616740409L733.8319912041325,330.5548462505061L742.4470649157091,330.6665386143003L751.0621386272858,330.58530779352213L759.6772123388625,330.58530779352213L768.2922860504391,330.7173078920624L776.9073597620157,330.7003847600729L785.5224334735925,330.7173078920624L794.1375071851692,330.7071540246894L802.7525808967458,330.74776943507845L811.3676546083226,330.7680771107214L819.9827283198993,330.7748463753378L828.5978020314759,330.741000170462L837.2128757430527,330.7545386405917L845.8279494546292,330.7782309780944L854.4430231662059,330.7240770975757L863.0580968777826,330.74438483232177L871.6731705893593,330.76469250796475L880.288244300936,330.7951540509808L888.9033180125127,330.7917694482241L897.5183917240894,330.7545386405917L906.1334654356659,330.78838484546753L914.7485391472427,330.7951540509808L923.3636128588194,330.78838484546753L931.978686570396,330.7850001836077L940.5937602819728,330.7917694482241L949.2088339935494,330.7951540509808L957.8239077051261,330.7782309780944L966.4389814167029,330.7917694482241L975.0540551282795,330.7782309780944L983.6691288398561,330.7951540509808L992.2842025514328,330.7850001836077" fill="none"></path></g></g></g></g></g></g><g transform="translate(56, 374)" clip-path="url(#clip_1)"><clipPath id="clip_1"><rect width="1204" height="26"></rect></clipPath><g><g><line x1="44.626094277997964" y1="0" x2="44.626094277997964" y2="5" style="visibility: inherit;" fill="rgb(0, 0, 0)" stroke="rgb(204, 204, 204)" stroke-width="1px"></line><line x1="130.77683139376478" y1="0" x2="130.77683139376478" y2="5" style="visibility: inherit;" fill="rgb(0, 0, 0)" stroke="rgb(204, 204, 204)" stroke-width="1px"></line><line x1="216.92756850953157" y1="0" x2="216.92756850953157" y2="5" style="visibility: inherit;" fill="rgb(0, 0, 0)" stroke="rgb(204, 204, 204)" stroke-width="1px"></line><line x1="303.07830562529836" y1="0" x2="303.07830562529836" y2="5" style="visibility: inherit;" fill="rgb(0, 0, 0)" stroke="rgb(204, 204, 204)" stroke-width="1px"></line><line x1="389.2290427410652" y1="0" x2="389.2290427410652" y2="5" style="visibility: inherit;" fill="rgb(0, 0, 0)" stroke="rgb(204, 204, 204)" stroke-width="1px"></line><line x1="475.379779856832" y1="0" x2="475.379779856832" y2="5" style="visibility: inherit;" fill="rgb(0, 0, 0)" stroke="rgb(204, 204, 204)" stroke-width="1px"></line><line x1="561.5305169725988" y1="0" x2="561.5305169725988" y2="5" style="visibility: inherit;" fill="rgb(0, 0, 0)" stroke="rgb(204, 204, 204)" stroke-width="1px"></line><line x1="647.6812540883656" y1="0" x2="647.6812540883656" y2="5" style="visibility: inherit;" fill="rgb(0, 0, 0)" stroke="rgb(204, 204, 204)" stroke-width="1px"></line><line x1="733.8319912041325" y1="0" x2="733.8319912041325" y2="5" style="visibility: inherit;" fill="rgb(0, 0, 0)" stroke="rgb(204, 204, 204)" stroke-width="1px"></line><line x1="819.9827283198993" y1="0" x2="819.9827283198993" y2="5" style="visibility: inherit;" fill="rgb(0, 0, 0)" stroke="rgb(204, 204, 204)" stroke-width="1px"></line><line x1="906.1334654356659" y1="0" x2="906.1334654356659" y2="5" style="visibility: inherit;" fill="rgb(0, 0, 0)" stroke="rgb(204, 204, 204)" stroke-width="1px"></line><line x1="992.2842025514328" y1="0" x2="992.2842025514328" y2="5" style="visibility: inherit;" fill="rgb(0, 0, 0)" stroke="rgb(204, 204, 204)" stroke-width="1px"></line><line x1="1078.4349396671996" y1="0" x2="1078.4349396671996" y2="5" style="visibility: inherit;" fill="rgb(0, 0, 0)" stroke="rgb(204, 204, 204)" stroke-width="1px"></line><line x1="1164.5856767829664" y1="0" x2="1164.5856767829664" y2="5" style="visibility: inherit;" fill="rgb(0, 0, 0)" stroke="rgb(204, 204, 204)" stroke-width="1px"></line></g><g transform="translate(0, 8)"><text x="44.626094277997964" y="0" dx="0em" dy="0.95em" style="text-anchor: middle; visibility: inherit; font-family: Roboto, sans-serif; font-size: 12px; font-weight: 200;" fill="rgb(255, 255, 255)" stroke="none" stroke-width="1px">-10</text><text x="130.77683139376478" y="0" dx="0em" dy="0.95em" style="text-anchor: middle; visibility: inherit; font-family: Roboto, sans-serif; font-size: 12px; font-weight: 200;" fill="rgb(255, 255, 255)" stroke="none" stroke-width="1px">0</text><text x="216.92756850953157" y="0" dx="0em" dy="0.95em" style="text-anchor: middle; visibility: inherit; font-family: Roboto, sans-serif; font-size: 12px; font-weight: 200;" fill="rgb(255, 255, 255)" stroke="none" stroke-width="1px">10</text><text x="303.07830562529836" y="0" dx="0em" dy="0.95em" style="text-anchor: middle; visibility: inherit; font-family: Roboto, sans-serif; font-size: 12px; font-weight: 200;" fill="rgb(255, 255, 255)" stroke="none" stroke-width="1px">20</text><text x="389.2290427410652" y="0" dx="0em" dy="0.95em" style="text-anchor: middle; visibility: inherit; font-family: Roboto, sans-serif; font-size: 12px; font-weight: 200;" fill="rgb(255, 255, 255)" stroke="none" stroke-width="1px">30</text><text x="475.379779856832" y="0" dx="0em" dy="0.95em" style="text-anchor: middle; visibility: inherit; font-family: Roboto, sans-serif; font-size: 12px; font-weight: 200;" fill="rgb(255, 255, 255)" stroke="none" stroke-width="1px">40</text><text x="561.5305169725988" y="0" dx="0em" dy="0.95em" style="text-anchor: middle; visibility: inherit; font-family: Roboto, sans-serif; font-size: 12px; font-weight: 200;" fill="rgb(255, 255, 255)" stroke="none" stroke-width="1px">50</text><text x="647.6812540883656" y="0" dx="0em" dy="0.95em" style="text-anchor: middle; visibility: inherit; font-family: Roboto, sans-serif; font-size: 12px; font-weight: 200;" fill="rgb(255, 255, 255)" stroke="none" stroke-width="1px">60</text><text x="733.8319912041325" y="0" dx="0em" dy="0.95em" style="text-anchor: middle; visibility: inherit; font-family: Roboto, sans-serif; font-size: 12px; font-weight: 200;" fill="rgb(255, 255, 255)" stroke="none" stroke-width="1px">70</text><text x="819.9827283198993" y="0" dx="0em" dy="0.95em" style="text-anchor: middle; visibility: inherit; font-family: Roboto, sans-serif; font-size: 12px; font-weight: 200;" fill="rgb(255, 255, 255)" stroke="none" stroke-width="1px">80</text><text x="906.1334654356659" y="0" dx="0em" dy="0.95em" style="text-anchor: middle; visibility: inherit; font-family: Roboto, sans-serif; font-size: 12px; font-weight: 200;" fill="rgb(255, 255, 255)" stroke="none" stroke-width="1px">90</text><text x="992.2842025514328" y="0" dx="0em" dy="0.95em" style="text-anchor: middle; visibility: inherit; font-family: Roboto, sans-serif; font-size: 12px; font-weight: 200;" fill="rgb(255, 255, 255)" stroke="none" stroke-width="1px">100</text><text x="1078.4349396671996" y="0" dx="0em" dy="0.95em" style="text-anchor: middle; visibility: inherit; font-family: Roboto, sans-serif; font-size: 12px; font-weight: 200;" fill="rgb(255, 255, 255)" stroke="none" stroke-width="1px">110</text><text x="1164.5856767829664" y="0" dx="0em" dy="0.95em" style="text-anchor: middle; visibility: inherit; font-family: Roboto, sans-serif; font-size: 12px; font-weight: 200;" fill="rgb(255, 255, 255)" stroke="none" stroke-width="1px">120</text></g><line x1="0" y1="0" x2="1204.75" y2="0" fill="rgb(0, 0, 0)" stroke="rgb(204, 204, 204)" stroke-width="1px"></line></g></g></g></g></svg>